<?xml version="1.0" standalone="no"?>
<!DOCTYPE svg PUBLIC "-//W3C//DTD SVG 1.1//EN" "http://www.w3.org/Graphics/SVG/1.1/DTD/svg11.dtd" >
<svg xmlns="http://www.w3.org/2000/svg" xmlns:xlink="http://www.w3.org/1999/xlink" version="1.1">
<metadata>
Created by FontForge 20200427 at Wed Jan 15 02:59:49 2020
 By www
Part of the digitally encoded machine readable outline data for producing the Typefaces provided is copyrighted  2007 Linotype GmbH, www.linotype.com. All rights reserved. This software is the property of Linotype GmbH, and may not be reproduced, used, displayed, modified, disclosed or transferred without the express written approval of Linotype GmbH.  The digitally encoded machine readable software for producing the Typefaces licensed to you is copyrighted (c) 1989, 1995 Adobe Systems. All Rights Reserved. This software is the property of Adobe Systems Incorporated and its licensors, and may not be reproduced, used, displayed, modified, disclosed or transferred without the express written approval of Adobe. Avenir is a trademark of Linotype GmbH and may be registered in certain jurisdictions. This typeface is original artwork of Adrian Frutiger. The design may be protected in certain jurisdictions.
</metadata>
<defs>
<font id="AvenirLTPro-Light" horiz-adv-x="240" >
  <font-face 
    font-family="Avenir LT Pro"
    font-weight="200"
    font-stretch="normal"
    units-per-em="1000"
    panose-1="2 0 3 3 0 0 0 0 0 0"
    ascent="800"
    descent="-200"
    x-height="462"
    cap-height="708"
    bbox="-167 -250 1000 936"
    underline-thickness="50"
    underline-position="-150"
    unicode-range="U+0020-FFFD"
  />
<missing-glyph horiz-adv-x="512" 
d="M278 117h-56v67h56v-67zM271 234h-46l-2 17q0 56 13 81q15 28 46 59q30 28 40 45.5t10 37.5q0 36 -22.5 60.5t-53.5 24.5q-71 0 -82 -95l-50 8q6 69 42 103t93 34q55 0 89.5 -36t34.5 -95q0 -34 -13 -60t-50 -60q-37 -33 -43 -52q-6 -20 -6 -72zM50 50h412v617h-412v-617
zM0 718h512v-718h-512v718z" />
    <glyph glyph-name=".notdef" unicode="&#xfffd;" horiz-adv-x="512" 
d="M278 117h-56v67h56v-67zM271 234h-46l-2 17q0 56 13 81q15 28 46 59q30 28 40 45.5t10 37.5q0 36 -22.5 60.5t-53.5 24.5q-71 0 -82 -95l-50 8q6 69 42 103t93 34q55 0 89.5 -36t34.5 -95q0 -34 -13 -60t-50 -60q-37 -33 -43 -52q-6 -20 -6 -72zM50 50h412v617h-412v-617
zM0 718h512v-718h-512v718z" />
    <glyph glyph-name=".null" horiz-adv-x="200" 
 />
    <glyph glyph-name=".null" horiz-adv-x="200" 
 />
    <glyph glyph-name="nonmarkingreturn" horiz-adv-x="333" 
 />
    <glyph glyph-name="space" unicode=" " horiz-adv-x="260" 
 />
    <glyph glyph-name="exclam" unicode="!" horiz-adv-x="370" 
d="M215 708v-522h-60v522h60zM137 42q0 20 14 34t34 14t34 -14t14 -34t-14 -34t-34 -14t-34 14t-14 34z" />
    <glyph glyph-name="quotedbl" unicode="&#x22;" horiz-adv-x="520" 
d="M161 480v228h60v-228h-60zM299 480v228h60v-228h-60z" />
    <glyph glyph-name="numbersign" unicode="#" horiz-adv-x="520" 
d="M91 0l30 229h-108v48h115l22 156h-108v48h115l30 227h52l-31 -227h139l31 227h52l-31 -227h108v-48h-115l-21 -156h108v-48h-115l-30 -229h-52l30 229h-139l-30 -229h-52zM319 277l21 156h-138l-21 -156h138z" />
    <glyph glyph-name="dollar" unicode="$" horiz-adv-x="520" 
d="M281 314v-272q57 2 94.5 42.5t37.5 100.5q0 80 -89 113zM233 400v266q-50 -9 -85 -45.5t-35 -90.5q0 -49 26 -77.5t77 -46.5zM233 -79v67q-56 0 -111 27.5t-89 77.5l57 39q24 -40 62 -64t81 -26v290l-71 26q-65 24 -90 72.5t-25 95.5q0 79 57 133t129 61v67h48v-67
q122 0 185 -89l-55 -40q-23 35 -58 55t-72 20v-282l70 -24q53 -19 90.5 -63t37.5 -116q0 -82 -58.5 -135t-139.5 -58v-67h-48z" />
    <glyph glyph-name="percent" unicode="%" horiz-adv-x="815" 
d="M38 548q0 71 50.5 121.5t121.5 50.5t121.5 -50.5t50.5 -121.5t-50.5 -121.5t-121.5 -50.5t-121.5 50.5t-50.5 121.5zM92 548q0 -50 34.5 -84t83.5 -34t83.5 34t34.5 84t-34.5 84t-83.5 34t-83.5 -34t-34.5 -84zM433 160q0 71 50.5 121.5t121.5 50.5t121.5 -50.5
t50.5 -121.5t-50.5 -121.5t-121.5 -50.5t-121.5 50.5t-50.5 121.5zM487 160q0 -50 34.5 -84t83.5 -34t83.5 34t34.5 84t-34.5 84t-83.5 34t-83.5 -34t-34.5 -84zM158 -6l456 748l46 -28l-457 -748z" />
    <glyph glyph-name="ampersand" unicode="&#x26;" horiz-adv-x="704" 
d="M315 388l172 -182l102 184h68l-128 -226l161 -169h-89l-106 114q-46 -62 -98 -94.5t-122 -32.5q-92 0 -154 57t-62 149q0 39 12 70.5t40 58t48.5 41t61.5 39.5q-27 33 -41.5 52t-29.5 52.5t-15 63.5q0 74 52 117.5t126 43.5q65 0 112.5 -42t47.5 -108q0 -36 -12 -65
t-39 -52.5t-47 -36.5t-60 -34zM308 666q-45 0 -76 -28t-31 -72q0 -23 14.5 -51.5t27 -44t34.5 -41.5q29 15 45 24.5t39.5 28t34.5 40.5t11 49q0 42 -28 68.5t-71 26.5zM455 151l-196 204q-25 -15 -38.5 -24t-35 -26t-32.5 -32t-19.5 -37t-8.5 -46q0 -66 46 -107t114 -41
q97 0 170 109z" />
    <glyph glyph-name="quoteright" unicode="&#x2019;" horiz-adv-x="260" 
d="M62 480l63 228h73l-77 -228h-59z" />
    <glyph glyph-name="parenleft" unicode="(" horiz-adv-x="260" 
d="M197 732l51 -32q-63 -79 -96.5 -191t-33.5 -221q0 -208 130 -414l-47 -30q-69 95 -106 212t-37 232q0 119 36.5 235.5t102.5 208.5z" />
    <glyph glyph-name="parenright" unicode=")" horiz-adv-x="260" 
d="M63 -156l-51 32q63 79 96.5 191t33.5 221q0 208 -130 414l47 30q69 -95 106 -212t37 -232q0 -119 -36.5 -235.5t-102.5 -208.5z" />
    <glyph glyph-name="asterisk" unicode="*" horiz-adv-x="444" 
d="M247 708v-152l144 48l15 -48l-144 -47l91 -122l-37 -29l-94 125l-89 -125l-40 29l91 122l-146 50l14 45l147 -48v152h48z" />
    <glyph glyph-name="plus" unicode="+" horiz-adv-x="666" 
d="M78 279v48h231v231h48v-231h231v-48h-231v-231h-48v231h-231z" />
    <glyph glyph-name="comma" unicode="," horiz-adv-x="260" 
d="M50 -138l66 228h70l-77 -228h-59z" />
    <glyph glyph-name="hyphen" unicode="-" horiz-adv-x="333" 
d="M43 210v54h247v-54h-247z" />
    <glyph glyph-name="period" unicode="." horiz-adv-x="260" 
d="M82 42q0 20 14 34t34 14t34 -14t14 -34t-14 -34t-34 -14t-34 14t-14 34z" />
    <glyph glyph-name="slash" unicode="/" horiz-adv-x="370" 
d="M9 -18l304 762l52 -18l-303 -762z" />
    <glyph glyph-name="zero" unicode="0" horiz-adv-x="520" 
d="M26 354q0 52 5 98t20.5 97t40 87t68 60t100.5 24t100.5 -24t68 -60t40 -87t20.5 -97t5 -98t-5 -98t-20.5 -97t-40 -87t-68 -60t-100.5 -24t-100.5 24t-68 60t-40 87t-20.5 97t-5 98zM92 354q0 -39 3 -75t13.5 -81.5t27.5 -78t49 -55t75 -22.5t75 22.5t49 55t27.5 78
t13.5 81.5t3 75t-3 75t-13.5 81.5t-27.5 78t-49 55t-75 22.5t-75 -22.5t-49 -55t-27.5 -78t-13.5 -81.5t-3 -75z" />
    <glyph glyph-name="one" unicode="1" horiz-adv-x="520" 
d="M261 0v624h-1l-128 -105l-37 46l175 143h51v-708h-60z" />
    <glyph glyph-name="two" unicode="2" horiz-adv-x="520" 
d="M41 0v70l266 281q31 33 48.5 54t35 57.5t17.5 71.5q0 60 -39.5 96t-101.5 36q-54 0 -92.5 -32t-49.5 -84l-70 7q17 80 74 121.5t141 41.5q85 0 144.5 -49t59.5 -132q0 -39 -11 -74.5t-36 -70t-43.5 -55.5t-55.5 -58l-221 -227h372v-54h-438z" />
    <glyph glyph-name="three" unicode="3" horiz-adv-x="520" 
d="M41 127l65 21q20 -53 55.5 -79.5t93.5 -26.5q76 0 117 43.5t41 110.5q0 73 -55.5 109.5t-131.5 36.5h-26v60h30q65 0 111.5 33.5t46.5 100.5q0 57 -36 93.5t-95 36.5q-43 0 -78.5 -22t-55.5 -61l-57 32q56 105 191 105q86 0 141.5 -47t55.5 -135q0 -59 -33 -103.5
t-93 -60.5v-2q67 -12 109 -62.5t42 -118.5q0 -88 -57 -145.5t-162 -57.5q-165 0 -219 139z" />
    <glyph glyph-name="four" unicode="4" horiz-adv-x="520" 
d="M329 0v174h-306v71l283 463h83v-480h108v-54h-108v-174h-60zM329 228v414h-2l-250 -414h252z" />
    <glyph glyph-name="five" unicode="5" horiz-adv-x="520" 
d="M451 708v-54h-292l-3 -225q39 20 103 20q99 0 159.5 -68t60.5 -166q0 -107 -69.5 -167t-156.5 -60q-149 0 -212 120l62 31q18 -41 60.5 -69t89.5 -28q57 0 108.5 45.5t51.5 123.5q0 77 -51.5 130.5t-126.5 53.5q-71 0 -140 -48l6 361h350z" />
    <glyph glyph-name="six" unicode="6" horiz-adv-x="520" 
d="M361 708l-193 -312h2q36 30 105 30q94 0 155.5 -63t61.5 -155q0 -96 -65.5 -158t-166.5 -62t-166.5 62t-65.5 158q0 34 12 71.5t22 56t31 53.5l192 319h76zM260 374q-69 0 -117.5 -48.5t-48.5 -117.5q0 -74 46 -120t120 -46t120 46t46 120q0 69 -48.5 117.5t-117.5 48.5z
" />
    <glyph glyph-name="seven" unicode="7" horiz-adv-x="520" 
d="M443 708v-54l-282 -654h-67l287 654h-340v54h402z" />
    <glyph glyph-name="eight" unicode="8" horiz-adv-x="520" 
d="M66 536q0 82 55 133t139 51t139 -51t55 -133q0 -51 -31.5 -96.5t-81.5 -59.5v-1q65 -14 101.5 -65t36.5 -117q0 -94 -62 -151.5t-157 -57.5t-157 57.5t-62 151.5q0 66 36.5 117t101.5 65v1q-50 14 -81.5 59.5t-31.5 96.5zM132 536q0 -54 36 -92t92 -38t92 38t36 92
q0 58 -36.5 94t-91.5 36t-91.5 -36t-36.5 -94zM107 197q0 -65 42.5 -110t110.5 -45t110.5 45t42.5 110q0 69 -44 112t-109 43t-109 -43t-44 -112z" />
    <glyph glyph-name="nine" unicode="9" horiz-adv-x="520" 
d="M159 0l193 312h-2q-36 -30 -105 -30q-94 0 -155.5 63t-61.5 155q0 96 65.5 158t166.5 62t166.5 -62t65.5 -158q0 -34 -12 -71.5t-22 -56t-31 -53.5l-192 -319h-76zM260 334q69 0 117.5 48.5t48.5 117.5q0 74 -46 120t-120 46t-120 -46t-46 -120q0 -69 48.5 -117.5
t117.5 -48.5z" />
    <glyph glyph-name="colon" unicode=":" horiz-adv-x="260" 
d="M82 420q0 20 14 34t34 14t34 -14t14 -34t-14 -34t-34 -14t-34 14t-14 34zM82 42q0 20 14 34t34 14t34 -14t14 -34t-14 -34t-34 -14t-34 14t-14 34z" />
    <glyph glyph-name="semicolon" unicode=";" horiz-adv-x="260" 
d="M50 -138l66 228h70l-77 -228h-59zM82 420q0 20 14 34t34 14t34 -14t14 -34t-14 -34t-34 -14t-34 14t-14 34z" />
    <glyph glyph-name="less" unicode="&#x3c;" horiz-adv-x="666" 
d="M584 561v-50l-448 -208l448 -208v-50l-502 234v48z" />
    <glyph glyph-name="equal" unicode="=" horiz-adv-x="666" 
d="M78 351v48h510v-48h-510zM78 207v48h510v-48h-510z" />
    <glyph glyph-name="greater" unicode="&#x3e;" horiz-adv-x="666" 
d="M82 45v50l448 208l-448 208v50l502 -234v-48z" />
    <glyph glyph-name="question" unicode="?" horiz-adv-x="463" 
d="M204 186v84q0 37 16 67t39 52l46 44t39 52t16 66q0 54 -31.5 87.5t-85.5 33.5q-51 0 -85.5 -31.5t-45.5 -84.5l-65 8q13 75 66.5 118.5t128.5 43.5q81 0 132.5 -46t51.5 -126q0 -46 -16.5 -81.5t-40.5 -58.5t-48 -44t-40.5 -51.5t-16.5 -68.5v-64h-60zM187 42q0 20 14 34
t34 14t34 -14t14 -34t-14 -34t-34 -14t-34 14t-14 34z" />
    <glyph glyph-name="at" unicode="@" horiz-adv-x="800" 
d="M254 280q0 -42 23 -68.5t61 -26.5q66 0 117.5 77.5t51.5 149.5q0 102 -81 102q-48 0 -88.5 -39t-62 -92.5t-21.5 -102.5zM622 549l-97 -290q-11 -33 -11 -48q0 -26 26 -26q53 0 107.5 79t54.5 162q0 109 -85 180.5t-201 71.5q-134 0 -226 -96.5t-92 -226.5
q0 -134 94 -229.5t226 -95.5q74 0 144.5 37t109.5 95h58q-45 -82 -131 -131t-181 -49q-161 0 -267.5 108t-106.5 265q0 156 107.5 263.5t262.5 107.5q146 0 244 -86t98 -214q0 -121 -73 -208t-161 -87q-27 0 -44.5 17.5t-17.5 49.5h-2q-22 -27 -57.5 -47t-71.5 -20
q-65 0 -100 42t-35 105q0 112 66 201t170 89q82 0 106 -83h2l24 64h60z" />
    <glyph glyph-name="A" unicode="A" horiz-adv-x="685" 
d="M5 0l309 708h68l298 -708h-74l-77 188h-375l-80 -188h-69zM505 248l-160 388l-165 -388h325z" />
    <glyph glyph-name="B" unicode="B" horiz-adv-x="630" 
d="M97 0v708h204q46 0 82 -7t71.5 -26t55 -58t19.5 -96q0 -56 -33 -95.5t-94 -51.5v-2q70 -5 114 -52.5t44 -121.5q0 -58 -22.5 -99t-60.5 -61.5t-75.5 -29t-78.5 -8.5h-226zM163 648v-246h137q48 0 82.5 12t51 31.5t23 38t6.5 37.5q0 127 -154 127h-146zM163 342v-282h151
q55 0 93 13.5t55.5 36t24.5 43.5t7 43q0 73 -50 109.5t-120 36.5h-161z" />
    <glyph glyph-name="C" unicode="C" horiz-adv-x="704" 
d="M626 152l54 -41q-94 -129 -263 -129q-161 0 -263.5 104.5t-102.5 267.5t102.5 267.5t263.5 104.5q157 0 244 -111l-54 -45q-32 47 -83 71.5t-107 24.5q-136 0 -218 -88.5t-82 -223.5t82 -223.5t218 -88.5q58 0 116 28t93 82z" />
    <glyph glyph-name="D" unicode="D" horiz-adv-x="741" 
d="M88 0v708h219q75 0 136.5 -17.5t100.5 -43.5t68 -62.5t43.5 -69t23 -69t10 -56t1.5 -36.5t-1.5 -36.5t-10 -56t-23 -69t-43.5 -69t-68 -62.5t-100.5 -43.5t-136.5 -17.5h-219zM154 648v-588h136q149 0 241.5 74t92.5 220t-92.5 220t-241.5 74h-136z" />
    <glyph glyph-name="E" unicode="E" horiz-adv-x="593" 
d="M97 0v708h433v-60h-367v-252h344v-60h-344v-276h383v-60h-449z" />
    <glyph glyph-name="F" unicode="F" horiz-adv-x="556" 
d="M97 0v708h424v-60h-358v-252h333v-60h-333v-336h-66z" />
    <glyph glyph-name="G" unicode="G" horiz-adv-x="778" 
d="M681 382v-336q-112 -64 -264 -64q-161 0 -263.5 104.5t-102.5 267.5t102.5 267.5t263.5 104.5q158 0 255 -98l-48 -50q-32 39 -90.5 63.5t-116.5 24.5q-136 0 -218 -88.5t-82 -223.5t82 -223.5t218 -88.5q127 0 198 42v238h-170v60h236z" />
    <glyph glyph-name="H" unicode="H" horiz-adv-x="722" 
d="M97 0v708h66v-312h396v312h66v-708h-66v336h-396v-336h-66z" />
    <glyph glyph-name="I" unicode="I" horiz-adv-x="260" 
d="M97 0v708h66v-708h-66z" />
    <glyph glyph-name="J" unicode="J" horiz-adv-x="482" 
d="M385 708v-500q0 -32 -2.5 -57t-13.5 -59t-30.5 -56t-57.5 -38t-90 -16q-75 0 -121.5 38.5t-62.5 106.5l66 12q24 -97 118 -97q128 0 128 150v516h66z" />
    <glyph glyph-name="K" unicode="K" horiz-adv-x="611" 
d="M97 0v708h66v-312h6l343 312h91l-358 -324l378 -384h-95l-359 366h-6v-366h-66z" />
    <glyph glyph-name="L" unicode="L" horiz-adv-x="500" 
d="M97 0v708h66v-648h330v-60h-396z" />
    <glyph glyph-name="M" unicode="M" horiz-adv-x="889" 
d="M90 0v708h99l258 -594l258 594h94v-708h-66v624h-2l-270 -624h-29l-274 624h-2v-624h-66z" />
    <glyph glyph-name="N" unicode="N" horiz-adv-x="778" 
d="M97 0v708h85l431 -620h2v620h66v-708h-85l-431 620h-2v-620h-66z" />
    <glyph glyph-name="O" unicode="O" horiz-adv-x="834" 
d="M51 354q0 163 102.5 267.5t263.5 104.5t263.5 -104.5t102.5 -267.5t-102.5 -267.5t-263.5 -104.5t-263.5 104.5t-102.5 267.5zM117 354q0 -135 82 -223.5t218 -88.5t218 88.5t82 223.5t-82 223.5t-218 88.5t-218 -88.5t-82 -223.5z" />
    <glyph glyph-name="P" unicode="P" horiz-adv-x="574" 
d="M97 0v708h204q41 0 78.5 -9t72.5 -28.5t56 -58t21 -91.5q0 -91 -61.5 -138t-151.5 -47h-153v-336h-66zM163 648v-252h150q64 0 107 30t43 95q0 64 -45 95.5t-109 31.5h-146z" />
    <glyph glyph-name="Q" unicode="Q" horiz-adv-x="834" 
d="M813 60v-60h-390q-152 0 -262 102t-110 261q0 157 99 260t260 103t260 -103t99 -260q0 -97 -48.5 -184t-128.5 -117v-2h221zM117 363q0 -127 86 -215t218 -88q130 0 206 89t76 214q0 132 -79 217.5t-214 85.5t-214 -85.5t-79 -217.5z" />
    <glyph glyph-name="R" unicode="R" horiz-adv-x="593" 
d="M163 648v-252h140q49 0 84 12.5t51.5 33t23.5 40t7 40.5t-7 40.5t-23.5 40t-51.5 33t-84 12.5h-140zM97 0v708h186q252 0 252 -186q0 -159 -181 -182l206 -340h-75l-199 336h-123v-336h-66z" />
    <glyph glyph-name="S" unicode="S" horiz-adv-x="556" 
d="M53 89l63 42q53 -89 162 -89q68 0 113.5 38t45.5 101q0 46 -27 76t-67.5 43t-88 30t-88 35.5t-67.5 61t-27 105.5q0 90 66 142t161 52q125 0 193 -89l-57 -41q-50 70 -138 70q-68 0 -113.5 -35t-45.5 -99q0 -43 20 -72t52.5 -44.5t71 -27t77.5 -25t71.5 -33.5t52.5 -57.5
t20 -91.5q0 -92 -64.5 -145.5t-155.5 -53.5q-154 0 -230 107z" />
    <glyph glyph-name="T" unicode="T" horiz-adv-x="574" 
d="M254 0v648h-242v60h550v-60h-242v-648h-66z" />
    <glyph glyph-name="U" unicode="U" horiz-adv-x="684" 
d="M600 708v-437q0 -59 -13.5 -109t-42.5 -91.5t-80.5 -65t-121.5 -23.5t-121.5 23.5t-80.5 65t-42.5 91.5t-13.5 109v437h66v-420q0 -34 4 -64.5t16.5 -65t32.5 -59t56 -41t83 -16.5t83 16.5t56 41t32.5 59t16.5 65t4 64.5v420h66z" />
    <glyph glyph-name="V" unicode="V" horiz-adv-x="593" 
d="M261 0l-264 708h71l228 -621l230 621h70l-269 -708h-66z" />
    <glyph glyph-name="W" unicode="W" horiz-adv-x="944" 
d="M211 0l-206 708h68l176 -627h2l179 627h84l179 -627h2l176 627h68l-206 -708h-81l-179 630h-2l-179 -630h-81z" />
    <glyph glyph-name="X" unicode="X" horiz-adv-x="611" 
d="M1 0l266 372l-242 336h78l204 -288l201 288h79l-240 -336l263 -372h-82l-224 320l-224 -320h-79z" />
    <glyph glyph-name="Y" unicode="Y" horiz-adv-x="574" 
d="M254 0v305l-260 403h79l214 -336l219 336h74l-260 -403v-305h-66z" />
    <glyph glyph-name="Z" unicode="Z" horiz-adv-x="556" 
d="M23 0v52l414 596h-408v60h493v-54l-417 -594h428v-60h-510z" />
    <glyph glyph-name="bracketleft" unicode="[" horiz-adv-x="260" 
d="M224 732v-48h-90v-792h90v-48h-150v888h150z" />
    <glyph glyph-name="backslash" unicode="\" horiz-adv-x="370" 
d="M57 744l304 -762l-53 -18l-303 762z" />
    <glyph glyph-name="bracketright" unicode="]" horiz-adv-x="260" 
d="M36 -156v48h90v792h-90v48h150v-888h-150z" />
    <glyph glyph-name="asciicircum" unicode="^" horiz-adv-x="666" 
d="M82 256l228 452h46l228 -452h-56l-195 398l-194 -398h-57z" />
    <glyph glyph-name="underscore" unicode="_" horiz-adv-x="500" 
d="M0 -125v50h500v-50h-500z" />
    <glyph glyph-name="quoteleft" unicode="&#x2018;" horiz-adv-x="260" 
d="M198 708l-64 -228h-72l76 228h60z" />
    <glyph glyph-name="a" unicode="a" horiz-adv-x="519" 
d="M439 307v-113q0 -126 9 -194h-56q-6 34 -6 75h-2q-50 -87 -162 -87q-67 0 -115 34.5t-48 102.5q0 155 256 155h70v28q0 57 -35.5 84.5t-94.5 27.5q-80 0 -141 -52l-35 41q32 30 80.5 47.5t95.5 17.5q87 0 135.5 -41t48.5 -126zM385 232h-66q-85 0 -142.5 -24.5
t-57.5 -79.5q0 -40 32 -63t73 -23q88 0 124.5 45.5t36.5 113.5v31z" />
    <glyph glyph-name="b" unicode="b" horiz-adv-x="611" 
d="M67 0v756h60v-375h2q26 45 77.5 69t107.5 24q106 0 174.5 -68.5t68.5 -174.5t-68.5 -174.5t-174.5 -68.5q-56 0 -107.5 24t-77.5 69h-2v-81h-60zM121 231q0 -78 56 -133.5t137 -55.5q83 0 133 54.5t50 134.5t-50 134.5t-133 54.5q-81 0 -137 -55.5t-56 -133.5z" />
    <glyph glyph-name="c" unicode="c" horiz-adv-x="481" 
d="M421 106l46 -38q-67 -80 -170 -80q-106 0 -174.5 68.5t-68.5 174.5t68.5 174.5t174.5 68.5q101 0 172 -80l-48 -36q-57 62 -124 62q-83 0 -133 -54.5t-50 -134.5t50 -134.5t133 -54.5q72 0 124 64z" />
    <glyph glyph-name="d" unicode="d" horiz-adv-x="611" 
d="M484 0v81h-2q-26 -45 -77.5 -69t-107.5 -24q-106 0 -174.5 68.5t-68.5 174.5t68.5 174.5t174.5 68.5q56 0 107.5 -24t77.5 -69h2v375h60v-756h-60zM490 231q0 78 -56 133.5t-137 55.5q-83 0 -133 -54.5t-50 -134.5t50 -134.5t133 -54.5q81 0 137 55.5t56 133.5z" />
    <glyph glyph-name="e" unicode="e" horiz-adv-x="556" 
d="M444 124l44 -37q-66 -99 -200 -99q-105 0 -169.5 68t-64.5 176q0 104 65 173t166 69t159 -64.5t58 -151.5v-42h-388q0 -17 4.5 -37.5t17 -45t31 -44.5t50.5 -33.5t72 -13.5q46 0 89.5 22.5t65.5 59.5zM114 270h328q0 62 -47 106t-113 44q-45 0 -80.5 -19.5t-53 -47
t-26 -49.5t-8.5 -34z" />
    <glyph glyph-name="f" unicode="f" horiz-adv-x="296" 
d="M114 0v408h-96v54h96v151q0 81 42 118t96 37q42 0 69 -12l-12 -52q-20 10 -54 10q-81 0 -81 -123v-129h108v-54h-108v-408h-60z" />
    <glyph glyph-name="g" unicode="g" horiz-adv-x="611" 
d="M544 462v-432q0 -66 -17 -116t-42 -78.5t-60 -46.5t-65 -23.5t-62 -5.5q-70 0 -132 26t-97 71l47 44q62 -87 182 -87q186 0 186 212v64h-2q-57 -90 -175 -90q-102 0 -174.5 69.5t-72.5 167.5t72.5 167.5t174.5 69.5q118 0 175 -90h2v78h60zM486 237q0 76 -53.5 129.5
t-129.5 53.5t-129.5 -53.5t-53.5 -129.5t53.5 -129.5t129.5 -53.5t129.5 53.5t53.5 129.5z" />
    <glyph glyph-name="h" unicode="h" horiz-adv-x="556" 
d="M80 0v756h60v-375h2q19 40 61.5 66.5t96.5 26.5q176 0 176 -199v-275h-60v272q0 148 -116 148q-70 0 -115 -49t-45 -140v-231h-60z" />
    <glyph glyph-name="i" unicode="i" 
d="M90 0v462h60v-462h-60zM75 645q0 19 13 32t32 13t32 -13t13 -32t-13 -32t-32 -13t-32 13t-13 32z" />
    <glyph glyph-name="j" unicode="j" 
d="M150 462v-543q0 -78 -28.5 -118.5t-103.5 -40.5q-24 0 -48 9l9 53q21 -8 38 -8q44 0 58.5 26.5t14.5 73.5v548h60zM75 645q0 19 13 32t32 13t32 -13t13 -32t-13 -32t-32 -13t-32 13t-13 32z" />
    <glyph glyph-name="k" unicode="k" horiz-adv-x="481" 
d="M80 0v756h60v-504l228 209h88l-238 -211l266 -250h-91l-253 244v-244h-60z" />
    <glyph glyph-name="l" unicode="l" 
d="M90 0v756h60v-756h-60z" />
    <glyph glyph-name="m" unicode="m" horiz-adv-x="852" 
d="M80 0v332q0 18 -2.5 68.5t-2.5 61.5h60q2 -73 4 -81h3q19 40 61.5 66.5t96.5 26.5q48 0 85.5 -25t53.5 -75q21 49 63.5 74.5t93.5 25.5q176 0 176 -199v-275h-60v272q0 148 -116 148q-39 0 -68 -15.5t-44 -40.5t-21.5 -51t-6.5 -53v-260h-60v278q0 66 -24.5 104t-71.5 38
q-70 0 -115 -49t-45 -140v-231h-60z" />
    <glyph glyph-name="n" unicode="n" horiz-adv-x="556" 
d="M80 0v332q0 18 -2.5 68.5t-2.5 61.5h60q2 -73 4 -81h3q19 40 61.5 66.5t96.5 26.5q176 0 176 -199v-275h-60v272q0 148 -116 148q-70 0 -115 -49t-45 -140v-231h-60z" />
    <glyph glyph-name="o" unicode="o" horiz-adv-x="594" 
d="M54 231q0 106 68.5 174.5t174.5 68.5t174.5 -68.5t68.5 -174.5t-68.5 -174.5t-174.5 -68.5t-174.5 68.5t-68.5 174.5zM114 231q0 -80 50 -134.5t133 -54.5t133 54.5t50 134.5t-50 134.5t-133 54.5t-133 -54.5t-50 -134.5z" />
    <glyph glyph-name="p" unicode="p" horiz-adv-x="611" 
d="M67 -228v690h60v-81h2q26 45 77.5 69t107.5 24q106 0 174.5 -68.5t68.5 -174.5t-68.5 -174.5t-174.5 -68.5q-56 0 -107.5 24t-77.5 69h-2v-309h-60zM121 231q0 -78 56 -133.5t137 -55.5q83 0 133 54.5t50 134.5t-50 134.5t-133 54.5q-81 0 -137 -55.5t-56 -133.5z" />
    <glyph glyph-name="q" unicode="q" horiz-adv-x="611" 
d="M484 -228v309h-2q-26 -45 -77.5 -69t-107.5 -24q-106 0 -174.5 68.5t-68.5 174.5t68.5 174.5t174.5 68.5q56 0 107.5 -24t77.5 -69h2v81h60v-690h-60zM490 231q0 78 -56 133.5t-137 55.5q-83 0 -133 -54.5t-50 -134.5t50 -134.5t133 -54.5q81 0 137 55.5t56 133.5z" />
    <glyph glyph-name="r" unicode="r" horiz-adv-x="333" 
d="M80 0v332q0 18 -2.5 68.5t-2.5 61.5h60q2 -73 4 -81q52 93 147 93q15 0 35 -5l-7 -59q-12 4 -23 4q-75 0 -113 -45t-38 -117v-252h-60z" />
    <glyph glyph-name="s" unicode="s" horiz-adv-x="426" 
d="M28 82l53 36q18 -36 55 -56t79 -20t74 23.5t32 61.5q0 35 -28 53.5t-68.5 26.5t-81 18.5t-68.5 38.5t-28 77q0 63 47.5 98t110.5 35q119 0 163 -87l-54 -32q-36 65 -109 65q-36 0 -67 -20t-31 -54t28 -51.5t68.5 -25t81 -17.5t68.5 -39.5t28 -81.5q0 -68 -48.5 -105.5
t-118.5 -37.5q-133 0 -186 94z" />
    <glyph glyph-name="t" unicode="t" horiz-adv-x="333" 
d="M306 462v-54h-132v-301q0 -31 17 -48t47 -17q31 0 68 16l5 -54q-44 -16 -78 -16q-61 0 -90 33t-29 86v301h-100v54h100v133h60v-133h132z" />
    <glyph glyph-name="u" unicode="u" horiz-adv-x="556" 
d="M471 462v-332q0 -18 2.5 -68.5t2.5 -61.5h-60q-2 73 -4 81h-3q-19 -40 -61.5 -66.5t-96.5 -26.5q-176 0 -176 199v275h60v-272q0 -148 116 -148q70 0 115 49t45 140v231h60z" />
    <glyph glyph-name="v" unicode="v" horiz-adv-x="463" 
d="M204 0l-189 462h68l154 -397l150 397h61l-182 -462h-62z" />
    <glyph glyph-name="w" unicode="w" horiz-adv-x="704" 
d="M160 0l-145 462h66l112 -387h2l129 387h57l137 -387h2l109 387h60l-136 -462h-62l-138 378h-2l-129 -378h-62z" />
    <glyph glyph-name="x" unicode="x" horiz-adv-x="481" 
d="M6 0l192 250l-165 212h77l128 -175l127 175h75l-163 -212l198 -250h-78l-161 209l-158 -209h-72z" />
    <glyph glyph-name="y" unicode="y" horiz-adv-x="463" 
d="M448 462l-238 -605q-38 -97 -127 -97q-25 0 -59 9l6 56q37 -11 54 -11q29 0 46 21t31 56l42 107l-188 464h67l153 -389l149 389h64z" />
    <glyph glyph-name="z" unicode="z" horiz-adv-x="426" 
d="M27 0v36l277 372h-263v54h346v-36l-276 -372h288v-54h-372z" />
    <glyph glyph-name="braceleft" unicode="{" horiz-adv-x="333" 
d="M274 732v-48h-23q-29 0 -42 -28t-13 -70v-141q0 -47 -15.5 -85t-30 -52t-24.5 -19v-2q11 -6 25 -20t29.5 -51.5t15.5 -84.5v-142q0 -41 13 -69t42 -28h23v-48h-50q-42 0 -65 32.5t-23 88.5v146q0 153 -70 153v48q70 0 70 154v145q0 57 23 89t65 32h50z" />
    <glyph glyph-name="bar" unicode="|" horiz-adv-x="222" 
d="M87 750h48v-1000h-48v1000z" />
    <glyph glyph-name="braceright" unicode="}" horiz-adv-x="333" 
d="M59 -156v48h23q29 0 42 28t13 70v141q0 47 15.5 85t30 52t24.5 19v2q-11 6 -25 20t-29.5 51.5t-15.5 84.5v142q0 41 -13 69t-42 28h-23v48h50q42 0 65 -32.5t23 -88.5v-146q0 -153 70 -153v-48q-70 0 -70 -154v-145q0 -57 -23 -89t-65 -32h-50z" />
    <glyph glyph-name="asciitilde" unicode="~" horiz-adv-x="666" 
d="M529 364l34 -32q-43 -90 -125 -90q-32 0 -115 36q-72 32 -98 32q-27 0 -47 -17.5t-41 -50.5l-34 32q47 90 125 90q32 0 115 -36q72 -32 98 -32q27 0 47 17.5t41 50.5z" />
    <glyph glyph-name="exclamdown" unicode="&#xa1;" horiz-adv-x="370" 
d="M155 -222v522h60v-522h-60zM233 444q0 -20 -14 -34t-34 -14t-34 14t-14 34t14 34t34 14t34 -14t14 -34z" />
    <glyph glyph-name="cent" unicode="&#xa2;" horiz-adv-x="520" 
d="M256 47v370q-67 -10 -105.5 -62.5t-38.5 -121.5q0 -67 39.5 -120t104.5 -66zM304 418v-376q67 3 116 64l46 -38q-63 -77 -162 -80v-69h-48v72q-91 13 -147.5 80.5t-56.5 161.5q0 93 57 159t147 79v72h48v-71q95 -1 164 -78l-48 -36q-50 55 -116 60z" />
    <glyph glyph-name="sterling" unicode="&#xa3;" horiz-adv-x="520" 
d="M58 0v54h105v288h-95v54h95v117q0 36 11.5 70.5t35 66t66 51t97.5 19.5q79 0 143 -56l-40 -48q-50 50 -106 50q-69 0 -105 -46t-36 -100v-124h165v-54h-165v-288h245v-54h-416z" />
    <glyph glyph-name="fraction" unicode="&#x2044;" horiz-adv-x="168" 
d="M-167 -6l456 748l46 -28l-457 -748z" />
    <glyph glyph-name="yen" unicode="&#xa5;" horiz-adv-x="520" 
d="M227 0v180h-170v48h170v77l-9 16h-161v48h134l-191 339h68l192 -344l195 344h65l-191 -339h134v-48h-161l-9 -16v-77h170v-48h-170v-180h-66z" />
    <glyph glyph-name="florin" unicode="&#x192;" horiz-adv-x="520" 
d="M395 419v-48h-117l-72 -391q-24 -124 -143 -124q-50 0 -79 24l30 47q21 -17 53 -17q38 0 57.5 27t29.5 84l64 350h-108v48h117l29 154q27 147 143 147q49 0 90 -30l-32 -45q-30 21 -58 21q-66 0 -83 -90l-29 -157h108z" />
    <glyph glyph-name="section" unicode="&#xa7;" horiz-adv-x="520" 
d="M212 227l102 -52q30 16 53 41.5t23 54.5q0 59 -74 98l-75 41q-97 -32 -97 -95q0 -24 10.5 -41.5t22.5 -26t35 -20.5zM64 -24l61 30q34 -90 130 -90q49 0 85 26t36 71q0 37 -30.5 64.5t-74.5 46.5t-88 41t-74.5 59.5t-30.5 88.5q0 84 106 129q-82 50 -82 127
q0 73 55.5 115t130.5 42q54 0 98 -23t62 -71l-58 -34q-29 68 -105 68q-48 0 -82.5 -25.5t-34.5 -71.5q0 -35 29.5 -61.5t72 -45.5t85 -40.5t72 -58t29.5 -85.5q0 -83 -89 -132q75 -44 75 -123q0 -77 -55 -122t-131 -45q-66 0 -117.5 30t-74.5 90z" />
    <glyph glyph-name="currency" unicode="&#xa4;" horiz-adv-x="520" 
d="M14 142l57 55q-60 65 -60 157t60 157l-57 55l34 37l57 -56q69 53 155 53t155 -53l57 56l34 -37l-57 -55q60 -65 60 -157t-60 -157l57 -55l-34 -37l-57 56q-69 -53 -155 -53t-155 53l-57 -56zM71 354q0 -79 56 -135.5t133 -56.5t133 56.5t56 135.5q0 80 -55.5 136
t-133.5 56t-133.5 -56t-55.5 -136z" />
    <glyph glyph-name="quotesingle" unicode="'" horiz-adv-x="260" 
d="M100 480v228h60v-228h-60z" />
    <glyph glyph-name="quotedblleft" unicode="&#x201c;" horiz-adv-x="520" 
d="M241 708l-63 -228h-73l77 228h59zM415 708l-63 -228h-73l77 228h59z" />
    <glyph glyph-name="guillemotleft" unicode="&#xab;" horiz-adv-x="481" 
d="M200 34l-137 203l137 203l42 -29l-116 -174l118 -176zM366 34l-137 203l137 203l42 -29l-116 -174l118 -176z" />
    <glyph glyph-name="guilsinglleft" unicode="&#x2039;" horiz-adv-x="315" 
d="M200 34l-137 203l137 203l42 -29l-116 -174l118 -176z" />
    <glyph glyph-name="guilsinglright" unicode="&#x203a;" horiz-adv-x="315" 
d="M115 440l137 -203l-137 -203l-42 29l116 174l-118 176z" />
    <glyph glyph-name="fi" unicode="&#xfb01;" horiz-adv-x="519" 
d="M369 0v462h60v-462h-60zM354 645q0 19 13 32t32 13t32 -13t13 -32t-13 -32t-32 -13t-32 13t-13 32zM114 0v408h-96v54h96v151q0 81 42 118t96 37q42 0 69 -12l-12 -52q-20 10 -54 10q-81 0 -81 -123v-129h108v-54h-108v-408h-60z" />
    <glyph glyph-name="fl" unicode="&#xfb02;" horiz-adv-x="519" 
d="M114 0v408h-96v54h96v151q0 81 42 118t96 37q42 0 69 -12l-12 -52q-20 10 -54 10q-81 0 -81 -123v-129h108v-54h-108v-408h-60zM369 0v756h60v-756h-60z" />
    <glyph glyph-name="endash" unicode="&#x2013;" horiz-adv-x="500" 
d="M0 210v54h500v-54h-500z" />
    <glyph glyph-name="dagger" unicode="&#x2020;" horiz-adv-x="520" 
d="M230 -126v587h-192v48h192v199h60v-199h192v-48h-192v-587h-60z" />
    <glyph glyph-name="daggerdbl" unicode="&#x2021;" horiz-adv-x="520" 
d="M230 -126v199h-192v48h192v340h-192v48h192v199h60v-199h192v-48h-192v-340h192v-48h-192v-199h-60z" />
    <glyph glyph-name="periodcentered" unicode="&#xb7;" horiz-adv-x="260" 
d="M82 318q0 20 14 34t34 14t34 -14t14 -34t-14 -34t-34 -14t-34 14t-14 34z" />
    <glyph glyph-name="paragraph" unicode="&#xb6;" horiz-adv-x="600" 
d="M267 -126v449q-87 0 -147 55.5t-60 133.5q0 94 58.5 145t164.5 51h227v-834h-60v786h-123v-786h-60z" />
    <glyph glyph-name="bullet" unicode="&#x2022;" horiz-adv-x="500" 
d="M73 354q0 74 51.5 125.5t125.5 51.5t125.5 -51.5t51.5 -125.5t-51.5 -125.5t-125.5 -51.5t-125.5 51.5t-51.5 125.5z" />
    <glyph glyph-name="quotesinglbase" unicode="&#x201a;" horiz-adv-x="260" 
d="M62 -138l63 228h73l-77 -228h-59z" />
    <glyph glyph-name="quotedblbase" unicode="&#x201e;" horiz-adv-x="520" 
d="M279 -138l63 228h73l-77 -228h-59zM105 -138l63 228h73l-77 -228h-59z" />
    <glyph glyph-name="quotedblright" unicode="&#x201d;" horiz-adv-x="520" 
d="M279 480l63 228h73l-77 -228h-59zM105 480l63 228h73l-77 -228h-59z" />
    <glyph glyph-name="guillemotright" unicode="&#xbb;" horiz-adv-x="481" 
d="M115 440l137 -203l-137 -203l-42 29l116 174l-118 176zM281 440l137 -203l-137 -203l-42 29l116 174l-118 176z" />
    <glyph glyph-name="ellipsis" unicode="&#x2026;" horiz-adv-x="1000" 
d="M119 42q0 20 14 34t34 14t34 -14t14 -34t-14 -34t-34 -14t-34 14t-14 34zM452 42q0 20 14 34t34 14t34 -14t14 -34t-14 -34t-34 -14t-34 14t-14 34zM785 42q0 20 14 34t34 14t34 -14t14 -34t-14 -34t-34 -14t-34 14t-14 34z" />
    <glyph glyph-name="perthousand" unicode="&#x2030;" horiz-adv-x="981" 
d="M306 141q0 63 45 108t108 45t108 -45t45 -108t-45 -108t-108 -45t-108 45t-45 108zM354 141q0 -43 31 -74t74 -31t74 31t31 74t-31 74t-74 31t-74 -31t-31 -74zM649 141q0 63 45 108t108 45t108 -45t45 -108t-45 -108t-108 -45t-108 45t-45 108zM697 141q0 -43 30.5 -74
t74.5 -31t74.5 31t30.5 74t-30.5 74t-74.5 31t-74.5 -31t-30.5 -74zM26 567q0 63 45 108t108 45t108 -45t45 -108t-45 -108t-108 -45t-108 45t-45 108zM74 567q0 -43 31 -74t74 -31t74 31t31 74t-31 74t-74 31t-74 -31t-31 -74zM66 -6l456 748l46 -28l-457 -748z" />
    <glyph glyph-name="questiondown" unicode="&#xbf;" horiz-adv-x="463" 
d="M259 300v-84q0 -37 -16 -67t-39 -52l-46 -44t-39 -52t-16 -66q0 -54 31.5 -87.5t85.5 -33.5q51 0 85.5 31.5t45.5 84.5l65 -8q-13 -75 -66.5 -118.5t-128.5 -43.5q-81 0 -132.5 46t-51.5 126q0 46 16.5 81.5t40.5 58.5t48 44t40.5 51.5t16.5 68.5v64h60zM276 444
q0 -20 -14 -34t-34 -14t-34 14t-14 34t14 34t34 14t34 -14t14 -34z" />
    <glyph glyph-name="grave" unicode="`" 
d="M74 708l104 -144h-50l-134 144h80z" />
    <glyph glyph-name="acute" unicode="&#xb4;" 
d="M62 564l104 144h80l-134 -144h-50z" />
    <glyph glyph-name="circumflex" unicode="&#x2c6;" 
d="M-23 564l108 144h70l108 -144h-65l-81 108l-81 -108h-59z" />
    <glyph glyph-name="tilde" unicode="&#x2dc;" 
d="M0 581h-36q5 40 27 68q25 34 63 34q27 0 75 -25q46 -23 63 -23q38 0 48 48h36q-5 -42 -26 -72t-58 -30q-23 0 -75 24t-66 24q-39 0 -51 -48z" />
    <glyph glyph-name="macron" unicode="&#xaf;" 
d="M252 654v-48h-264v48h264z" />
    <glyph glyph-name="breve" unicode="&#x2d8;" 
d="M-24 708h42q6 -39 32.5 -58.5t67.5 -19.5q46 0 70 17.5t34 60.5h42q-7 -59 -46 -92.5t-100 -33.5t-100 33.5t-42 92.5z" />
    <glyph glyph-name="dotaccent" unicode="&#x2d9;" 
d="M75 652q0 20 14 34t34 14t34 -14t14 -34t-14 -34t-34 -14t-34 14t-14 34z" />
    <glyph glyph-name="dieresis" unicode="&#xa8;" 
d="M-23 652q0 20 14 34t34 14t34 -14t14 -34t-14 -34t-34 -14t-34 14t-14 34zM167 652q0 20 14 34t34 14t34 -14t14 -34t-14 -34t-34 -14t-34 14t-14 34z" />
    <glyph glyph-name="ring" unicode="&#x2da;" 
d="M27 649q0 39 27.5 67t66.5 28q38 0 65 -29t27 -67q0 -37 -27 -65.5t-65 -28.5q-39 0 -66.5 28t-27.5 67zM177 649q0 25 -16 42t-41 17q-24 0 -40.5 -17.5t-16.5 -42.5t16.5 -41.5t40.5 -16.5q25 0 41 17t16 42z" />
    <glyph glyph-name="cedilla" unicode="&#xb8;" 
d="M171 0l-47 -64l2 -2q13 7 31 7q35 0 59 -19t24 -53q0 -42 -34 -63.5t-78 -21.5q-50 0 -95 21l14 32q33 -17 76 -17q23 0 43 11t20 32t-17 31.5t-39 10.5q-23 0 -44 -8l-16 15l63 88h38z" />
    <glyph glyph-name="hungarumlaut" unicode="&#x2dd;" 
d="M-11 564l104 144h80l-134 -144h-50zM135 564l104 144h80l-134 -144h-50z" />
    <glyph glyph-name="ogonek" unicode="&#x2db;" 
d="M168 -145l19 -38q-36 -33 -85 -33q-41 0 -66.5 22t-25.5 60q0 63 88 134h45q-27 -19 -50 -53t-23 -68q0 -47 43 -47q36 0 55 23z" />
    <glyph glyph-name="caron" unicode="&#x2c7;" 
d="M259 708l-106 -144h-70l-109 144h62l83 -114l86 114h54z" />
    <glyph glyph-name="emdash" unicode="&#x2014;" horiz-adv-x="1000" 
d="M0 210v54h1000v-54h-1000z" />
    <glyph glyph-name="AE" unicode="&#xc6;" horiz-adv-x="926" 
d="M-5 0l461 708h403v-60h-293v-252h276v-60h-276v-276h301v-60h-367v188h-312l-123 -188h-70zM500 248v400h-12l-261 -400h273z" />
    <glyph glyph-name="ordfeminine" unicode="&#xaa;" horiz-adv-x="337" 
d="M186 602h64v9q-2 34 -19.5 50.5t-63.5 16.5q-51 0 -94 -35l-26 38q48 39 131 39q61 0 90.5 -25t29.5 -84v-80q0 -69 5 -101h-49q-2 6 -4 46h-2q-32 -52 -104 -52q-47 0 -78.5 20t-31.5 61q0 97 152 97zM250 560h-38q-130 0 -130 -53q0 -17 22 -29t50 -12q48 0 72 27.5
t24 59.5v7z" />
    <glyph glyph-name="Lslash" unicode="&#x141;" horiz-adv-x="500" 
d="M97 0v231l-72 -64v65l72 63v413h66v-358l216 189v-62l-216 -189v-228h330v-60h-396z" />
    <glyph glyph-name="Oslash" unicode="&#xd8;" horiz-adv-x="834" 
d="M68 15l76 82q-93 102 -93 257q0 163 102.5 267.5t263.5 104.5q137 0 235 -79l74 81l34 -31l-75 -81q98 -103 98 -262q0 -163 -102.5 -267.5t-263.5 -104.5q-142 0 -239 83l-75 -81zM188 144l421 457q-79 65 -192 65q-136 0 -218 -88.5t-82 -223.5q0 -127 71 -210z
M642 569l-422 -458q78 -69 197 -69q136 0 218 88.5t82 223.5q0 131 -75 215z" />
    <glyph glyph-name="OE" unicode="&#x152;" horiz-adv-x="944" 
d="M581 336v-276h304v-60h-472q-147 0 -250.5 99t-103.5 255q0 112 56 194.5t142 121t188 38.5h432v-60h-296v-252h279v-60h-279zM515 60v588h-78q-43 0 -86 -10.5t-84 -34t-72.5 -57t-50.5 -83t-19 -109.5q0 -63 21 -114.5t53.5 -84t74 -55t81 -31.5t76.5 -9h84z" />
    <glyph glyph-name="ordmasculine" unicode="&#xba;" horiz-adv-x="386" 
d="M34 572q0 66 43.5 107t114.5 41q70 0 115 -40.5t45 -107.5q0 -65 -45.5 -106.5t-114.5 -41.5q-71 0 -114.5 41t-43.5 107zM82 572q0 -43 31 -74.5t79 -31.5t80 31t32 75q0 46 -31 76t-81 30q-47 0 -78.5 -31.5t-31.5 -74.5z" />
    <glyph glyph-name="ae" unicode="&#xe6;" horiz-adv-x="852" 
d="M392 270v9q0 141 -142 141q-80 0 -141 -52l-35 41q32 30 80.5 47.5t95.5 17.5q67 0 111 -22t69 -74q25 45 72 70.5t97 25.5q91 0 150 -55.5t59 -167.5v-35h-356q-3 -74 39.5 -124t120.5 -50q86 0 133 74l47 -34q-39 -51 -82.5 -72.5t-107.5 -21.5q-135 0 -182 114
q-54 -114 -203 -114q-67 0 -115 34.5t-48 102.5q0 26 9 48.5t31 45.5t69 37t114 14h115zM392 216h-117q-50 0 -84.5 -9.5t-49.5 -24.5t-21 -28t-6 -26q0 -40 32 -63t73 -23q88 0 130.5 48.5t42.5 125.5zM452 270h296q-1 67 -37.5 108.5t-109.5 41.5q-67 0 -108 -43.5
t-41 -106.5z" />
    <glyph glyph-name="dotlessi" unicode="&#x131;" 
d="M90 0v462h60v-462h-60z" />
    <glyph glyph-name="lslash" unicode="&#x142;" 
d="M90 0v324l-84 -85v67l84 85v365h60v-305l84 86v-67l-84 -85v-385h-60z" />
    <glyph glyph-name="oslash" unicode="&#xf8;" horiz-adv-x="594" 
d="M39 2l70 71q-55 64 -55 158q0 106 68.5 174.5t174.5 68.5q91 0 157 -53l69 70l32 -29l-71 -71q56 -64 56 -160q0 -106 -68.5 -174.5t-174.5 -68.5q-94 0 -158 54l-68 -69zM150 115l263 265q-48 40 -116 40q-83 0 -133 -54.5t-50 -134.5q0 -69 36 -116zM443 349l-263 -266
q46 -41 117 -41q83 0 133 54.5t50 134.5q0 72 -37 118z" />
    <glyph glyph-name="oe" unicode="&#x153;" horiz-adv-x="907" 
d="M507 270h296q-1 67 -37.5 108.5t-109.5 41.5q-67 0 -108 -43.5t-41 -106.5zM863 216h-356q-3 -74 39.5 -124t120.5 -50q86 0 133 74l47 -34q-39 -51 -82.5 -72.5t-107.5 -21.5q-135 0 -182 114h-2q-28 -55 -80 -84.5t-119 -29.5q-99 0 -164.5 69t-65.5 174t65.5 174
t164.5 69q138 0 199 -115q20 48 65.5 81.5t115.5 33.5q91 0 150 -55.5t59 -167.5v-35zM104 231q0 -77 47.5 -133t124.5 -56t124 54.5t47 134.5t-47 134.5t-124 54.5t-124.5 -56t-47.5 -133z" />
    <glyph glyph-name="germandbls" unicode="&#xdf;" horiz-adv-x="593" 
d="M266 404v54h15q60 0 97.5 35t37.5 94q0 61 -36 94t-94 33q-77 0 -111.5 -52.5t-34.5 -136.5v-525h-60v534q0 105 55.5 169.5t155.5 64.5q81 0 133 -47.5t52 -131.5q0 -58 -27 -99t-72 -55v-2q159 -30 159 -212q0 -106 -68.5 -166.5t-178.5 -60.5q-27 0 -47 5v58
q22 -9 53 -9q81 0 131 47t50 125q0 89 -54.5 136.5t-134.5 47.5h-21z" />
    <glyph glyph-name="CR" horiz-adv-x="0" 
 />
    <glyph glyph-name="uni00A0" unicode="&#xa0;" horiz-adv-x="260" 
 />
    <glyph glyph-name="Agrave" unicode="&#xc0;" horiz-adv-x="685" 
d="M5 0l309 708h68l298 -708h-74l-77 188h-375l-80 -188h-69zM505 248l-160 388l-165 -388h325zM297 896l104 -144h-50l-134 144h80z" />
    <glyph glyph-name="Aacute" unicode="&#xc1;" horiz-adv-x="685" 
d="M5 0l309 708h68l298 -708h-74l-77 188h-375l-80 -188h-69zM505 248l-160 388l-165 -388h325zM285 752l104 144h80l-134 -144h-50z" />
    <glyph glyph-name="Acircumflex" unicode="&#xc2;" horiz-adv-x="685" 
d="M5 0l309 708h68l298 -708h-74l-77 188h-375l-80 -188h-69zM505 248l-160 388l-165 -388h325zM200 752l108 144h70l108 -144h-65l-81 108l-81 -108h-59z" />
    <glyph glyph-name="Atilde" unicode="&#xc3;" horiz-adv-x="685" 
d="M5 0l309 708h68l298 -708h-74l-77 188h-375l-80 -188h-69zM505 248l-160 388l-165 -388h325zM223 769h-36q5 40 27 68q26 34 63 34q27 0 75 -25q48 -23 63 -23q38 0 48 48h36q-4 -41 -26 -71.5t-58 -30.5q-23 0 -75 24t-66 24q-37 0 -51 -48z" />
    <glyph glyph-name="Adieresis" unicode="&#xc4;" horiz-adv-x="685" 
d="M5 0l309 708h68l298 -708h-74l-77 188h-375l-80 -188h-69zM505 248l-160 388l-165 -388h325zM200 840q0 20 14 34t34 14t34 -14t14 -34t-14 -34t-34 -14t-34 14t-14 34zM390 840q0 20 14 34t34 14t34 -14t14 -34t-14 -34t-34 -14t-34 14t-14 34z" />
    <glyph glyph-name="Amacron" unicode="&#x100;" horiz-adv-x="685" 
d="M5 0l309 708h68l298 -708h-74l-77 188h-375l-80 -188h-69zM505 248l-160 388l-165 -388h325zM477 847v-48h-264v48h264z" />
    <glyph glyph-name="Abreve" unicode="&#x102;" horiz-adv-x="685" 
d="M5 0l309 708h68l298 -708h-74l-77 188h-375l-80 -188h-69zM505 248l-160 388l-165 -388h325zM220 881h42q6 -39 32.5 -58.5t67.5 -19.5q46 0 70.5 17t33.5 61h42q-7 -59 -46 -92.5t-100 -33.5t-100 33.5t-42 92.5z" />
    <glyph glyph-name="Aring" unicode="&#xc5;" horiz-adv-x="685" 
d="M5 0l309 708h68l298 -708h-74l-77 188h-375l-80 -188h-69zM505 248l-160 388l-165 -388h325zM250 837q0 39 27.5 67t66.5 28q38 0 65 -29t27 -67q0 -37 -27 -65.5t-65 -28.5q-39 0 -66.5 28t-27.5 67zM400 837q0 25 -16 42t-41 17q-24 0 -40.5 -17.5t-16.5 -42.5
t16.5 -41.5t40.5 -16.5q25 0 41 17t16 42z" />
    <glyph glyph-name="Aogonek" unicode="&#x104;" horiz-adv-x="685" 
d="M676 -145l19 -38q-36 -33 -85 -33q-41 0 -66.5 22t-25.5 60q0 63 88 134l-77 188h-375l-80 -188h-69l309 708h68l298 -708h-29q-26 -19 -49.5 -53.5t-23.5 -67.5q0 -47 43 -47q36 0 55 23zM505 248l-160 388l-165 -388h325z" />
    <glyph glyph-name="Cacute" unicode="&#x106;" horiz-adv-x="704" 
d="M626 152l54 -41q-94 -129 -263 -129q-161 0 -263.5 104.5t-102.5 267.5t102.5 267.5t263.5 104.5q157 0 244 -111l-54 -45q-32 47 -83 71.5t-107 24.5q-136 0 -218 -88.5t-82 -223.5t82 -223.5t218 -88.5q58 0 116 28t93 82zM341 752l104 144h80l-134 -144h-50z" />
    <glyph glyph-name="Ccircumflex" unicode="&#x108;" horiz-adv-x="704" 
d="M626 152l54 -41q-94 -129 -263 -129q-161 0 -263.5 104.5t-102.5 267.5t102.5 267.5t263.5 104.5q157 0 244 -111l-54 -45q-32 47 -83 71.5t-107 24.5q-136 0 -218 -88.5t-82 -223.5t82 -223.5t218 -88.5q58 0 116 28t93 82zM274 752l108 144h70l108 -144h-65l-81 108
l-81 -108h-59z" />
    <glyph glyph-name="Ccaron" unicode="&#x10c;" horiz-adv-x="704" 
d="M626 152l54 -41q-94 -129 -263 -129q-161 0 -263.5 104.5t-102.5 267.5t102.5 267.5t263.5 104.5q157 0 244 -111l-54 -45q-32 47 -83 71.5t-107 24.5q-136 0 -218 -88.5t-82 -223.5t82 -223.5t218 -88.5q58 0 116 28t93 82zM556 896l-106 -144h-70l-109 144h62l83 -114
l86 114h54z" />
    <glyph glyph-name="Cdotaccent" unicode="&#x10a;" horiz-adv-x="704" 
d="M626 152l54 -41q-94 -129 -263 -129q-161 0 -263.5 104.5t-102.5 267.5t102.5 267.5t263.5 104.5q157 0 244 -111l-54 -45q-32 47 -83 71.5t-107 24.5q-136 0 -218 -88.5t-82 -223.5t82 -223.5t218 -88.5q58 0 116 28t93 82zM372 840q0 20 14 34t34 14t34 -14t14 -34
t-14 -34t-34 -14t-34 14t-14 34z" />
    <glyph glyph-name="Ccedilla" unicode="&#xc7;" horiz-adv-x="704" 
d="M626 152l54 -41q-94 -129 -263 -129q-18 0 -27 1l-34 -47l2 -2q13 7 31 7q35 0 59 -19t24 -53q0 -42 -34 -63.5t-78 -21.5q-50 0 -95 21l14 32q33 -17 76 -17q23 0 43 11t20 32t-17 31.5t-39 10.5q-23 0 -44 -8l-16 15l54 75q-137 19 -221 120t-84 247q0 163 102.5 267.5
t263.5 104.5q157 0 244 -111l-54 -45q-32 47 -83 71.5t-107 24.5q-136 0 -218 -88.5t-82 -223.5t82 -223.5t218 -88.5q58 0 116 28t93 82z" />
    <glyph glyph-name="Dcaron" unicode="&#x10e;" horiz-adv-x="741" 
d="M88 0v708h219q75 0 136.5 -17.5t100.5 -43.5t68 -62.5t43.5 -69t23 -69t10 -56t1.5 -36.5t-1.5 -36.5t-10 -56t-23 -69t-43.5 -69t-68 -62.5t-100.5 -43.5t-136.5 -17.5h-219zM154 648v-588h136q149 0 241.5 74t92.5 220t-92.5 220t-241.5 74h-136zM466 896l-106 -144
h-70l-109 144h62l83 -114l86 114h54z" />
    <glyph glyph-name="Dcroat" unicode="&#x110;" horiz-adv-x="741" 
d="M154 648v-252h258v-54h-258v-282h136q72 0 131.5 17.5t105.5 53t71.5 92.5t25.5 131t-25.5 131t-71.5 92.5t-105.5 53t-131.5 17.5h-136zM88 0v342h-78v54h78v312h219q75 0 136.5 -17.5t100.5 -43.5t68 -62.5t43.5 -69t23 -69t10 -56t1.5 -36.5t-1.5 -36.5t-10 -56
t-23 -69t-43.5 -69t-68 -62.5t-100.5 -43.5t-136.5 -17.5h-219z" />
    <glyph glyph-name="Eth" unicode="&#xd0;" horiz-adv-x="741" 
d="M154 648v-252h258v-54h-258v-282h136q149 0 241.5 74t92.5 220t-92.5 220t-241.5 74h-136zM88 0v342h-78v54h78v312h219q75 0 136.5 -17.5t100.5 -43.5t68 -62.5t43.5 -69t23 -69t10 -56t1.5 -36.5t-1.5 -36.5t-10 -56t-23 -69t-43.5 -69t-68 -62.5t-100.5 -43.5
t-136.5 -17.5h-219z" />
    <glyph glyph-name="Egrave" unicode="&#xc8;" horiz-adv-x="593" 
d="M97 0v708h433v-60h-367v-252h344v-60h-344v-276h383v-60h-449zM251 896l104 -144h-50l-134 144h80z" />
    <glyph glyph-name="Eacute" unicode="&#xc9;" horiz-adv-x="593" 
d="M97 0v708h433v-60h-367v-252h344v-60h-344v-276h383v-60h-449zM239 752l104 144h80l-134 -144h-50z" />
    <glyph glyph-name="Ecircumflex" unicode="&#xca;" horiz-adv-x="593" 
d="M97 0v708h433v-60h-367v-252h344v-60h-344v-276h383v-60h-449zM154 752l108 144h70l108 -144h-65l-81 108l-81 -108h-59z" />
    <glyph glyph-name="Ecaron" unicode="&#x11a;" horiz-adv-x="593" 
d="M97 0v708h433v-60h-367v-252h344v-60h-344v-276h383v-60h-449zM460 896l-106 -144h-70l-109 144h62l83 -114l86 114h54z" />
    <glyph glyph-name="Edieresis" unicode="&#xcb;" horiz-adv-x="593" 
d="M97 0v708h433v-60h-367v-252h344v-60h-344v-276h383v-60h-449zM154 840q0 20 14 34t34 14t34 -14t14 -34t-14 -34t-34 -14t-34 14t-14 34zM344 840q0 20 14 34t34 14t34 -14t14 -34t-14 -34t-34 -14t-34 14t-14 34z" />
    <glyph glyph-name="Emacron" unicode="&#x112;" horiz-adv-x="593" 
d="M97 0v708h433v-60h-367v-252h344v-60h-344v-276h383v-60h-449zM453 847v-48h-264v48h264z" />
    <glyph glyph-name="Ebreve" unicode="&#x114;" horiz-adv-x="593" 
d="M97 0v708h433v-60h-367v-252h344v-60h-344v-276h383v-60h-449zM177 881h42q6 -39 32.5 -58.5t67.5 -19.5q46 0 70.5 17t33.5 61h42q-7 -59 -46 -92.5t-100 -33.5t-100 33.5t-42 92.5z" />
    <glyph glyph-name="Edotaccent" unicode="&#x116;" horiz-adv-x="593" 
d="M97 0v708h433v-60h-367v-252h344v-60h-344v-276h383v-60h-449zM276 840q0 20 14 34t34 14t34 -14t14 -34t-14 -34t-34 -14t-34 14t-14 34z" />
    <glyph glyph-name="Eogonek" unicode="&#x118;" horiz-adv-x="593" 
d="M97 0v708h433v-60h-367v-252h344v-60h-344v-276h383v-60h-52q-26 -19 -49.5 -53.5t-23.5 -67.5q0 -47 43 -47q36 0 55 23l19 -38q-36 -33 -85 -33q-41 0 -66.5 22t-25.5 60q0 63 88 134h-352z" />
    <glyph glyph-name="Gcircumflex" unicode="&#x11c;" horiz-adv-x="778" 
d="M681 382v-336q-112 -64 -264 -64q-161 0 -263.5 104.5t-102.5 267.5t102.5 267.5t263.5 104.5q158 0 255 -98l-48 -50q-32 39 -90.5 63.5t-116.5 24.5q-136 0 -218 -88.5t-82 -223.5t82 -223.5t218 -88.5q127 0 198 42v238h-170v60h236zM272 752l108 144h70l108 -144h-65
l-81 108l-81 -108h-59z" />
    <glyph glyph-name="Gbreve" unicode="&#x11e;" horiz-adv-x="778" 
d="M681 382v-336q-112 -64 -264 -64q-161 0 -263.5 104.5t-102.5 267.5t102.5 267.5t263.5 104.5q158 0 255 -98l-48 -50q-32 39 -90.5 63.5t-116.5 24.5q-136 0 -218 -88.5t-82 -223.5t82 -223.5t218 -88.5q127 0 198 42v238h-170v60h236zM271 881h42q6 -39 32.5 -58.5
t67.5 -19.5q46 0 70.5 17t33.5 61h42q-7 -59 -46 -92.5t-100 -33.5t-100 33.5t-42 92.5z" />
    <glyph glyph-name="Gdotaccent" unicode="&#x120;" horiz-adv-x="778" 
d="M681 382v-336q-112 -64 -264 -64q-161 0 -263.5 104.5t-102.5 267.5t102.5 267.5t263.5 104.5q158 0 255 -98l-48 -50q-32 39 -90.5 63.5t-116.5 24.5q-136 0 -218 -88.5t-82 -223.5t82 -223.5t218 -88.5q127 0 198 42v238h-170v60h236zM370 840q0 20 14 34t34 14t34 -14
t14 -34t-14 -34t-34 -14t-34 14t-14 34z" />
    <glyph glyph-name="Gcommaaccent" unicode="&#x122;" horiz-adv-x="778" 
d="M681 382v-336q-112 -64 -264 -64q-161 0 -263.5 104.5t-102.5 267.5t102.5 267.5t263.5 104.5q158 0 255 -98l-48 -50q-32 39 -90.5 63.5t-116.5 24.5q-136 0 -218 -88.5t-82 -223.5t82 -223.5t218 -88.5q127 0 198 42v238h-170v60h236zM337 -231l50 165h65l-62 -165h-53
z" />
    <glyph glyph-name="Hcircumflex" unicode="&#x124;" horiz-adv-x="722" 
d="M97 0v708h66v-312h396v312h66v-708h-66v336h-396v-336h-66zM217 752l108 144h70l108 -144h-65l-81 108l-81 -108h-59z" />
    <glyph glyph-name="Hbar" unicode="&#x126;" horiz-adv-x="722" 
d="M97 0v708h66v-111h396v111h66v-708h-66v336h-396v-336h-66zM163 396h396v153h-396v-153z" />
    <glyph glyph-name="Igrave" unicode="&#xcc;" horiz-adv-x="260" 
d="M97 0v708h66v-708h-66zM84 896l104 -144h-50l-134 144h80z" />
    <glyph glyph-name="Iacute" unicode="&#xcd;" horiz-adv-x="260" 
d="M97 0v708h66v-708h-66zM72 752l104 144h80l-134 -144h-50z" />
    <glyph glyph-name="Icircumflex" unicode="&#xce;" horiz-adv-x="260" 
d="M97 0v708h66v-708h-66zM-13 752l108 144h70l108 -144h-65l-81 108l-81 -108h-59z" />
    <glyph glyph-name="Itilde" unicode="&#x128;" horiz-adv-x="260" 
d="M97 0v708h66v-708h-66zM11 769h-36q5 40 27 68q26 34 63 34q27 0 75 -25q48 -23 63 -23q38 0 48 48h36q-4 -41 -26 -71.5t-58 -30.5q-23 0 -75 24t-66 24q-37 0 -51 -48z" />
    <glyph glyph-name="Idieresis" unicode="&#xcf;" horiz-adv-x="260" 
d="M97 0v708h66v-708h-66zM-13 840q0 20 14 34t34 14t34 -14t14 -34t-14 -34t-34 -14t-34 14t-14 34zM177 840q0 20 14 34t34 14t34 -14t14 -34t-14 -34t-34 -14t-34 14t-14 34z" />
    <glyph glyph-name="Imacron" unicode="&#x12a;" horiz-adv-x="260" 
d="M97 0v708h66v-708h-66zM261 847v-48h-264v48h264z" />
    <glyph glyph-name="Idotaccent" unicode="&#x130;" horiz-adv-x="260" 
d="M97 0v708h66v-708h-66zM86 840q0 20 14 34t34 14t34 -14t14 -34t-14 -34t-34 -14t-34 14t-14 34z" />
    <glyph glyph-name="Iogonek" unicode="&#x12e;" horiz-adv-x="260" 
d="M97 0v708h66v-708h-13q-26 -19 -49.5 -53.5t-23.5 -67.5q0 -47 43 -47q36 0 55 23l19 -38q-36 -33 -85 -33q-41 0 -66.5 22t-25.5 60q0 63 88 134h-8z" />
    <glyph glyph-name="Jcircumflex" unicode="&#x134;" horiz-adv-x="482" 
d="M385 708v-500q0 -32 -2.5 -57t-13.5 -59t-30.5 -56t-57.5 -38t-90 -16q-75 0 -121.5 38.5t-62.5 106.5l66 12q24 -97 118 -97q128 0 128 150v516h66zM207 752l108 144h70l108 -144h-65l-81 108l-81 -108h-59z" />
    <glyph glyph-name="Kcommaaccent" unicode="&#x136;" horiz-adv-x="611" 
d="M97 0v708h66v-312h6l343 312h91l-358 -324l378 -384h-95l-359 366h-6v-366h-66zM261 -231l50 165h65l-62 -165h-53z" />
    <glyph glyph-name="Lacute" unicode="&#x139;" horiz-adv-x="500" 
d="M97 0v708h66v-648h330v-60h-396zM72 752l104 144h80l-134 -144h-50z" />
    <glyph glyph-name="Lcaron" unicode="&#x13d;" horiz-adv-x="500" 
d="M97 0v708h66v-648h330v-60h-396zM232 523l51 185h65l-63 -185h-53z" />
    <glyph glyph-name="Lcommaaccent" unicode="&#x13b;" horiz-adv-x="500" 
d="M97 0v708h66v-648h330v-60h-396zM220 -231l50 165h65l-62 -165h-53z" />
    <glyph glyph-name="Ldot" unicode="&#x13f;" horiz-adv-x="500" 
d="M97 0v708h66v-648h330v-60h-396zM338 344q0 20 14 34t34 14t34 -14t14 -34t-14 -34t-34 -14t-34 14t-14 34z" />
    <glyph glyph-name="Nacute" unicode="&#x143;" horiz-adv-x="778" 
d="M97 0v708h85l431 -620h2v620h66v-708h-85l-431 620h-2v-620h-66zM342 752l104 144h80l-134 -144h-50z" />
    <glyph glyph-name="Ncaron" unicode="&#x147;" horiz-adv-x="778" 
d="M97 0v708h85l431 -620h2v620h66v-708h-85l-431 620h-2v-620h-66zM531 896l-106 -144h-70l-109 144h62l83 -114l86 114h54z" />
    <glyph glyph-name="Ntilde" unicode="&#xd1;" horiz-adv-x="778" 
d="M97 0v708h85l431 -620h2v620h66v-708h-85l-431 620h-2v-620h-66zM269 769h-36q5 40 27 68q26 34 63 34q27 0 75 -25q48 -23 63 -23q38 0 48 48h36q-4 -41 -26 -71.5t-58 -30.5q-23 0 -75 24t-66 24q-37 0 -51 -48z" />
    <glyph glyph-name="Ncommaaccent" unicode="&#x145;" horiz-adv-x="778" 
d="M97 0v708h85l431 -620h2v620h66v-708h-85l-431 620h-2v-620h-66zM313 -231l50 165h65l-62 -165h-53z" />
    <glyph glyph-name="Ograve" unicode="&#xd2;" horiz-adv-x="834" 
d="M51 354q0 163 102.5 267.5t263.5 104.5t263.5 -104.5t102.5 -267.5t-102.5 -267.5t-263.5 -104.5t-263.5 104.5t-102.5 267.5zM117 354q0 -135 82 -223.5t218 -88.5t218 88.5t82 223.5t-82 223.5t-218 88.5t-218 -88.5t-82 -223.5zM371 896l104 -144h-50l-134 144h80z
" />
    <glyph glyph-name="Oacute" unicode="&#xd3;" horiz-adv-x="834" 
d="M51 354q0 163 102.5 267.5t263.5 104.5t263.5 -104.5t102.5 -267.5t-102.5 -267.5t-263.5 -104.5t-263.5 104.5t-102.5 267.5zM117 354q0 -135 82 -223.5t218 -88.5t218 88.5t82 223.5t-82 223.5t-218 88.5t-218 -88.5t-82 -223.5zM359 752l104 144h80l-134 -144h-50z
" />
    <glyph glyph-name="Ocircumflex" unicode="&#xd4;" horiz-adv-x="834" 
d="M51 354q0 163 102.5 267.5t263.5 104.5t263.5 -104.5t102.5 -267.5t-102.5 -267.5t-263.5 -104.5t-263.5 104.5t-102.5 267.5zM117 354q0 -135 82 -223.5t218 -88.5t218 88.5t82 223.5t-82 223.5t-218 88.5t-218 -88.5t-82 -223.5zM274 752l108 144h70l108 -144h-65
l-81 108l-81 -108h-59z" />
    <glyph glyph-name="Otilde" unicode="&#xd5;" horiz-adv-x="834" 
d="M51 354q0 163 102.5 267.5t263.5 104.5t263.5 -104.5t102.5 -267.5t-102.5 -267.5t-263.5 -104.5t-263.5 104.5t-102.5 267.5zM117 354q0 -135 82 -223.5t218 -88.5t218 88.5t82 223.5t-82 223.5t-218 88.5t-218 -88.5t-82 -223.5zM297 769h-36q5 40 27 68q26 34 63 34
q27 0 75 -25q48 -23 63 -23q38 0 48 48h36q-4 -41 -26 -71.5t-58 -30.5q-23 0 -75 24t-66 24q-37 0 -51 -48z" />
    <glyph glyph-name="Odieresis" unicode="&#xd6;" horiz-adv-x="834" 
d="M51 354q0 163 102.5 267.5t263.5 104.5t263.5 -104.5t102.5 -267.5t-102.5 -267.5t-263.5 -104.5t-263.5 104.5t-102.5 267.5zM117 354q0 -135 82 -223.5t218 -88.5t218 88.5t82 223.5t-82 223.5t-218 88.5t-218 -88.5t-82 -223.5zM274 840q0 20 14 34t34 14t34 -14
t14 -34t-14 -34t-34 -14t-34 14t-14 34zM464 840q0 20 14 34t34 14t34 -14t14 -34t-14 -34t-34 -14t-34 14t-14 34z" />
    <glyph glyph-name="Omacron" unicode="&#x14c;" horiz-adv-x="834" 
d="M51 354q0 163 102.5 267.5t263.5 104.5t263.5 -104.5t102.5 -267.5t-102.5 -267.5t-263.5 -104.5t-263.5 104.5t-102.5 267.5zM117 354q0 -135 82 -223.5t218 -88.5t218 88.5t82 223.5t-82 223.5t-218 88.5t-218 -88.5t-82 -223.5zM550 847v-48h-264v48h264z" />
    <glyph glyph-name="Obreve" unicode="&#x14e;" horiz-adv-x="834" 
d="M51 354q0 163 102.5 267.5t263.5 104.5t263.5 -104.5t102.5 -267.5t-102.5 -267.5t-263.5 -104.5t-263.5 104.5t-102.5 267.5zM117 354q0 -135 82 -223.5t218 -88.5t218 88.5t82 223.5t-82 223.5t-218 88.5t-218 -88.5t-82 -223.5zM274 881h42q6 -39 32.5 -58.5
t67.5 -19.5q46 0 70.5 17t33.5 61h42q-7 -59 -46 -92.5t-100 -33.5t-100 33.5t-42 92.5z" />
    <glyph glyph-name="Ohungarumlaut" unicode="&#x150;" horiz-adv-x="834" 
d="M51 354q0 163 102.5 267.5t263.5 104.5t263.5 -104.5t102.5 -267.5t-102.5 -267.5t-263.5 -104.5t-263.5 104.5t-102.5 267.5zM117 354q0 -135 82 -223.5t218 -88.5t218 88.5t82 223.5t-82 223.5t-218 88.5t-218 -88.5t-82 -223.5zM308 752l104 144h80l-134 -144h-50z
M454 752l104 144h80l-134 -144h-50z" />
    <glyph glyph-name="Racute" unicode="&#x154;" horiz-adv-x="593" 
d="M163 648v-252h140q49 0 84 12.5t51.5 33t23.5 40t7 40.5t-7 40.5t-23.5 40t-51.5 33t-84 12.5h-140zM97 0v708h186q252 0 252 -186q0 -159 -181 -182l206 -340h-75l-199 336h-123v-336h-66zM228 752l104 144h80l-134 -144h-50z" />
    <glyph glyph-name="Rcaron" unicode="&#x158;" horiz-adv-x="593" 
d="M163 648v-252h140q49 0 84 12.5t51.5 33t23.5 40t7 40.5t-7 40.5t-23.5 40t-51.5 33t-84 12.5h-140zM97 0v708h186q252 0 252 -186q0 -159 -181 -182l206 -340h-75l-199 336h-123v-336h-66zM435 896l-106 -144h-70l-109 144h62l83 -114l86 114h54z" />
    <glyph glyph-name="Rcommaaccent" unicode="&#x156;" horiz-adv-x="593" 
d="M163 648v-252h140q49 0 84 12.5t51.5 33t23.5 40t7 40.5t-7 40.5t-23.5 40t-51.5 33t-84 12.5h-140zM97 0v708h186q252 0 252 -186q0 -159 -181 -182l206 -340h-75l-199 336h-123v-336h-66zM219 -231l50 165h65l-62 -165h-53z" />
    <glyph glyph-name="Sacute" unicode="&#x15a;" horiz-adv-x="556" 
d="M53 89l63 42q53 -89 162 -89q68 0 113.5 38t45.5 101q0 46 -27 76t-67.5 43t-88 30t-88 35.5t-67.5 61t-27 105.5q0 90 66 142t161 52q125 0 193 -89l-57 -41q-50 70 -138 70q-68 0 -113.5 -35t-45.5 -99q0 -43 20 -72t52.5 -44.5t71 -27t77.5 -25t71.5 -33.5t52.5 -57.5
t20 -91.5q0 -92 -64.5 -145.5t-155.5 -53.5q-154 0 -230 107zM238 752l104 144h80l-134 -144h-50z" />
    <glyph glyph-name="Scircumflex" unicode="&#x15c;" horiz-adv-x="556" 
d="M53 89l63 42q53 -89 162 -89q68 0 113.5 38t45.5 101q0 46 -27 76t-67.5 43t-88 30t-88 35.5t-67.5 61t-27 105.5q0 90 66 142t161 52q125 0 193 -89l-57 -41q-50 70 -138 70q-68 0 -113.5 -35t-45.5 -99q0 -43 20 -72t52.5 -44.5t71 -27t77.5 -25t71.5 -33.5t52.5 -57.5
t20 -91.5q0 -92 -64.5 -145.5t-155.5 -53.5q-154 0 -230 107zM155 752l108 144h70l108 -144h-65l-81 108l-81 -108h-59z" />
    <glyph glyph-name="Scaron" unicode="&#x160;" horiz-adv-x="556" 
d="M53 89l63 42q53 -89 162 -89q68 0 113.5 38t45.5 101q0 46 -27 76t-67.5 43t-88 30t-88 35.5t-67.5 61t-27 105.5q0 90 66 142t161 52q125 0 193 -89l-57 -41q-50 70 -138 70q-68 0 -113.5 -35t-45.5 -99q0 -43 20 -72t52.5 -44.5t71 -27t77.5 -25t71.5 -33.5t52.5 -57.5
t20 -91.5q0 -92 -64.5 -145.5t-155.5 -53.5q-154 0 -230 107zM417 896l-106 -144h-70l-109 144h62l83 -114l86 114h54z" />
    <glyph glyph-name="Scedilla" unicode="&#x15e;" horiz-adv-x="556" 
d="M53 89l63 42q52 -89 162 -89q67 0 113 38.5t46 100.5q0 46 -27 76t-67.5 43t-88 30t-88 35.5t-67.5 61t-27 105.5q0 91 66 142.5t161 51.5q126 0 193 -89l-57 -41q-49 70 -138 70q-68 0 -113.5 -35t-45.5 -99q0 -43 20 -72t52.5 -44.5t71 -27t77.5 -25t71.5 -33.5
t52.5 -57.5t20 -91.5q0 -88 -60 -141t-146 -57l-34 -47l2 -2q13 7 31 7q35 0 59 -19t24 -53q0 -42 -34 -63.5t-78 -21.5q-50 0 -95 21l14 32q36 -17 76 -17q24 0 43.5 11t19.5 32t-16.5 31.5t-39.5 10.5q-20 0 -44 -8l-16 15l50 71q-137 8 -206 106z" />
    <glyph glyph-name="Scommaaccent" unicode="&#x218;" horiz-adv-x="556" 
d="M53 89l63 42q53 -89 162 -89q68 0 113.5 38t45.5 101q0 46 -27 76t-67.5 43t-88 30t-88 35.5t-67.5 61t-27 105.5q0 90 66 142t161 52q125 0 193 -89l-57 -41q-50 70 -138 70q-68 0 -113.5 -35t-45.5 -99q0 -43 20 -72t52.5 -44.5t71 -27t77.5 -25t71.5 -33.5t52.5 -57.5
t20 -91.5q0 -92 -64.5 -145.5t-155.5 -53.5q-154 0 -230 107zM204 -231l50 165h65l-62 -165h-53z" />
    <glyph glyph-name="Tcaron" unicode="&#x164;" horiz-adv-x="574" 
d="M254 0v648h-242v60h550v-60h-242v-648h-66zM430 896l-106 -144h-70l-109 144h62l83 -114l86 114h54z" />
    <glyph glyph-name="Tcommaaccent" unicode="&#x162;" horiz-adv-x="574" 
d="M254 0v648h-242v60h550v-60h-242v-648h-66zM209 -231l50 165h65l-62 -165h-53z" />
    <glyph glyph-name="uni021A" unicode="&#x21a;" horiz-adv-x="574" 
d="M254 0v648h-242v60h550v-60h-242v-648h-66zM209 -231l50 165h65l-62 -165h-53z" />
    <glyph glyph-name="Tbar" unicode="&#x166;" horiz-adv-x="574" 
d="M470 462v-48h-150v-414h-66v414h-148v48h148v186h-242v60h550v-60h-242v-186h150z" />
    <glyph glyph-name="Thorn" unicode="&#xde;" horiz-adv-x="574" 
d="M97 0v708h65v-156h139q41 0 78.5 -9t72.5 -28.5t56 -58t21 -91.5q0 -91 -61.5 -138t-151.5 -47h-153v-180h-66zM163 492v-252h150q64 0 107 30t43 95q0 64 -45 95.5t-109 31.5h-146z" />
    <glyph glyph-name="Ugrave" unicode="&#xd9;" horiz-adv-x="684" 
d="M600 708v-437q0 -59 -13.5 -109t-42.5 -91.5t-80.5 -65t-121.5 -23.5t-121.5 23.5t-80.5 65t-42.5 91.5t-13.5 109v437h66v-420q0 -34 4 -64.5t16.5 -65t32.5 -59t56 -41t83 -16.5t83 16.5t56 41t32.5 59t16.5 65t4 64.5v420h66zM296 896l104 -144h-50l-134 144h80z" />
    <glyph glyph-name="Uacute" unicode="&#xda;" horiz-adv-x="684" 
d="M600 708v-437q0 -59 -13.5 -109t-42.5 -91.5t-80.5 -65t-121.5 -23.5t-121.5 23.5t-80.5 65t-42.5 91.5t-13.5 109v437h66v-420q0 -34 4 -64.5t16.5 -65t32.5 -59t56 -41t83 -16.5t83 16.5t56 41t32.5 59t16.5 65t4 64.5v420h66zM284 752l104 144h80l-134 -144h-50z" />
    <glyph glyph-name="Ucircumflex" unicode="&#xdb;" horiz-adv-x="684" 
d="M600 708v-437q0 -59 -13.5 -109t-42.5 -91.5t-80.5 -65t-121.5 -23.5t-121.5 23.5t-80.5 65t-42.5 91.5t-13.5 109v437h66v-420q0 -34 4 -64.5t16.5 -65t32.5 -59t56 -41t83 -16.5t83 16.5t56 41t32.5 59t16.5 65t4 64.5v420h66zM199 752l108 144h70l108 -144h-65
l-81 108l-81 -108h-59z" />
    <glyph glyph-name="Utilde" unicode="&#x168;" horiz-adv-x="684" 
d="M600 708v-437q0 -59 -13.5 -109t-42.5 -91.5t-80.5 -65t-121.5 -23.5t-121.5 23.5t-80.5 65t-42.5 91.5t-13.5 109v437h66v-420q0 -34 4 -64.5t16.5 -65t32.5 -59t56 -41t83 -16.5t83 16.5t56 41t32.5 59t16.5 65t4 64.5v420h66zM223 769h-36q5 40 27 68q26 34 63 34
q27 0 75 -25q48 -23 63 -23q38 0 48 48h36q-4 -41 -26 -71.5t-58 -30.5q-23 0 -75 24t-66 24q-37 0 -51 -48z" />
    <glyph glyph-name="Udieresis" unicode="&#xdc;" horiz-adv-x="684" 
d="M600 708v-437q0 -59 -13.5 -109t-42.5 -91.5t-80.5 -65t-121.5 -23.5t-121.5 23.5t-80.5 65t-42.5 91.5t-13.5 109v437h66v-420q0 -34 4 -64.5t16.5 -65t32.5 -59t56 -41t83 -16.5t83 16.5t56 41t32.5 59t16.5 65t4 64.5v420h66zM199 840q0 20 14 34t34 14t34 -14t14 -34
t-14 -34t-34 -14t-34 14t-14 34zM389 840q0 20 14 34t34 14t34 -14t14 -34t-14 -34t-34 -14t-34 14t-14 34z" />
    <glyph glyph-name="Umacron" unicode="&#x16a;" horiz-adv-x="684" 
d="M600 708v-437q0 -59 -13.5 -109t-42.5 -91.5t-80.5 -65t-121.5 -23.5t-121.5 23.5t-80.5 65t-42.5 91.5t-13.5 109v437h66v-420q0 -34 4 -64.5t16.5 -65t32.5 -59t56 -41t83 -16.5t83 16.5t56 41t32.5 59t16.5 65t4 64.5v420h66zM475 847v-48h-264v48h264z" />
    <glyph glyph-name="Ubreve" unicode="&#x16c;" horiz-adv-x="684" 
d="M600 708v-437q0 -59 -13.5 -109t-42.5 -91.5t-80.5 -65t-121.5 -23.5t-121.5 23.5t-80.5 65t-42.5 91.5t-13.5 109v437h66v-420q0 -34 4 -64.5t16.5 -65t32.5 -59t56 -41t83 -16.5t83 16.5t56 41t32.5 59t16.5 65t4 64.5v420h66zM199 881h42q6 -39 32.5 -58.5t67.5 -19.5
q46 0 70.5 17t33.5 61h42q-7 -59 -46 -92.5t-100 -33.5t-100 33.5t-42 92.5z" />
    <glyph glyph-name="Uring" unicode="&#x16e;" horiz-adv-x="684" 
d="M600 708v-437q0 -59 -13.5 -109t-42.5 -91.5t-80.5 -65t-121.5 -23.5t-121.5 23.5t-80.5 65t-42.5 91.5t-13.5 109v437h66v-420q0 -34 4 -64.5t16.5 -65t32.5 -59t56 -41t83 -16.5t83 16.5t56 41t32.5 59t16.5 65t4 64.5v420h66zM250 837q0 39 27.5 67t66.5 28
q38 0 65 -29t27 -67q0 -37 -27 -65.5t-65 -28.5q-39 0 -66.5 28t-27.5 67zM400 837q0 25 -16 42t-41 17q-24 0 -40.5 -17.5t-16.5 -42.5t16.5 -41.5t40.5 -16.5q25 0 41 17t16 42z" />
    <glyph glyph-name="Uhungarumlaut" unicode="&#x170;" horiz-adv-x="684" 
d="M600 708v-437q0 -59 -13.5 -109t-42.5 -91.5t-80.5 -65t-121.5 -23.5t-121.5 23.5t-80.5 65t-42.5 91.5t-13.5 109v437h66v-420q0 -34 4 -64.5t16.5 -65t32.5 -59t56 -41t83 -16.5t83 16.5t56 41t32.5 59t16.5 65t4 64.5v420h66zM222 752l104 144h80l-134 -144h-50z
M368 752l104 144h80l-134 -144h-50z" />
    <glyph glyph-name="Uogonek" unicode="&#x172;" horiz-adv-x="684" 
d="M423 -145l19 -38q-36 -33 -85 -33q-41 0 -66.5 22t-25.5 60q0 59 66 117q-129 4 -188 84.5t-59 203.5v437h66v-420q0 -34 4 -64.5t16.5 -65t33 -59t56 -41t82.5 -16.5t82.5 16.5t56 41t33 59t16.5 65t4 64.5v420h66v-437q0 -75 -20 -134t-71.5 -102t-129.5 -51
q-54 -50 -54 -105q0 -47 43 -47q36 0 55 23z" />
    <glyph glyph-name="Wcircumflex" unicode="&#x174;" horiz-adv-x="944" 
d="M211 0l-206 708h68l176 -627h2l179 627h84l179 -627h2l176 627h68l-206 -708h-81l-179 630h-2l-179 -630h-81zM329 752l108 144h70l108 -144h-65l-81 108l-81 -108h-59z" />
    <glyph glyph-name="Yacute" unicode="&#xdd;" horiz-adv-x="574" 
d="M254 0v305l-260 403h79l214 -336l219 336h74l-260 -403v-305h-66zM229 752l104 144h80l-134 -144h-50z" />
    <glyph glyph-name="Ycircumflex" unicode="&#x176;" horiz-adv-x="574" 
d="M254 0v305l-260 403h79l214 -336l219 336h74l-260 -403v-305h-66zM144 752l108 144h70l108 -144h-65l-81 108l-81 -108h-59z" />
    <glyph glyph-name="Ydieresis" unicode="&#x178;" horiz-adv-x="574" 
d="M254 0v305l-260 403h79l214 -336l219 336h74l-260 -403v-305h-66zM144 840q0 20 14 34t34 14t34 -14t14 -34t-14 -34t-34 -14t-34 14t-14 34zM334 840q0 20 14 34t34 14t34 -14t14 -34t-14 -34t-34 -14t-34 14t-14 34z" />
    <glyph glyph-name="Zacute" unicode="&#x179;" horiz-adv-x="556" 
d="M23 0v52l414 596h-408v60h493v-54l-417 -594h428v-60h-510zM225 752l104 144h80l-134 -144h-50z" />
    <glyph glyph-name="Zcaron" unicode="&#x17d;" horiz-adv-x="556" 
d="M23 0v52l414 596h-408v60h493v-54l-417 -594h428v-60h-510zM417 896l-106 -144h-70l-109 144h62l83 -114l86 114h54z" />
    <glyph glyph-name="Zdotaccent" unicode="&#x17b;" horiz-adv-x="556" 
d="M23 0v52l414 596h-408v60h493v-54l-417 -594h428v-60h-510zM246 840q0 20 14 34t34 14t34 -14t14 -34t-14 -34t-34 -14t-34 14t-14 34z" />
    <glyph glyph-name="agrave" unicode="&#xe0;" horiz-adv-x="519" 
d="M439 307v-113q0 -126 9 -194h-56q-6 34 -6 75h-2q-50 -87 -162 -87q-67 0 -115 34.5t-48 102.5q0 155 256 155h70v28q0 57 -35.5 84.5t-94.5 27.5q-80 0 -141 -52l-35 41q32 30 80.5 47.5t95.5 17.5q87 0 135.5 -41t48.5 -126zM385 232h-66q-85 0 -142.5 -24.5
t-57.5 -79.5q0 -40 32 -63t73 -23q88 0 124.5 45.5t36.5 113.5v31zM214 708l104 -144h-50l-134 144h80z" />
    <glyph glyph-name="aacute" unicode="&#xe1;" horiz-adv-x="519" 
d="M439 307v-113q0 -126 9 -194h-56q-6 34 -6 75h-2q-50 -87 -162 -87q-67 0 -115 34.5t-48 102.5q0 155 256 155h70v28q0 57 -35.5 84.5t-94.5 27.5q-80 0 -141 -52l-35 41q32 30 80.5 47.5t95.5 17.5q87 0 135.5 -41t48.5 -126zM385 232h-66q-85 0 -142.5 -24.5
t-57.5 -79.5q0 -40 32 -63t73 -23q88 0 124.5 45.5t36.5 113.5v31zM202 564l104 144h80l-134 -144h-50z" />
    <glyph glyph-name="acircumflex" unicode="&#xe2;" horiz-adv-x="519" 
d="M439 307v-113q0 -126 9 -194h-56q-6 34 -6 75h-2q-50 -87 -162 -87q-67 0 -115 34.5t-48 102.5q0 155 256 155h70v28q0 57 -35.5 84.5t-94.5 27.5q-80 0 -141 -52l-35 41q32 30 80.5 47.5t95.5 17.5q87 0 135.5 -41t48.5 -126zM385 232h-66q-85 0 -142.5 -24.5
t-57.5 -79.5q0 -40 32 -63t73 -23q88 0 124.5 45.5t36.5 113.5v31zM117 564l108 144h70l108 -144h-65l-81 108l-81 -108h-59z" />
    <glyph glyph-name="atilde" unicode="&#xe3;" horiz-adv-x="519" 
d="M439 307v-113q0 -126 9 -194h-56q-6 34 -6 75h-2q-50 -87 -162 -87q-67 0 -115 34.5t-48 102.5q0 155 256 155h70v28q0 57 -35.5 84.5t-94.5 27.5q-80 0 -141 -52l-35 41q32 30 80.5 47.5t95.5 17.5q87 0 135.5 -41t48.5 -126zM385 232h-66q-85 0 -142.5 -24.5
t-57.5 -79.5q0 -40 32 -63t73 -23q88 0 124.5 45.5t36.5 113.5v31zM140 581h-36q5 40 27 68q26 34 63 34q27 0 75 -25q46 -23 63 -23q38 0 48 48h36q-5 -42 -26 -72t-58 -30q-23 0 -75 24t-66 24q-39 0 -51 -48z" />
    <glyph glyph-name="adieresis" unicode="&#xe4;" horiz-adv-x="519" 
d="M439 307v-113q0 -126 9 -194h-56q-6 34 -6 75h-2q-50 -87 -162 -87q-67 0 -115 34.5t-48 102.5q0 155 256 155h70v28q0 57 -35.5 84.5t-94.5 27.5q-80 0 -141 -52l-35 41q32 30 80.5 47.5t95.5 17.5q87 0 135.5 -41t48.5 -126zM385 232h-66q-85 0 -142.5 -24.5
t-57.5 -79.5q0 -40 32 -63t73 -23q88 0 124.5 45.5t36.5 113.5v31zM117 652q0 20 14 34t34 14t34 -14t14 -34t-14 -34t-34 -14t-34 14t-14 34zM307 652q0 20 14 34t34 14t34 -14t14 -34t-14 -34t-34 -14t-34 14t-14 34z" />
    <glyph glyph-name="amacron" unicode="&#x101;" horiz-adv-x="519" 
d="M439 307v-113q0 -126 9 -194h-56q-6 34 -6 75h-2q-50 -87 -162 -87q-67 0 -115 34.5t-48 102.5q0 155 256 155h70v28q0 57 -35.5 84.5t-94.5 27.5q-80 0 -141 -52l-35 41q32 30 80.5 47.5t95.5 17.5q87 0 135.5 -41t48.5 -126zM385 232h-66q-85 0 -142.5 -24.5
t-57.5 -79.5q0 -40 32 -63t73 -23q88 0 124.5 45.5t36.5 113.5v31zM404 654v-48h-264v48h264z" />
    <glyph glyph-name="abreve" unicode="&#x103;" horiz-adv-x="519" 
d="M439 307v-113q0 -126 9 -194h-56q-6 34 -6 75h-2q-50 -87 -162 -87q-67 0 -115 34.5t-48 102.5q0 155 256 155h70v28q0 57 -35.5 84.5t-94.5 27.5q-80 0 -141 -52l-35 41q32 30 80.5 47.5t95.5 17.5q87 0 135.5 -41t48.5 -126zM385 232h-66q-85 0 -142.5 -24.5
t-57.5 -79.5q0 -40 32 -63t73 -23q88 0 124.5 45.5t36.5 113.5v31zM128 708h42q6 -39 32.5 -58.5t67.5 -19.5q46 0 70 17.5t34 60.5h42q-7 -59 -46 -92.5t-100 -33.5t-100 33.5t-42 92.5z" />
    <glyph glyph-name="aring" unicode="&#xe5;" horiz-adv-x="519" 
d="M439 307v-113q0 -126 9 -194h-56q-6 34 -6 75h-2q-50 -87 -162 -87q-67 0 -115 34.5t-48 102.5q0 155 256 155h70v28q0 57 -35.5 84.5t-94.5 27.5q-80 0 -141 -52l-35 41q32 30 80.5 47.5t95.5 17.5q87 0 135.5 -41t48.5 -126zM385 232h-66q-85 0 -142.5 -24.5
t-57.5 -79.5q0 -40 32 -63t73 -23q88 0 124.5 45.5t36.5 113.5v31zM167 649q0 39 27.5 67t66.5 28q38 0 65 -29t27 -67q0 -37 -27 -65.5t-65 -28.5q-39 0 -66.5 28t-27.5 67zM317 649q0 25 -16 42t-41 17q-24 0 -40.5 -17.5t-16.5 -42.5t16.5 -41.5t40.5 -16.5q25 0 41 17
t16 42z" />
    <glyph glyph-name="aogonek" unicode="&#x105;" horiz-adv-x="519" 
d="M462 -145l19 -38q-36 -33 -85 -33q-41 0 -66.5 22t-25.5 60q0 63 88 134q-6 34 -6 75h-2q-27 -45 -65 -66t-97 -21q-67 0 -115 34t-48 103q0 155 256 155h70v28q0 112 -130 112q-80 0 -141 -52l-35 41q32 31 80.5 48t95.5 17q87 0 135.5 -41t48.5 -126v-113
q0 -134 9 -194h-11q-26 -19 -49.5 -53.5t-23.5 -67.5q0 -47 43 -47q36 0 55 23zM385 232h-66q-86 0 -143 -24.5t-57 -79.5q0 -40 32 -63t73 -23q88 0 124.5 45.5t36.5 113.5v31z" />
    <glyph glyph-name="cacute" unicode="&#x107;" horiz-adv-x="481" 
d="M421 106l46 -38q-67 -80 -170 -80q-106 0 -174.5 68.5t-68.5 174.5t68.5 174.5t174.5 68.5q101 0 172 -80l-48 -36q-57 62 -124 62q-83 0 -133 -54.5t-50 -134.5t50 -134.5t133 -54.5q72 0 124 64zM237 564l104 144h80l-134 -144h-50z" />
    <glyph glyph-name="ccircumflex" unicode="&#x109;" horiz-adv-x="481" 
d="M421 106l46 -38q-67 -80 -170 -80q-106 0 -174.5 68.5t-68.5 174.5t68.5 174.5t174.5 68.5q101 0 172 -80l-48 -36q-57 62 -124 62q-83 0 -133 -54.5t-50 -134.5t50 -134.5t133 -54.5q72 0 124 64zM151 564l108 144h70l108 -144h-65l-81 108l-81 -108h-59z" />
    <glyph glyph-name="ccaron" unicode="&#x10d;" horiz-adv-x="481" 
d="M421 106l46 -38q-67 -80 -170 -80q-106 0 -174.5 68.5t-68.5 174.5t68.5 174.5t174.5 68.5q101 0 172 -80l-48 -36q-57 62 -124 62q-83 0 -133 -54.5t-50 -134.5t50 -134.5t133 -54.5q72 0 124 64zM433 708l-106 -144h-70l-109 144h62l83 -114l86 114h54z" />
    <glyph glyph-name="cdotaccent" unicode="&#x10b;" horiz-adv-x="481" 
d="M421 106l46 -38q-67 -80 -170 -80q-106 0 -174.5 68.5t-68.5 174.5t68.5 174.5t174.5 68.5q101 0 172 -80l-48 -36q-57 62 -124 62q-83 0 -133 -54.5t-50 -134.5t50 -134.5t133 -54.5q72 0 124 64zM249 652q0 20 14 34t34 14t34 -14t14 -34t-14 -34t-34 -14t-34 14
t-14 34z" />
    <glyph glyph-name="ccedilla" unicode="&#xe7;" horiz-adv-x="481" 
d="M421 106l46 -38q-67 -80 -170 -80q-9 0 -14 1l-38 -53l2 -2q13 7 31 7q35 0 59 -19t24 -53q0 -42 -34 -63.5t-78 -21.5q-50 0 -95 21l14 32q33 -17 76 -17q23 0 43 11t20 32t-17 31.5t-39 10.5q-23 0 -44 -8l-16 15l57 81q-87 14 -140.5 79.5t-53.5 158.5
q0 106 68.5 174.5t174.5 68.5q101 0 172 -80l-48 -36q-57 62 -124 62q-83 0 -133 -54.5t-50 -134.5t50 -134.5t133 -54.5q72 0 124 64z" />
    <glyph glyph-name="dcaron" unicode="&#x10f;" horiz-adv-x="611" 
d="M484 0v81h-2q-26 -45 -77.5 -69t-107.5 -24q-106 0 -174.5 68.5t-68.5 174.5t68.5 174.5t174.5 68.5q56 0 107.5 -24t77.5 -69h2v375h60v-756h-60zM490 231q0 78 -56 133.5t-137 55.5q-83 0 -133 -54.5t-50 -134.5t50 -134.5t133 -54.5q81 0 137 55.5t56 133.5zM617 523
l51 185h65l-63 -185h-53z" />
    <glyph glyph-name="dcroat" unicode="&#x111;" horiz-adv-x="611" 
d="M484 0v81h-2q-26 -45 -77.5 -69t-107.5 -24q-106 0 -174.5 68.5t-68.5 174.5t68.5 174.5t174.5 68.5q56 0 107.5 -24t77.5 -69h2v200h-162v53h162v122h60v-122h72v-53h-72v-581h-60zM490 231q0 78 -56 133.5t-137 55.5q-83 0 -133 -54.5t-50 -134.5t50 -134.5t133 -54.5
q81 0 137 55.5t56 133.5z" />
    <glyph glyph-name="eth" unicode="&#xf0;" horiz-adv-x="594" 
d="M149 604l104 56q-56 51 -94 78l52 30q56 -41 95 -80l104 56l36 -30l-106 -57q200 -183 200 -401q0 -123 -67.5 -195.5t-175.5 -72.5q-106 0 -174.5 68.5t-68.5 174.5t68.5 174.5t174.5 68.5q88 0 149 -55l2 2q-71 126 -161 207l-107 -57zM114 231q0 -80 50 -134.5
t133 -54.5t133 54.5t50 134.5t-50 134.5t-133 54.5t-133 -54.5t-50 -134.5z" />
    <glyph glyph-name="egrave" unicode="&#xe8;" horiz-adv-x="556" 
d="M444 124l44 -37q-66 -99 -200 -99q-105 0 -169.5 68t-64.5 176q0 104 65 173t166 69t159 -64.5t58 -151.5v-42h-388q0 -17 4.5 -37.5t17 -45t31 -44.5t50.5 -33.5t72 -13.5q46 0 89.5 22.5t65.5 59.5zM114 270h328q0 62 -47 106t-113 44q-45 0 -80.5 -19.5t-53 -47
t-26 -49.5t-8.5 -34zM232 708l104 -144h-50l-134 144h80z" />
    <glyph glyph-name="eacute" unicode="&#xe9;" horiz-adv-x="556" 
d="M444 124l44 -37q-66 -99 -200 -99q-105 0 -169.5 68t-64.5 176q0 104 65 173t166 69t159 -64.5t58 -151.5v-42h-388q0 -17 4.5 -37.5t17 -45t31 -44.5t50.5 -33.5t72 -13.5q46 0 89.5 22.5t65.5 59.5zM114 270h328q0 62 -47 106t-113 44q-45 0 -80.5 -19.5t-53 -47
t-26 -49.5t-8.5 -34zM220 564l104 144h80l-134 -144h-50z" />
    <glyph glyph-name="ecircumflex" unicode="&#xea;" horiz-adv-x="556" 
d="M444 124l44 -37q-66 -99 -200 -99q-105 0 -169.5 68t-64.5 176q0 104 65 173t166 69t159 -64.5t58 -151.5v-42h-388q0 -17 4.5 -37.5t17 -45t31 -44.5t50.5 -33.5t72 -13.5q46 0 89.5 22.5t65.5 59.5zM114 270h328q0 62 -47 106t-113 44q-45 0 -80.5 -19.5t-53 -47
t-26 -49.5t-8.5 -34zM135 564l108 144h70l108 -144h-65l-81 108l-81 -108h-59z" />
    <glyph glyph-name="ecaron" unicode="&#x11b;" horiz-adv-x="556" 
d="M444 124l44 -37q-66 -99 -200 -99q-105 0 -169.5 68t-64.5 176q0 104 65 173t166 69t159 -64.5t58 -151.5v-42h-388q0 -17 4.5 -37.5t17 -45t31 -44.5t50.5 -33.5t72 -13.5q46 0 89.5 22.5t65.5 59.5zM114 270h328q0 62 -47 106t-113 44q-45 0 -80.5 -19.5t-53 -47
t-26 -49.5t-8.5 -34zM433 708l-106 -144h-70l-109 144h62l83 -114l86 114h54z" />
    <glyph glyph-name="edieresis" unicode="&#xeb;" horiz-adv-x="556" 
d="M444 124l44 -37q-66 -99 -200 -99q-105 0 -169.5 68t-64.5 176q0 104 65 173t166 69t159 -64.5t58 -151.5v-42h-388q0 -17 4.5 -37.5t17 -45t31 -44.5t50.5 -33.5t72 -13.5q46 0 89.5 22.5t65.5 59.5zM114 270h328q0 62 -47 106t-113 44q-45 0 -80.5 -19.5t-53 -47
t-26 -49.5t-8.5 -34zM135 652q0 20 14 34t34 14t34 -14t14 -34t-14 -34t-34 -14t-34 14t-14 34zM325 652q0 20 14 34t34 14t34 -14t14 -34t-14 -34t-34 -14t-34 14t-14 34z" />
    <glyph glyph-name="emacron" unicode="&#x113;" horiz-adv-x="556" 
d="M444 124l44 -37q-66 -99 -200 -99q-105 0 -169.5 68t-64.5 176q0 104 65 173t166 69t159 -64.5t58 -151.5v-42h-388q0 -17 4.5 -37.5t17 -45t31 -44.5t50.5 -33.5t72 -13.5q46 0 89.5 22.5t65.5 59.5zM114 270h328q0 62 -47 106t-113 44q-45 0 -80.5 -19.5t-53 -47
t-26 -49.5t-8.5 -34zM426 654v-48h-264v48h264z" />
    <glyph glyph-name="ebreve" unicode="&#x115;" horiz-adv-x="556" 
d="M444 124l44 -37q-66 -99 -200 -99q-105 0 -169.5 68t-64.5 176q0 104 65 173t166 69t159 -64.5t58 -151.5v-42h-388q0 -17 4.5 -37.5t17 -45t31 -44.5t50.5 -33.5t72 -13.5q46 0 89.5 22.5t65.5 59.5zM114 270h328q0 62 -47 106t-113 44q-45 0 -80.5 -19.5t-53 -47
t-26 -49.5t-8.5 -34zM150 708h42q6 -39 32.5 -58.5t67.5 -19.5q46 0 70 17.5t34 60.5h42q-7 -59 -46 -92.5t-100 -33.5t-100 33.5t-42 92.5z" />
    <glyph glyph-name="edotaccent" unicode="&#x117;" horiz-adv-x="556" 
d="M444 124l44 -37q-66 -99 -200 -99q-105 0 -169.5 68t-64.5 176q0 104 65 173t166 69t159 -64.5t58 -151.5v-42h-388q0 -17 4.5 -37.5t17 -45t31 -44.5t50.5 -33.5t72 -13.5q46 0 89.5 22.5t65.5 59.5zM114 270h328q0 62 -47 106t-113 44q-45 0 -80.5 -19.5t-53 -47
t-26 -49.5t-8.5 -34zM249 652q0 20 14 34t34 14t34 -14t14 -34t-14 -34t-34 -14t-34 14t-14 34z" />
    <glyph glyph-name="eogonek" unicode="&#x119;" horiz-adv-x="556" 
d="M369 -145l19 -38q-36 -33 -85 -33q-41 0 -66.5 22t-25.5 60q0 61 73 122q-104 2 -167 70t-63 174q0 104 65 173t166 69q100 0 158.5 -64.5t58.5 -151.5v-42h-388q0 -17 4.5 -37.5t17 -45.5t31 -44.5t50.5 -33t72 -13.5q47 0 88.5 22t66.5 60l44 -37q-56 -82 -155 -96
q-62 -53 -62 -112q0 -47 43 -47q36 0 55 23zM114 270h328q0 62 -47 106t-113 44q-45 0 -80.5 -19.5t-53 -47t-26 -49.5t-8.5 -34z" />
    <glyph glyph-name="gcircumflex" unicode="&#x11d;" horiz-adv-x="611" 
d="M544 462v-432q0 -66 -17 -116t-42 -78.5t-60 -46.5t-65 -23.5t-62 -5.5q-70 0 -132 26t-97 71l47 44q62 -87 182 -87q186 0 186 212v64h-2q-57 -90 -175 -90q-102 0 -174.5 69.5t-72.5 167.5t72.5 167.5t174.5 69.5q118 0 175 -90h2v78h60zM486 237q0 76 -53.5 129.5
t-129.5 53.5t-129.5 -53.5t-53.5 -129.5t53.5 -129.5t129.5 -53.5t129.5 53.5t53.5 129.5zM186 564l108 144h70l108 -144h-65l-81 108l-81 -108h-59z" />
    <glyph glyph-name="gbreve" unicode="&#x11f;" horiz-adv-x="611" 
d="M544 462v-432q0 -66 -17 -116t-42 -78.5t-60 -46.5t-65 -23.5t-62 -5.5q-70 0 -132 26t-97 71l47 44q62 -87 182 -87q186 0 186 212v64h-2q-57 -90 -175 -90q-102 0 -174.5 69.5t-72.5 167.5t72.5 167.5t174.5 69.5q118 0 175 -90h2v78h60zM486 237q0 76 -53.5 129.5
t-129.5 53.5t-129.5 -53.5t-53.5 -129.5t53.5 -129.5t129.5 -53.5t129.5 53.5t53.5 129.5zM185 708h42q6 -39 32.5 -58.5t67.5 -19.5q46 0 70 17.5t34 60.5h42q-7 -59 -46 -92.5t-100 -33.5t-100 33.5t-42 92.5z" />
    <glyph glyph-name="gdotaccent" unicode="&#x121;" horiz-adv-x="611" 
d="M544 462v-432q0 -66 -17 -116t-42 -78.5t-60 -46.5t-65 -23.5t-62 -5.5q-70 0 -132 26t-97 71l47 44q62 -87 182 -87q186 0 186 212v64h-2q-57 -90 -175 -90q-102 0 -174.5 69.5t-72.5 167.5t72.5 167.5t174.5 69.5q118 0 175 -90h2v78h60zM486 237q0 76 -53.5 129.5
t-129.5 53.5t-129.5 -53.5t-53.5 -129.5t53.5 -129.5t129.5 -53.5t129.5 53.5t53.5 129.5zM284 652q0 20 14 34t34 14t34 -14t14 -34t-14 -34t-34 -14t-34 14t-14 34z" />
    <glyph glyph-name="gcommaaccent" unicode="&#x123;" horiz-adv-x="611" 
d="M544 462v-432q0 -66 -17 -116t-42 -78.5t-60 -46.5t-65 -23.5t-62 -5.5q-70 0 -132 26t-97 71l47 44q62 -87 182 -87q186 0 186 212v64h-2q-57 -90 -175 -90q-102 0 -174.5 69.5t-72.5 167.5t72.5 167.5t174.5 69.5q118 0 175 -90h2v78h60zM486 237q0 76 -53.5 129.5
t-129.5 53.5t-129.5 -53.5t-53.5 -129.5t53.5 -129.5t129.5 -53.5t129.5 53.5t53.5 129.5zM401 759l-51 -165h-65l63 165h53z" />
    <glyph glyph-name="hcircumflex" unicode="&#x125;" horiz-adv-x="556" 
d="M80 0v756h60v-375h2q19 40 61.5 66.5t96.5 26.5q176 0 176 -199v-275h-60v272q0 148 -116 148q-70 0 -115 -49t-45 -140v-231h-60zM108 792l108 144h70l108 -144h-65l-81 108l-81 -108h-59z" />
    <glyph glyph-name="hbar" unicode="&#x127;" horiz-adv-x="556" 
d="M80 0v581h-72v53h72v122h60v-122h162v-53h-162v-200h2q19 40 61.5 66.5t96.5 26.5q176 0 176 -199v-275h-60v272q0 148 -116 148q-70 0 -115 -48.5t-45 -140.5v-231h-60z" />
    <glyph glyph-name="igrave" unicode="&#xec;" 
d="M90 0v462h60v-462h-60zM74 708l104 -144h-50l-134 144h80z" />
    <glyph glyph-name="iacute" unicode="&#xed;" 
d="M90 0v462h60v-462h-60zM62 564l104 144h80l-134 -144h-50z" />
    <glyph glyph-name="icircumflex" unicode="&#xee;" 
d="M90 0v462h60v-462h-60zM-23 564l108 144h70l108 -144h-65l-81 108l-81 -108h-59z" />
    <glyph glyph-name="itilde" unicode="&#x129;" 
d="M90 0v462h60v-462h-60zM2 581h-36q5 40 27 68q26 34 63 34q27 0 75 -25q46 -23 63 -23q38 0 48 48h36q-5 -42 -26 -72t-58 -30q-23 0 -75 24t-66 24q-39 0 -51 -48z" />
    <glyph glyph-name="idieresis" unicode="&#xef;" 
d="M90 0v462h60v-462h-60zM-23 652q0 20 14 34t34 14t34 -14t14 -34t-14 -34t-34 -14t-34 14t-14 34zM167 652q0 20 14 34t34 14t34 -14t14 -34t-14 -34t-34 -14t-34 14t-14 34z" />
    <glyph glyph-name="imacron" unicode="&#x12b;" 
d="M90 0v462h60v-462h-60zM253 654v-48h-264v48h264z" />
    <glyph glyph-name="iogonek" unicode="&#x12f;" 
d="M90 0v462h60v-462h-10q-26 -19 -49.5 -53.5t-23.5 -67.5q0 -47 43 -47q36 0 55 23l19 -38q-36 -33 -85 -33q-41 0 -66.5 22t-25.5 60q0 63 88 134h-5zM75 645q0 19 13 32t32 13t32 -13t13 -32t-13 -32t-32 -13t-32 13t-13 32z" />
    <glyph glyph-name="dotlessj" unicode="&#x237;" 
d="M150 462v-543q0 -78 -28.5 -118.5t-103.5 -40.5q-24 0 -48 9l9 53q24 -8 38 -8q44 0 58.5 26.5t14.5 73.5v548h60z" />
    <glyph glyph-name="jcircumflex" unicode="&#x135;" 
d="M150 462v-543q0 -78 -28.5 -118.5t-103.5 -40.5q-24 0 -48 9l9 53q24 -8 38 -8q44 0 58.5 26.5t14.5 73.5v548h60zM-23 564l108 144h70l108 -144h-65l-81 108l-81 -108h-59z" />
    <glyph glyph-name="kcommaaccent" unicode="&#x137;" horiz-adv-x="481" 
d="M80 0v756h60v-504l228 209h88l-238 -211l266 -250h-91l-253 244v-244h-60zM161 -231l50 165h65l-62 -165h-53z" />
    <glyph glyph-name="lacute" unicode="&#x13a;" 
d="M90 0v756h60v-756h-60zM70 792l104 144h80l-134 -144h-50z" />
    <glyph glyph-name="lcaron" unicode="&#x13e;" 
d="M90 0v756h60v-756h-60zM219 523l51 185h65l-63 -185h-53z" />
    <glyph glyph-name="lcommaaccent" unicode="&#x13c;" 
d="M90 0v756h60v-756h-60zM63 -231l50 165h65l-62 -165h-53z" />
    <glyph glyph-name="ldot" unicode="&#x140;" horiz-adv-x="336" 
d="M90 0v756h60v-756h-60zM234 374q0 20 14 34t34 14t34 -14t14 -34t-14 -34t-34 -14t-34 14t-14 34z" />
    <glyph glyph-name="nacute" unicode="&#x144;" horiz-adv-x="556" 
d="M80 0v332q0 18 -2.5 68.5t-2.5 61.5h60q2 -73 4 -81h3q19 40 61.5 66.5t96.5 26.5q176 0 176 -199v-275h-60v272q0 148 -116 148q-70 0 -115 -49t-45 -140v-231h-60zM208 564l104 144h80l-134 -144h-50z" />
    <glyph glyph-name="ncaron" unicode="&#x148;" horiz-adv-x="556" 
d="M80 0v332q0 18 -2.5 68.5t-2.5 61.5h60q2 -73 4 -81h3q19 40 61.5 66.5t96.5 26.5q176 0 176 -199v-275h-60v272q0 148 -116 148q-70 0 -115 -49t-45 -140v-231h-60zM424 708l-106 -144h-70l-109 144h62l83 -114l86 114h54z" />
    <glyph glyph-name="ntilde" unicode="&#xf1;" horiz-adv-x="556" 
d="M80 0v332q0 18 -2.5 68.5t-2.5 61.5h60q2 -73 4 -81h3q19 40 61.5 66.5t96.5 26.5q176 0 176 -199v-275h-60v272q0 148 -116 148q-70 0 -115 -49t-45 -140v-231h-60zM158 581h-36q5 40 27 68q26 34 63 34q27 0 75 -25q46 -23 63 -23q38 0 48 48h36q-5 -42 -26 -72
t-58 -30q-23 0 -75 24t-66 24q-39 0 -51 -48z" />
    <glyph glyph-name="ncommaaccent" unicode="&#x146;" horiz-adv-x="556" 
d="M80 0v332q0 18 -2.5 68.5t-2.5 61.5h60q2 -73 4 -81h3q19 40 61.5 66.5t96.5 26.5q176 0 176 -199v-275h-60v272q0 148 -116 148q-70 0 -115 -49t-45 -140v-231h-60zM205 -231l50 165h65l-62 -165h-53z" />
    <glyph glyph-name="napostrophe" unicode="&#x149;" horiz-adv-x="556" 
d="M80 0v332q0 18 -2.5 68.5t-2.5 61.5h60q2 -73 4 -81h3q19 40 61.5 66.5t96.5 26.5q176 0 176 -199v-275h-60v272q0 148 -116 148q-70 0 -115 -49t-45 -140v-231h-60zM13 523l51 185h65l-63 -185h-53z" />
    <glyph glyph-name="ograve" unicode="&#xf2;" horiz-adv-x="594" 
d="M54 231q0 106 68.5 174.5t174.5 68.5t174.5 -68.5t68.5 -174.5t-68.5 -174.5t-174.5 -68.5t-174.5 68.5t-68.5 174.5zM114 231q0 -80 50 -134.5t133 -54.5t133 54.5t50 134.5t-50 134.5t-133 54.5t-133 -54.5t-50 -134.5zM251 708l104 -144h-50l-134 144h80z" />
    <glyph glyph-name="oacute" unicode="&#xf3;" horiz-adv-x="594" 
d="M54 231q0 106 68.5 174.5t174.5 68.5t174.5 -68.5t68.5 -174.5t-68.5 -174.5t-174.5 -68.5t-174.5 68.5t-68.5 174.5zM114 231q0 -80 50 -134.5t133 -54.5t133 54.5t50 134.5t-50 134.5t-133 54.5t-133 -54.5t-50 -134.5zM239 564l104 144h80l-134 -144h-50z" />
    <glyph glyph-name="ocircumflex" unicode="&#xf4;" horiz-adv-x="594" 
d="M54 231q0 106 68.5 174.5t174.5 68.5t174.5 -68.5t68.5 -174.5t-68.5 -174.5t-174.5 -68.5t-174.5 68.5t-68.5 174.5zM114 231q0 -80 50 -134.5t133 -54.5t133 54.5t50 134.5t-50 134.5t-133 54.5t-133 -54.5t-50 -134.5zM154 564l108 144h70l108 -144h-65l-81 108
l-81 -108h-59z" />
    <glyph glyph-name="otilde" unicode="&#xf5;" horiz-adv-x="594" 
d="M54 231q0 106 68.5 174.5t174.5 68.5t174.5 -68.5t68.5 -174.5t-68.5 -174.5t-174.5 -68.5t-174.5 68.5t-68.5 174.5zM114 231q0 -80 50 -134.5t133 -54.5t133 54.5t50 134.5t-50 134.5t-133 54.5t-133 -54.5t-50 -134.5zM177 581h-36q5 40 27 68q26 34 63 34
q27 0 75 -25q46 -23 63 -23q38 0 48 48h36q-5 -42 -26 -72t-58 -30q-23 0 -75 24t-66 24q-39 0 -51 -48z" />
    <glyph glyph-name="odieresis" unicode="&#xf6;" horiz-adv-x="594" 
d="M54 231q0 106 68.5 174.5t174.5 68.5t174.5 -68.5t68.5 -174.5t-68.5 -174.5t-174.5 -68.5t-174.5 68.5t-68.5 174.5zM114 231q0 -80 50 -134.5t133 -54.5t133 54.5t50 134.5t-50 134.5t-133 54.5t-133 -54.5t-50 -134.5zM154 652q0 20 14 34t34 14t34 -14t14 -34
t-14 -34t-34 -14t-34 14t-14 34zM344 652q0 20 14 34t34 14t34 -14t14 -34t-14 -34t-34 -14t-34 14t-14 34z" />
    <glyph glyph-name="omacron" unicode="&#x14d;" horiz-adv-x="594" 
d="M54 231q0 106 68.5 174.5t174.5 68.5t174.5 -68.5t68.5 -174.5t-68.5 -174.5t-174.5 -68.5t-174.5 68.5t-68.5 174.5zM114 231q0 -80 50 -134.5t133 -54.5t133 54.5t50 134.5t-50 134.5t-133 54.5t-133 -54.5t-50 -134.5zM430 654v-48h-264v48h264z" />
    <glyph glyph-name="obreve" unicode="&#x14f;" horiz-adv-x="594" 
d="M54 231q0 106 68.5 174.5t174.5 68.5t174.5 -68.5t68.5 -174.5t-68.5 -174.5t-174.5 -68.5t-174.5 68.5t-68.5 174.5zM114 231q0 -80 50 -134.5t133 -54.5t133 54.5t50 134.5t-50 134.5t-133 54.5t-133 -54.5t-50 -134.5zM154 708h42q6 -39 32.5 -58.5t67.5 -19.5
q46 0 70 17.5t34 60.5h42q-7 -59 -46 -92.5t-100 -33.5t-100 33.5t-42 92.5z" />
    <glyph glyph-name="ohungarumlaut" unicode="&#x151;" horiz-adv-x="594" 
d="M54 231q0 106 68.5 174.5t174.5 68.5t174.5 -68.5t68.5 -174.5t-68.5 -174.5t-174.5 -68.5t-174.5 68.5t-68.5 174.5zM114 231q0 -80 50 -134.5t133 -54.5t133 54.5t50 134.5t-50 134.5t-133 54.5t-133 -54.5t-50 -134.5zM191 564l104 144h80l-134 -144h-50zM337 564
l104 144h80l-134 -144h-50z" />
    <glyph glyph-name="racute" unicode="&#x155;" horiz-adv-x="333" 
d="M80 0v332q0 18 -2.5 68.5t-2.5 61.5h60q2 -73 4 -81q52 93 147 93q15 0 35 -5l-7 -59q-12 4 -23 4q-75 0 -113 -45t-38 -117v-252h-60zM129 564l104 144h80l-134 -144h-50z" />
    <glyph glyph-name="rcaron" unicode="&#x159;" horiz-adv-x="333" 
d="M80 0v332q0 18 -2.5 68.5t-2.5 61.5h60q2 -73 4 -81q52 93 147 93q15 0 35 -5l-7 -59q-12 4 -23 4q-75 0 -113 -45t-38 -117v-252h-60zM328 708l-106 -144h-70l-109 144h62l83 -114l86 114h54z" />
    <glyph glyph-name="rcommaaccent" unicode="&#x157;" horiz-adv-x="333" 
d="M80 0v332q0 18 -2.5 68.5t-2.5 61.5h60q2 -73 4 -81q52 93 147 93q15 0 35 -5l-7 -59q-12 4 -23 4q-75 0 -113 -45t-38 -117v-252h-60zM78 -231l50 165h65l-62 -165h-53z" />
    <glyph glyph-name="sacute" unicode="&#x15b;" horiz-adv-x="426" 
d="M28 82l53 36q18 -36 55 -56t79 -20t74 23.5t32 61.5q0 35 -28 53.5t-68.5 26.5t-81 18.5t-68.5 38.5t-28 77q0 63 47.5 98t110.5 35q119 0 163 -87l-54 -32q-36 65 -109 65q-36 0 -67 -20t-31 -54t28 -51.5t68.5 -25t81 -17.5t68.5 -39.5t28 -81.5q0 -68 -48.5 -105.5
t-118.5 -37.5q-133 0 -186 94zM162 564l104 144h80l-134 -144h-50z" />
    <glyph glyph-name="scircumflex" unicode="&#x15d;" horiz-adv-x="426" 
d="M28 82l53 36q18 -36 55 -56t79 -20t74 23.5t32 61.5q0 35 -28 53.5t-68.5 26.5t-81 18.5t-68.5 38.5t-28 77q0 63 47.5 98t110.5 35q119 0 163 -87l-54 -32q-36 65 -109 65q-36 0 -67 -20t-31 -54t28 -51.5t68.5 -25t81 -17.5t68.5 -39.5t28 -81.5q0 -68 -48.5 -105.5
t-118.5 -37.5q-133 0 -186 94zM74 564l108 144h70l108 -144h-65l-81 108l-81 -108h-59z" />
    <glyph glyph-name="scaron" unicode="&#x161;" horiz-adv-x="426" 
d="M28 82l53 36q18 -36 55 -56t79 -20t74 23.5t32 61.5q0 35 -28 53.5t-68.5 26.5t-81 18.5t-68.5 38.5t-28 77q0 63 47.5 98t110.5 35q119 0 163 -87l-54 -32q-36 65 -109 65q-36 0 -67 -20t-31 -54t28 -51.5t68.5 -25t81 -17.5t68.5 -39.5t28 -81.5q0 -68 -48.5 -105.5
t-118.5 -37.5q-133 0 -186 94zM352 708l-106 -144h-70l-109 144h62l83 -114l86 114h54z" />
    <glyph glyph-name="scedilla" unicode="&#x15f;" horiz-adv-x="426" 
d="M28 82l53 36q18 -36 54.5 -56t79.5 -20q41 0 73.5 24t32.5 61q0 35 -28 53.5t-68.5 26.5t-81 18.5t-68.5 38.5t-28 77q0 64 47.5 98.5t110.5 34.5q118 0 163 -87l-54 -32q-18 33 -43 49t-66 16q-36 0 -67 -20t-31 -54q0 -29 20.5 -46.5t50.5 -23t66 -14.5t66 -19.5
t50.5 -39t20.5 -72.5q0 -63 -42.5 -100.5t-106.5 -41.5l-39 -53l2 -2q13 7 31 7q35 0 59 -19t24 -53q0 -42 -34 -63.5t-78 -21.5q-50 0 -95 21l14 32q36 -17 76 -17q24 0 43.5 11t19.5 32t-16.5 31.5t-39.5 10.5q-20 0 -44 -8l-16 15l55 77q-118 7 -166 93z" />
    <glyph glyph-name="scommaaccent" unicode="&#x219;" horiz-adv-x="426" 
d="M28 82l53 36q18 -36 55 -56t79 -20t74 23.5t32 61.5q0 35 -28 53.5t-68.5 26.5t-81 18.5t-68.5 38.5t-28 77q0 63 47.5 98t110.5 35q119 0 163 -87l-54 -32q-36 65 -109 65q-36 0 -67 -20t-31 -54t28 -51.5t68.5 -25t81 -17.5t68.5 -39.5t28 -81.5q0 -68 -48.5 -105.5
t-118.5 -37.5q-133 0 -186 94zM142 -231l50 165h65l-62 -165h-53z" />
    <glyph glyph-name="tcaron" unicode="&#x165;" horiz-adv-x="333" 
d="M306 462v-54h-132v-301q0 -31 17 -48t47 -17q31 0 68 16l5 -54q-44 -16 -78 -16q-61 0 -90 33t-29 86v301h-100v54h100v133h60v-133h132zM227 523l51 185h65l-63 -185h-53z" />
    <glyph glyph-name="tcommaaccent" unicode="&#x163;" horiz-adv-x="333" 
d="M306 462v-54h-132v-301q0 -31 17 -48t47 -17q31 0 68 16l5 -54q-44 -16 -78 -16q-61 0 -90 33t-29 86v301h-100v54h100v133h60v-133h132zM108 -231l50 165h65l-62 -165h-53z" />
    <glyph glyph-name="uni021B" unicode="&#x21b;" horiz-adv-x="333" 
d="M306 462v-54h-132v-301q0 -31 17 -48t47 -17q31 0 68 16l5 -54q-44 -16 -78 -16q-61 0 -90 33t-29 86v301h-100v54h100v133h60v-133h132zM108 -231l50 165h65l-62 -165h-53z" />
    <glyph glyph-name="tbar" unicode="&#x167;" horiz-adv-x="333" 
d="M291 325v-48h-117v-170q0 -31 17 -48t47 -17q31 0 68 16l5 -54q-46 -16 -78 -16q-61 0 -90 33t-29 86v170h-87v48h87v83h-100v54h100v133h60v-133h132v-54h-132v-83h117z" />
    <glyph glyph-name="thorn" unicode="&#xfe;" horiz-adv-x="611" 
d="M67 -228v984h60v-375h2q26 45 77.5 69t107.5 24q106 0 174.5 -68.5t68.5 -174.5t-68.5 -174.5t-174.5 -68.5q-56 0 -107.5 24t-77.5 69h-2v-309h-60zM121 231q0 -78 56 -133.5t137 -55.5q83 0 133 54.5t50 134.5t-50 134.5t-133 54.5q-81 0 -137 -55.5t-56 -133.5z" />
    <glyph glyph-name="ugrave" unicode="&#xf9;" horiz-adv-x="556" 
d="M471 462v-332q0 -18 2.5 -68.5t2.5 -61.5h-60q-2 73 -4 81h-3q-19 -40 -61.5 -66.5t-96.5 -26.5q-176 0 -176 199v275h60v-272q0 -148 116 -148q70 0 115 49t45 140v231h60zM232 708l104 -144h-50l-134 144h80z" />
    <glyph glyph-name="uacute" unicode="&#xfa;" horiz-adv-x="556" 
d="M471 462v-332q0 -18 2.5 -68.5t2.5 -61.5h-60q-2 73 -4 81h-3q-19 -40 -61.5 -66.5t-96.5 -26.5q-176 0 -176 199v275h60v-272q0 -148 116 -148q70 0 115 49t45 140v231h60zM220 564l104 144h80l-134 -144h-50z" />
    <glyph glyph-name="ucircumflex" unicode="&#xfb;" horiz-adv-x="556" 
d="M471 462v-332q0 -18 2.5 -68.5t2.5 -61.5h-60q-2 73 -4 81h-3q-19 -40 -61.5 -66.5t-96.5 -26.5q-176 0 -176 199v275h60v-272q0 -148 116 -148q70 0 115 49t45 140v231h60zM135 564l108 144h70l108 -144h-65l-81 108l-81 -108h-59z" />
    <glyph glyph-name="utilde" unicode="&#x169;" horiz-adv-x="556" 
d="M471 462v-332q0 -18 2.5 -68.5t2.5 -61.5h-60q-2 73 -4 81h-3q-19 -40 -61.5 -66.5t-96.5 -26.5q-176 0 -176 199v275h60v-272q0 -148 116 -148q70 0 115 49t45 140v231h60zM157 581h-36q5 40 27 68q26 34 63 34q27 0 75 -25q46 -23 63 -23q38 0 48 48h36q-5 -42 -26 -72
t-58 -30q-23 0 -75 24t-66 24q-39 0 -51 -48z" />
    <glyph glyph-name="udieresis" unicode="&#xfc;" horiz-adv-x="556" 
d="M471 462v-332q0 -18 2.5 -68.5t2.5 -61.5h-60q-2 73 -4 81h-3q-19 -40 -61.5 -66.5t-96.5 -26.5q-176 0 -176 199v275h60v-272q0 -148 116 -148q70 0 115 49t45 140v231h60zM135 652q0 20 14 34t34 14t34 -14t14 -34t-14 -34t-34 -14t-34 14t-14 34zM325 652q0 20 14 34
t34 14t34 -14t14 -34t-14 -34t-34 -14t-34 14t-14 34z" />
    <glyph glyph-name="umacron" unicode="&#x16b;" horiz-adv-x="556" 
d="M471 462v-332q0 -18 2.5 -68.5t2.5 -61.5h-60q-2 73 -4 81h-3q-19 -40 -61.5 -66.5t-96.5 -26.5q-176 0 -176 199v275h60v-272q0 -148 116 -148q70 0 115 49t45 140v231h60zM409 654v-48h-264v48h264z" />
    <glyph glyph-name="ubreve" unicode="&#x16d;" horiz-adv-x="556" 
d="M471 462v-332q0 -18 2.5 -68.5t2.5 -61.5h-60q-2 73 -4 81h-3q-19 -40 -61.5 -66.5t-96.5 -26.5q-176 0 -176 199v275h60v-272q0 -148 116 -148q70 0 115 49t45 140v231h60zM133 708h42q6 -39 32.5 -58.5t67.5 -19.5q46 0 70 17.5t34 60.5h42q-7 -59 -46 -92.5
t-100 -33.5t-100 33.5t-42 92.5z" />
    <glyph glyph-name="uring" unicode="&#x16f;" horiz-adv-x="556" 
d="M471 462v-332q0 -18 2.5 -68.5t2.5 -61.5h-60q-2 73 -4 81h-3q-19 -40 -61.5 -66.5t-96.5 -26.5q-176 0 -176 199v275h60v-272q0 -148 116 -148q70 0 115 49t45 140v231h60zM184 649q0 39 27.5 67t66.5 28q38 0 65 -29t27 -67q0 -37 -27 -65.5t-65 -28.5q-39 0 -66.5 28
t-27.5 67zM334 649q0 25 -16 42t-41 17q-24 0 -40.5 -17.5t-16.5 -42.5t16.5 -41.5t40.5 -16.5q25 0 41 17t16 42z" />
    <glyph glyph-name="uhungarumlaut" unicode="&#x171;" horiz-adv-x="556" 
d="M471 462v-332q0 -18 2.5 -68.5t2.5 -61.5h-60q-2 73 -4 81h-3q-19 -40 -61.5 -66.5t-96.5 -26.5q-176 0 -176 199v275h60v-272q0 -148 116 -148q70 0 115 49t45 140v231h60zM156 564l104 144h80l-134 -144h-50zM302 564l104 144h80l-134 -144h-50z" />
    <glyph glyph-name="uogonek" unicode="&#x173;" horiz-adv-x="556" 
d="M486 -145l19 -38q-36 -33 -85 -33q-41 0 -66.5 22t-25.5 60q0 63 88 134q-2 75 -4 81h-3q-19 -40 -61.5 -66.5t-96.5 -26.5q-176 0 -176 199v275h60v-272q0 -148 116 -148q70 0 115 48.5t45 140.5v231h60v-332q0 -18 2.5 -68.5t2.5 -61.5h-15q-26 -19 -49.5 -53.5
t-23.5 -67.5q0 -47 43 -47q36 0 55 23z" />
    <glyph glyph-name="wcircumflex" unicode="&#x175;" horiz-adv-x="704" 
d="M160 0l-145 462h66l112 -387h2l129 387h57l137 -387h2l109 387h60l-136 -462h-62l-138 378h-2l-129 -378h-62zM210 564l108 144h70l108 -144h-65l-81 108l-81 -108h-59z" />
    <glyph glyph-name="yacute" unicode="&#xfd;" horiz-adv-x="463" 
d="M448 462l-238 -605q-38 -97 -127 -97q-25 0 -59 9l6 56q37 -11 54 -11q29 0 46 21t31 56l42 107l-188 464h67l153 -389l149 389h64zM174 564l104 144h80l-134 -144h-50z" />
    <glyph glyph-name="ycircumflex" unicode="&#x177;" horiz-adv-x="463" 
d="M448 462l-238 -605q-38 -97 -127 -97q-25 0 -59 9l6 56q37 -11 54 -11q29 0 46 21t31 56l42 107l-188 464h67l153 -389l149 389h64zM94 564l108 144h70l108 -144h-65l-81 108l-81 -108h-59z" />
    <glyph glyph-name="ydieresis" unicode="&#xff;" horiz-adv-x="463" 
d="M448 462l-238 -605q-38 -97 -127 -97q-25 0 -59 9l6 56q37 -11 54 -11q29 0 46 21t31 56l42 107l-188 464h67l153 -389l149 389h64zM89 652q0 20 14 34t34 14t34 -14t14 -34t-14 -34t-34 -14t-34 14t-14 34zM279 652q0 20 14 34t34 14t34 -14t14 -34t-14 -34t-34 -14
t-34 14t-14 34z" />
    <glyph glyph-name="zacute" unicode="&#x17a;" horiz-adv-x="426" 
d="M27 0v36l277 372h-263v54h346v-36l-276 -372h288v-54h-372zM162 564l104 144h80l-134 -144h-50z" />
    <glyph glyph-name="zcaron" unicode="&#x17e;" horiz-adv-x="426" 
d="M27 0v36l277 372h-263v54h346v-36l-276 -372h288v-54h-372zM352 708l-106 -144h-70l-109 144h62l83 -114l86 114h54z" />
    <glyph glyph-name="zdotaccent" unicode="&#x17c;" horiz-adv-x="426" 
d="M27 0v36l277 372h-263v54h346v-36l-276 -372h288v-54h-372zM184 652q0 20 14 34t34 14t34 -14t14 -34t-14 -34t-34 -14t-34 14t-14 34z" />
    <glyph glyph-name="IJ" unicode="&#x132;" horiz-adv-x="708" 
d="M97 0v708h66v-708h-66zM611 708v-500q0 -32 -2.5 -57t-13.5 -59t-30.5 -56t-57.5 -38t-90 -16q-75 0 -121.5 38.5t-62.5 106.5l66 12q24 -97 118 -97q128 0 128 150v516h66z" />
    <glyph glyph-name="ij" unicode="&#x133;" horiz-adv-x="455" 
d="M90 0v462h60v-462h-60zM75 645q0 19 13 32t32 13t32 -13t13 -32t-13 -32t-32 -13t-32 13t-13 32zM365 462v-543q0 -78 -28.5 -118.5t-103.5 -40.5q-24 0 -48 9l9 53q21 -8 38 -8q44 0 58.5 26.5t14.5 73.5v548h60zM290 645q0 19 13 32t32 13t32 -13t13 -32t-13 -32
t-32 -13t-32 13t-13 32z" />
    <glyph glyph-name="grave.cap" 
d="M74 896l104 -144h-50l-134 144h80z" />
    <glyph glyph-name="acute.cap" 
d="M62 752l104 144h80l-134 -144h-50z" />
    <glyph glyph-name="circumflex.cap" 
d="M-23 752l108 144h70l108 -144h-65l-81 108l-81 -108h-59z" />
    <glyph glyph-name="caron.cap" 
d="M259 896l-106 -144h-70l-109 144h62l83 -114l86 114h54z" />
    <glyph glyph-name="caron.alt" 
d="M41 523l51 185h65l-63 -185h-53z" />
    <glyph glyph-name="tilde.cap" 
d="M0 769h-36q5 40 27 68q25 34 63 34q27 0 75 -25q48 -23 63 -23q38 0 48 48h36q-4 -41 -26 -71.5t-58 -30.5q-23 0 -75 24t-66 24q-37 0 -51 -48z" />
    <glyph glyph-name="dieresis.cap" 
d="M-23 840q0 20 14 34t34 14t34 -14t14 -34t-14 -34t-34 -14t-34 14t-14 34zM167 840q0 20 14 34t34 14t34 -14t14 -34t-14 -34t-34 -14t-34 14t-14 34z" />
    <glyph glyph-name="macron.cap" 
d="M252 847v-48h-264v48h264z" />
    <glyph glyph-name="uni02C9" unicode="&#x2c9;" 
d="M252 654v-48h-264v48h264z" />
    <glyph glyph-name="breve.cap" 
d="M-24 881h42q6 -39 32.5 -58.5t67.5 -19.5q46 0 70.5 17t33.5 61h42q-7 -59 -46 -92.5t-100 -33.5t-100 33.5t-42 92.5z" />
    <glyph glyph-name="ring.cap" 
d="M27 837q0 39 27.5 67t66.5 28q38 0 65 -29t27 -67q0 -37 -27 -65.5t-65 -28.5q-39 0 -66.5 28t-27.5 67zM177 837q0 25 -16 42t-41 17q-24 0 -40.5 -17.5t-16.5 -42.5t16.5 -41.5t40.5 -16.5q25 0 41 17t16 42z" />
    <glyph glyph-name="hungarumlaut.cap" 
d="M-11 752l104 144h80l-134 -144h-50zM135 752l104 144h80l-134 -144h-50z" />
    <glyph glyph-name="dotaccent.cap" 
d="M75 840q0 20 14 34t34 14t34 -14t14 -34t-14 -34t-34 -14t-34 14t-14 34z" />
    <glyph glyph-name="commaaccent" 
d="M42 -231l50 165h65l-62 -165h-53z" />
    <glyph glyph-name="commaaccent.alt" 
d="M186 759l-51 -165h-65l63 165h53z" />
    <glyph glyph-name="uni00AD" unicode="&#xad;" horiz-adv-x="333" 
d="M43 210v54h247v-54h-247z" />
    <glyph glyph-name="uni2219" unicode="&#x2219;" horiz-adv-x="260" 
d="M82 318q0 20 14 34t34 14t34 -14t14 -34t-14 -34t-34 -14t-34 14t-14 34z" />
    <glyph glyph-name="brokenbar" unicode="&#xa6;" horiz-adv-x="222" 
d="M87 675h48v-350h-48v350zM87 175h48v-350h-48v350z" />
    <glyph glyph-name="copyright" unicode="&#xa9;" horiz-adv-x="800" 
d="M594 431h-54q-10 43 -44 73t-86 31q-74 0 -117.5 -52t-43.5 -129t43.5 -129t117.5 -52q52 0 87 30t43 74h54q-9 -72 -60.5 -112t-124.5 -40q-100 0 -157 64t-57 165t57 165t157 64q73 0 124.5 -40t60.5 -112zM28 354q0 154 109 263t263 109t263 -109t109 -263t-109 -263
t-263 -109t-263 109t-109 263zM82 354q0 -132 93 -225t225 -93t225 93t93 225t-93 225t-225 93t-225 -93t-93 -225z" />
    <glyph glyph-name="registered" unicode="&#xae;" horiz-adv-x="800" 
d="M319 329v-188h-54v429h165q71 0 103 -30t32 -89q0 -103 -108 -122l128 -188h-61l-128 188h-77zM319 522v-145h69q28 0 45 2t37.5 8.5t30.5 22.5t10 41q0 38 -28 54.5t-68 16.5h-96zM28 354q0 154 109 263t263 109t263 -109t109 -263t-109 -263t-263 -109t-263 109
t-109 263zM82 354q0 -132 93 -225t225 -93t225 93t93 225t-93 225t-225 93t-225 -93t-93 -225z" />
    <glyph glyph-name="trademark" unicode="&#x2122;" horiz-adv-x="990" 
d="M217 296v364h-133v48h320v-48h-133v-364h-54zM478 296v412h86l130 -328l129 328h83v-412h-54v361h-2l-142 -361h-32l-142 361h-2v-361h-54z" />
    <glyph glyph-name="Euro" unicode="&#x20ac;" horiz-adv-x="470" 
d="M441 704l-16 -55q-34 18 -86 18q-70 0 -116 -52.5t-63 -153.5h223l-13 -48h-218q-4 -23 -4 -63q0 -23 2 -53h200l-11 -48h-183q12 -96 59 -151t116 -55q53 0 98 27l12 -57q-44 -29 -117 -29q-98 0 -159 72t-77 193h-63l12 48h48q-3 15 -3 53t4 63h-59l11 48h52
q47 263 247 263q62 0 104 -20z" />
    <glyph glyph-name="onesuperior" unicode="&#xb9;" horiz-adv-x="338" 
d="M177 289v371l-85 -66l-25 34l110 86h54v-425h-54z" />
    <glyph glyph-name="twosuperior" unicode="&#xb2;" horiz-adv-x="338" 
d="M23 289v43l172 168q23 23 34 35t21 32t10 42q0 28 -22.5 45.5t-61.5 17.5q-66 0 -86 -59l-51 4q12 53 53 78t86 25q59 0 97.5 -29.5t38.5 -79.5q0 -30 -15 -60t-30.5 -46.5t-46.5 -46.5l-127 -121h220v-48h-292z" />
    <glyph glyph-name="threesuperior" unicode="&#xb3;" horiz-adv-x="338" 
d="M127 488v48h23q37 0 66 18.5t29 56.5q0 26 -21 43.5t-56 17.5q-58 0 -88 -50l-39 25q46 73 127 73q56 0 93.5 -30t37.5 -78q0 -34 -23 -60.5t-59 -38.5v-2q43 -6 68.5 -36t25.5 -71q0 -55 -41 -88t-104 -33q-105 0 -139 89l47 18q23 -59 92 -59q34 0 62.5 23t28.5 53
q0 81 -113 81h-17z" />
    <glyph glyph-name="uni2215" unicode="&#x2215;" horiz-adv-x="168" 
d="M-167 -6l456 748l46 -28l-457 -748z" />
    <glyph glyph-name="onequarter" unicode="&#xbc;" horiz-adv-x="778" 
d="M624 0v102h-190v45l185 277h59v-274h64v-48h-64v-102h-54zM624 150v202h-2l-134 -202h136zM146 289v371l-85 -66l-25 34l110 86h54v-425h-54zM115 -6l456 748l46 -28l-457 -748z" />
    <glyph glyph-name="onehalf" unicode="&#xbd;" horiz-adv-x="778" 
d="M138 289v371l-85 -66l-25 34l110 86h54v-425h-54zM106 -6l456 748l46 -28l-457 -748zM458 0v43l172 168q23 23 34 35t21 32t10 42q0 28 -22.5 45.5t-61.5 17.5q-66 0 -86 -59l-51 4q12 53 53 78t86 25q59 0 97.5 -29.5t38.5 -79.5q0 -30 -15 -60t-30.5 -46.5t-46.5 -46.5
l-127 -121h220v-48h-292z" />
    <glyph glyph-name="threequarters" unicode="&#xbe;" horiz-adv-x="778" 
d="M640 0v102h-190v45l185 277h59v-274h64v-48h-64v-102h-54zM638 150v202h-2l-134 -202h136zM121 488v48h23q95 7 95 75q0 26 -21 43.5t-56 17.5q-58 0 -88 -50l-39 25q46 73 127 73q56 0 93.5 -30t37.5 -78q0 -34 -23 -60.5t-59 -38.5v-2q43 -6 68.5 -36t25.5 -71
q0 -55 -41 -88t-104 -33q-105 0 -140 89l48 18q23 -59 92 -59q34 0 62.5 23t28.5 53q0 81 -113 81h-17zM166 -6l456 748l46 -28l-457 -748z" />
    <glyph glyph-name="minus" unicode="&#x2212;" horiz-adv-x="666" 
d="M78 279v48h510v-48h-510z" />
    <glyph glyph-name="plusminus" unicode="&#xb1;" horiz-adv-x="666" 
d="M78 327v48h228v183h48v-183h234v-48h-234v-183h-48v183h-228zM82 48v48h502v-48h-502z" />
    <glyph glyph-name="multiply" unicode="&#xd7;" horiz-adv-x="666" 
d="M136 535l198 -198l199 198l33 -34l-199 -198l198 -198l-34 -34l-197 199l-199 -199l-35 34l200 198l-198 198z" />
    <glyph glyph-name="divide" unicode="&#xf7;" horiz-adv-x="666" 
d="M78 279v48h510v-48h-510zM282 457q0 21 15 36t36 15t36 -15t15 -36t-15 -36t-36 -15t-36 15t-15 36zM282 149q0 21 15 35.5t36 15.5q21 0 36 -15t15 -36t-15 -36t-36 -15t-36 15t-15 36z" />
    <glyph glyph-name="notequal" unicode="&#x2260;" horiz-adv-x="666" 
d="M578 126h-284l-75 -142l-42 21l64 121h-153v48h178l75 142h-253v48h279l77 145l41 -22l-65 -123h158v-48h-183l-76 -142h259v-48z" />
    <glyph glyph-name="approxequal" unicode="&#x2248;" horiz-adv-x="666" 
d="M557 397h32q-7 -54 -36 -90t-81 -36q-47 0 -142 37q-93 36 -135 36q-33 0 -55 -22.5t-29 -57.5h-33q21 128 116 128q45 0 142 -36q93 -37 138 -37q64 0 83 78zM557 226h32q-7 -54 -36 -90t-81 -36q-47 0 -142 37q-93 36 -135 36q-33 0 -55 -22.5t-29 -57.5h-33
q21 128 116 128q45 0 142 -36q93 -37 138 -37q64 0 83 78z" />
    <glyph glyph-name="lessequal" unicode="&#x2264;" horiz-adv-x="666" 
d="M578 12h-490v47h490v-47zM578 117l-490 184v56l490 184v-52l-431 -161l431 -160v-51z" />
    <glyph glyph-name="greaterequal" unicode="&#x2265;" horiz-adv-x="666" 
d="M578 301l-490 -184v51l431 160l-431 161v52l490 -184v-56zM578 12h-490v47h490v-47z" />
    <glyph glyph-name="logicalnot" unicode="&#xac;" horiz-adv-x="666" 
d="M540 134v217h-462v48h510v-265h-48z" />
    <glyph glyph-name="Delta" horiz-adv-x="670" 
d="M657 0h-642l281 712h74zM561 62l-229 583l-226 -583h455z" />
    <glyph glyph-name="uni0394" unicode="&#x394;" horiz-adv-x="670" 
d="M657 0h-642l281 712h74zM561 62l-229 583l-226 -583h455z" />
    <glyph glyph-name="Omega" horiz-adv-x="744" 
d="M685 0h-251v181q89 15 136.5 78.5t47.5 155.5q0 107 -72.5 176t-179.5 69q-106 0 -179 -70t-73 -175q0 -91 48 -155.5t136 -78.5v-181h-251v58h197v82q-92 26 -144.5 102t-52.5 174q0 132 94 218.5t226 86.5q131 0 224.5 -86.5t93.5 -217.5q0 -100 -52 -176t-145 -101
v-82h197v-58z" />
    <glyph glyph-name="uni03A9" unicode="&#x3a9;" horiz-adv-x="744" 
d="M685 0h-251v181q89 15 136.5 78.5t47.5 155.5q0 107 -72.5 176t-179.5 69q-106 0 -179 -70t-73 -175q0 -91 48 -155.5t136 -78.5v-181h-251v58h197v82q-92 26 -144.5 102t-52.5 174q0 132 94 218.5t226 86.5q131 0 224.5 -86.5t93.5 -217.5q0 -100 -52 -176t-145 -101
v-82h197v-58z" />
    <glyph glyph-name="mu" horiz-adv-x="556" 
d="M471 462v-332q0 -18 2.5 -68.5t2.5 -61.5h-60q-2 73 -4 81h-3q-19 -40 -61.5 -66.5t-96.5 -26.5q-74 0 -117 38v-254h-59v690h60v-272q0 -148 116 -148q70 0 115 49t45 140v231h60z" />
    <glyph glyph-name="uni03BC" unicode="&#x3bc;" horiz-adv-x="556" 
d="M471 462v-332q0 -18 2.5 -68.5t2.5 -61.5h-60q-2 75 -4 81h-3q-19 -40 -61.5 -66.5t-96.5 -26.5q-74 0 -117 38v-254h-59v690h60v-272q0 -148 116 -148q70 0 115 48.5t45 140.5v231h60z" />
    <glyph glyph-name="pi" unicode="&#x3c0;" horiz-adv-x="563" 
d="M524 45v-36q-33 -15 -58 -15q-21 0 -35.5 6.5t-22 15t-11.5 25.5t-4.5 29.5t-0.5 34.5v310h-232v-415h-52v415h-70v47h482v-47h-76v-317q0 -20 2 -30.5t12 -20t30 -9.5q15 0 36 7z" />
    <glyph glyph-name="degree" unicode="&#xb0;" horiz-adv-x="400" 
d="M200 432q-60 0 -102 42t-42 103q0 60 42 101.5t102 41.5t102 -41.5t42 -101.5q0 -61 -42 -103t-102 -42zM200 480q40 0 68 28t28 68t-28 68t-68 28t-68 -28t-28 -68t28 -68t68 -28z" />
    <glyph glyph-name="afii61289" unicode="&#x2113;" horiz-adv-x="500" 
d="M388 66l19 -24q-56 -50 -122 -50q-56 0 -88.5 30.5t-32.5 91.5v129l-63 -68l-21 28l84 82v261q0 79 34.5 124t88.5 45q46 0 75 -33t29 -89q0 -140 -171 -316v-152q0 -51 23.5 -72t57.5 -21q43 0 87 34zM346 588q0 42 -16.5 66.5t-42.5 24.5q-28 0 -47.5 -31t-19.5 -91
v-239q126 144 126 270z" />
    <glyph glyph-name="estimated" unicode="&#x212e;" horiz-adv-x="500" 
d="M561 259h-404v-181q59 -59 145 -59q63 0 109 28.5t84 91.5l35 -21q-46 -73 -98 -104t-130 -31q-115 0 -186.5 79t-71.5 197q0 119 71 197.5t187 78.5q115 0 187 -77t72 -199zM157 295h291v145q-63 60 -147 60t-144 -60v-145z" />
    <glyph glyph-name="infinity" unicode="&#x221e;" horiz-adv-x="741" 
d="M700 252q0 -63 -38.5 -105.5t-101.5 -42.5q-52 0 -95.5 28.5t-93.5 78.5q-10 -8 -33.5 -28.5t-36.5 -30.5t-34 -23.5t-42 -19t-44 -5.5q-62 0 -101 41t-39 104t38 105.5t100 42.5q28 0 53.5 -8.5t54.5 -30.5t40.5 -32t43.5 -41l22 22t25 23.5t23 19.5t27 20t26.5 13.5
t31.5 11.5t32 3q63 0 102.5 -41t39.5 -105zM643 249q0 40 -21.5 66t-61.5 26q-13 0 -28 -5t-26 -11t-27.5 -18t-24.5 -19t-24.5 -21.5t-20.5 -18.5q3 -3 13 -11.5t14 -12t13.5 -11.5t15 -11.5t15 -10t16 -10t16 -8t17 -6.5t16.5 -3.5t18 -1.5q37 0 58.5 24.5t21.5 62.5z
M333 249q-3 2 -8 7q-28 25 -45.5 39t-47.5 29.5t-54 15.5q-37 0 -58.5 -26.5t-21.5 -63.5q0 -39 22.5 -63.5t61.5 -24.5q59 0 151 87z" />
    <glyph glyph-name="partialdiff" unicode="&#x2202;" horiz-adv-x="496" 
d="M455 363q0 -50 -4.5 -96t-19.5 -99t-38.5 -91t-65.5 -63.5t-97 -25.5q-90 0 -144.5 66t-54.5 158q0 90 52.5 151.5t141.5 61.5q98 0 166 -84q0 9 0.5 26t0.5 26q0 46 -9 90.5t-28 87t-56 69t-86 26.5q-52 0 -112 -46l-36 43q67 58 145 58q68 0 118.5 -33t76.5 -88.5
t38 -114t12 -122.5zM386 278q-68 91 -155 91q-65 0 -101 -46t-36 -113q0 -66 36.5 -117.5t100.5 -51.5q41 0 72 23.5t47.5 61.5t25 75.5t10.5 76.5z" />
    <glyph glyph-name="integral" unicode="&#x222b;" horiz-adv-x="543" 
d="M406 736q0 -34 -37 -34q-13 0 -21 6t-11.5 14t-8.5 14t-11 6q-10 0 -17 -9.5t-10.5 -25.5t-5.5 -34t-2.5 -39t0 -36.5t1 -30t0.5 -16.5v-504q0 -122 -16 -173q-28 -87 -106 -87q-24 0 -42 12t-18 35q0 14 9.5 23t23.5 9q15 0 23.5 -9.5t14 -19t12.5 -9.5q32 0 32 159
l1 21v495q0 8 -1 43.5t0 53.5t3.5 52t10.5 53t20.5 40t34.5 31t51 10q27 0 48.5 -12.5t21.5 -37.5z" />
    <glyph glyph-name="radical" unicode="&#x221a;" horiz-adv-x="493" 
d="M502 786l-210 -1000h-66l-164 340l-46 -22l-24 50l100 48l158 -332l189 916h63z" />
    <glyph glyph-name="summation" unicode="&#x2211;" horiz-adv-x="604" 
d="M578 -214h-553v55l329 448l-315 441v56h527v-62h-442l309 -435l-328 -442h473v-61z" />
    <glyph glyph-name="product" unicode="&#x220f;" horiz-adv-x="711" 
d="M641 -214h-66v938h-438v-938h-66v1000h570v-1000z" />
    <glyph glyph-name="lozenge" unicode="&#x25ca;" horiz-adv-x="593" 
d="M498 356l-171 -391h-63l-169 391l169 391h63zM433 356l-137 325l-136 -325l136 -325z" />
    <glyph glyph-name="uniF8FF" unicode="&#xf8ff;" horiz-adv-x="512" 
d="M278 117h-56v67h56v-67zM271 234h-46l-2 17q0 56 13 81q15 28 46 59q30 28 40 45.5t10 37.5q0 36 -22.5 60.5t-53.5 24.5q-71 0 -82 -95l-50 8q6 69 42 103t93 34q55 0 89.5 -36t34.5 -95q0 -34 -13 -60t-50 -60q-37 -33 -43 -52q-6 -20 -6 -72zM50 50h412v617h-412v-617
zM0 718h512v-718h-512v718z" />
  </font>
</defs>
</svg>
