<svg xmlns="http://www.w3.org/2000/svg" xmlns:xlink="http://www.w3.org/1999/xlink" xmlns:lucid="lucid" width="870" height="818.62"><g transform="translate(-1100 -400)" lucid:page-tab-id="0_0"><path d="M1000 0h1000v1500H1000z" fill="#fff"/><path d="M1895.28 1065.43v.02l.18.63v.04l.16.62v.04l.13.62v.04l.1.62v.04l.07.63v.04l.02.3-1.95.1-.03-.26-.06-.58-.07-.58-.1-.58-.15-.57-.16-.6-.1-.33 1.84-.6zm-9.13-11.78v.02h.02l1.3 1.03h.02v.02l1.12.97h.02l.96.9v.02h.02v.02l.84.85h.02v.02l.6.64-1.45 1.3-.58-.62-.8-.82-.92-.87-1.08-.93-1.26-1-.95-.68 1.14-1.58zm-11.84-6.92h.04v.02l3.4 1.7h.04l.78.43-.94 1.7-.75-.4-3.37-1.67-2.7-1.2.78-1.78zm-10.43-4.33h.02l.54.22-.72 1.8-.5-.2-6.7-2.3.64-1.85zm-14.07-4.62l-.56 1.87-7.34-2.2.56-1.87zm-14.75-4.3l-.5 1.9-7.4-2.03.5-1.88zm-14.8-4.03l-.5 1.88-7.4-2 .5-1.9zm-14.8-4.04l-.5 1.9-7.4-2.02.52-1.88zm-14.78-4.02l-.52 1.88-7.4-2.02.52-1.88zm-21.38-6.48l6.67 2.32-.63 1.85-6.7-2.33h-.04l-.54-.22.72-1.82zm-30.77-24.68l.06.6.07.57.1.57.15.58.16.58.1.34-.5.16h-1.48l-.16-.58V993l-.16-.63v-.04l-.13-.62v-.04l-.1-.62v-.04l-.07-.63v-.02l-.02-.3 1.95-.13z" stroke="#000" stroke-width=".05"/><path d="M1895.97 1070.12h-1.94l-.03-1 1.95-.05z"/><path stroke="#000" stroke-width=".05"/><path d="M1738.47 990.04h-1.94v-1.02h1.94z"/><path stroke="#000" stroke-width=".05"/><path d="M1610.93 1065.5l-.08.3-.16.7-.15.7-.1.7-.08.73-.04.55-1.94-.12.02-.58v-.04l.1-.76v-.04l.1-.76v-.02l.15-.76v-.04l.18-.74v-.04l.1-.32zm8.78-12.1l-.34.27-1.23 1.06-1.06 1-.92.94-.8.9-.7.84-.32.4-1.55-1.16.32-.42v-.02h.02v-.02l.74-.88v-.02h.02l.83-.93h.02v-.02h.02l.95-.98v-.02h.02l1.1-1.03v-.02h.02l1.26-1.1h.02v-.02l.38-.3zm13.32-8.1l-2.9 1.45-3.1 1.7-.9.54-1-1.68.9-.55h.02v-.02h.02l3.13-1.72h.02v-.02l2.94-1.44zm14.45-6.04l-.27.1-7.03 2.76-.72-1.8 7.06-2.8h.06l.3-.1zm15.02-4.95l-7.52 2.48-.6-1.85 7.5-2.47zm15-4.94l-7.5 2.48-.6-1.86 7.5-2.47zm15-5.05l-7.47 2.58-.64-1.85 7.47-2.57zm14.88-5.47l-7.06 2.78v.02h-.04l-.3.1-.64-1.83.3-.1 7.02-2.78zm10.26-4.72v.02h-.02l-2.95 1.46-.86-1.75.4-.2h4.3zm20.8-24.02l-.03.57v.04l-.08.76v.04l-.1.75h-.02v.04l-.14.74v.04l-.14.55h-2.02l.08-.28.17-.7.13-.7.1-.72.08-.72.04-.54z" stroke="#000" stroke-width=".05"/><path d="M1738.45 990.07l-1.95-.05.03-1h1.94z"/><path stroke="#000" stroke-width=".05"/><path d="M1610.3 1069.1v1.02h-1.94v-1.03z"/><path stroke="#000" stroke-width=".05"/><path d="M1528.65 630.08V612m0-18.05v-36.13m0-18.07V521.7" stroke="#000" stroke-width="2" fill="none"/><path d="M1529.63 631.08h-1.95v-1.03h1.95zM1529.63 521.7h-1.95v-1.03l.68.03 1.27-.06zM1191.03 1044.96h-1.95v-4.33h1.95zm0-12.98h-1.95v-8.65h1.95zm0-17.3h-1.95v-8.65h1.95zm0-17.3h-1.95v-8.66h1.95zm0-17.3h-1.95v-8.66h1.95zm0-17.3h-1.95v-8.66h1.95zm62.05-32.67h-7.85v-1.94h7.85zm15.7 0h-7.85v-1.94h7.85zm15.7 0h-7.85v-1.94h7.85zm15.7 0h-7.85v-1.94h7.85zm15.7 0h-7.85v-1.94h7.85zm11.77 0h-3.92v-1.94h3.92zm-90.27 0h-2.22v-1.94h2.22z" stroke="#000" stroke-width=".05"/><path d="M1191.03 1045.96h-1.95v-1.03h1.95z"/><path stroke="#000" stroke-width=".05"/><path d="M1328.65 930.1h-1.03v-1.94h1.03z"/><path stroke="#000" stroke-width=".05"/><use xlink:href="#a" transform="matrix(1,0,0,1,1144.956068638393,925.9862126765263) translate(0.005000000000002558 17.4375)"/><use xlink:href="#b" transform="matrix(1,0,0,1,1144.956068638393,925.9862126765263) translate(55.1563671875 17.4375)"/><path d="M1458.53 930.1h-3.88v-1.94h3.88zm15.5 0h-7.75v-1.94h7.75zm15.5 0h-7.75v-1.94h7.75zm15.5 0h-7.75v-1.94h7.75zm16.57-1l-.94.38-1.98.48-2 .15h-3.9v-1.94h3.83l1.78-.14 1.68-.4.8-.33zm8.03-11.92l-.16 2-.48 1.97-.4.94-1.8-.76.33-.8.4-1.68.15-1.76v-4.48h1.95zm0-32.56h-1.95V881h1.95z" stroke="#000" stroke-width=".05"/><path d="M1454.68 930.1h-1.03v-1.94h1.03z"/><path stroke="#000" stroke-width=".05"/><path d="M1529.63 881.03h-1.95V880h1.95z"/><path stroke="#000" stroke-width=".05"/><path d="M1529.63 823.56h-1.95v-15.62h1.95zm0-31.25h-1.95v-31.24h1.95zm0-46.86h-1.95v-8.3h1.95zm6.6-56.3h-1.96v-1.62h1.95z" stroke="#000" stroke-width=".05"/><path d="M1536.22 687.54h-1.95v-1.02h1.95z"/><path stroke="#000" stroke-width=".05"/><path d="M1529.63 824.56h-1.95v-1.03h1.95z"/><path stroke="#000" stroke-width=".05"/><path d="M1453.65 631.08h149.85v46.56h-149.85z" fill="#6db1ff"/><path d="M1460.85 682.92h135.45v3.6h-135.45z" fill="#578ecc"/><path d="M1460.7 648.84h13.95v5.88h-13.95zm3.45 3.96h6.6v7.2h-6.6zm18-3.96h13.95v5.88h-13.95zm3.45 3.96h6.6v7.2h-6.6zm19.2-3.96h13.95v5.88h-13.95zm3.45 3.96h6.6v7.2h-6.6zm18.6-3.96h13.95v5.88h-13.95zm3.45 3.96h6.6v7.2h-6.6z" fill="#fff"/><path d="M1588.5 600.6c5.7 1.08 5.7 1.08 4.65 6.6l-5.4 27.48H1581c-2.85 0-2.85 0-4.5-2.04l5.25-27.6c1.2-5.52 1.2-5.52 6.75-4.44z" fill="#6db1ff"/><path d="M1594.5 570.12c3.45.72 3.45.72 2.85 4.08l-5.7 28.68c-.6 3.36-.6 3.36-4.05 2.76-3.6-.72-3.6-.72-2.85-4.08l5.55-28.68c.6-3.36.6-3.36 4.2-2.76z" fill="#6db1ff"/><path d="M1558.2 634.68h40.2v37.92h-40.2z" fill="#fff"/><path d="M1559.55 636h37.35v35.16h-37.35z" fill="#8ac1ff"/><path d="M1577.55 637.68l-4.5 4.68h2.4l.15 6.48h4.65l-.45-6.48h2.4l-4.65-4.68zM1578.3 668.4l4.5-4.44-2.25-.12-.15-6.48-4.65-.12.45 6.48h-2.55l4.65 4.68zM1579.95 653.4l4.5 4.68.15-2.28h6.45l.3-4.56-6.6.24v-1.68l.15-.72-4.95 4.32zM1576.05 653.4l-4.5-4.56-.15 2.28-6.45-.12-.3 4.56 6.6-.24v1.8l-.15.72 4.95-4.44z" fill="#fff"/><path d="M1468.35 598.2c5.55-1.08 5.55-1.08 6.6 4.44l5.4 27.48c1.2 5.64 1.2 5.64-4.5 6.72s-5.7 1.08-6.75-4.56l-5.4-27.48c-1.05-5.52-1.05-5.52 4.65-6.6z" fill="#6db1ff"/><path d="M1462.35 567.72c3.45-.72 3.45-.72 4.2 2.76l5.55 28.68c.6 3.36.6 3.36-2.85 4.08-3.45.6-3.45.6-4.05-2.76l-5.7-28.68c-.6-3.48-.6-3.48 2.85-4.08z" fill="#6db1ff"/><use xlink:href="#c" transform="matrix(1,0,0,1,1423.6505473420193,686.6375531119011) translate(18.589518229166657 20.514973958333332)"/><use xlink:href="#d" transform="matrix(1,0,0,1,1423.6505473420193,686.6375531119011) translate(62.70800781249999 20.514973958333332)"/><use xlink:href="#e" transform="matrix(1,0,0,1,1423.6505473420193,686.6375531119011) translate(132.5185546875 20.514973958333332)"/><use xlink:href="#f" transform="matrix(1,0,0,1,1423.6505473420193,686.6375531119011) translate(73.46516927083333 45.520833333333336)"/><path d="M1237.2 1020.12h62.8v24.14h-62.8zm32 24.14h30.8v109.48h-30.8zm-32 109.48h62.8v19.72h-31.6l-6-12.24h-25.2zM1101 1045.96h166.2v106.25H1101zm76 108.12h15.8v7.82H1177zm-69.4 9.7h154l13 26.34H1100z" fill="#6db1ff"/><path d="M1128.8 1168.02h4.2v3.4h-4.2zm7 0h4.2v3.4h-4.2zm7 0h4.2v3.4h-4.2zm7 0h4.2v3.4h-4.2zm7 0h4.2v3.4h-4.2zm7 0h4.2v3.4h-4.2zm7 0h4.2v3.4h-4.2zm7 0h4.2v3.4h-4.2zm7 0h4.2v3.4h-4.2zm7 0h4.2v3.4h-4.2zm7 0h4.2v3.4h-4.2zm7 0h4.2v3.4h-4.2zm7 0h4.2v3.4h-4.2zm7 0h4.2v3.4h-4.2zm7 0h4.2v3.4h-4.2zm6.8 0h4.2v3.4h-4.2zm-88.2 5.78h4.2v3.4h-4.2zm7.4 0h4.2v3.4h-4.2zm7.4 0h4.2v3.4h-4.2zm7.4 0h4.2v3.4h-4.2zm7.4 0h4.2v3.4h-4.2zm7.4 0h4.2v3.4h-4.2zm7.4 0h4.2v3.4h-4.2zm7.4 0h4.2v3.4h-4.2zm7.4 0h4.2v3.4h-4.2zm7.4 0h4.2v3.4h-4.2zm6.4 0h4.2v3.4h-4.2zm-59.2 9.52h55.2v5.27h-55.2zm-50.6-130.9h151.6v95.03h-151.6zM1280.4 1029.13a1.02 1.02 0 0 1 1.02-1.02h11.56a1.02 1.02 0 0 1 1.02 1.03 1.02 1.02 0 0 1-1.02 1.02h-11.56a1.02 1.02 0 0 1-1.02-1.02zm0 5.6a1.02 1.02 0 0 1 1.02-1h11.56a1.02 1.02 0 0 1 1.02 1 1.02 1.02 0 0 1-1.02 1.03h-11.56a1.02 1.02 0 0 1-1.02-1.02z" fill="#fff"/><use xlink:href="#g" transform="matrix(1,0,0,1,1070,1190.12) translate(115.85221354166667 22.517903645833336)"/><path d="M1730.97 908.86l12.6-.24 21.68 80.4h-50.63l16.36-80.16z" fill="#6db1ff"/><path d="M1733.9 895.66h6.75v12.24h-6.75v-12.24z" fill="#578ecc"/><path d="M1743.8 890.98c0 3.6-3 6.6-6.6 6.6-3.6 0-6.53-3-6.53-6.6 0-3.6 2.93-6.6 6.53-6.6s6.6 3 6.6 6.6z" fill="#578ecc"/><path d="M1750.63 883.06c2.02 1.8 3.14 5.28 3 8.88-.16 3.6-2.48 7.08-2.48 7.08s-1.73 1.68-.3-1.08c1.5-2.76 1.8-3.84 2.03-4.8.14-.96.3-.72.22-2.76-.07-2.04-.97-4.2-1.27-4.44-.3-.24-1.58-2.28-1.58-2.28l.38-.6zM1724 882.82c-1.88 1.92-2.92 5.4-2.78 9 .15 3.6 2.33 7.08 2.33 7.08s1.65 1.56.23-1.2c-1.36-2.64-1.65-3.84-1.8-4.8-.23-.96-.3-.72-.3-2.76.07-1.92.97-4.08 1.2-4.32.3-.36 1.5-2.4 1.5-2.4l-.38-.6zM1758.5 876.7c4.42 3.24 6.9 9.48 6.6 15.84-.38 6.36-5.55 12.48-5.55 12.48s-3.75 2.88-.52-1.92c3.14-4.8 3.9-6.84 4.35-8.52.44-1.68.67-1.32.52-4.92-.15-3.48-2.1-7.32-2.78-7.8-.67-.48-3.52-4.08-3.52-4.08l.9-1.08zM1717.25 875.38c-4.58 3.48-7.05 10.08-6.67 16.8.37 6.72 5.62 13.2 5.62 13.2s3.75 3 .52-2.04c-3.22-5.16-4.05-7.32-4.42-9.12-.45-1.8-.75-1.32-.6-5.16.22-3.72 2.17-7.68 2.85-8.28.67-.48 3.53-4.2 3.53-4.2l-.83-1.2z" fill="#8ac1ff"/><path d="M1764.72 870.1c6.68 4.56 10.36 13.2 9.83 22.08-.52 8.76-8.25 17.28-8.25 17.28s-5.55 4.08-.75-2.64c4.73-6.72 5.85-9.6 6.53-11.88.6-2.4.97-1.8.75-6.84-.23-4.92-3.15-10.08-4.13-10.92-.98-.72-5.25-5.64-5.25-5.64l1.27-1.44zM1710.8 869.14c-6.97 4.68-10.8 13.44-10.27 22.56.52 9 8.62 17.76 8.62 17.76s5.77 4.08.82-2.76c-4.94-6.96-6.14-9.84-6.82-12.24-.68-2.4-1.05-1.8-.83-6.84.23-5.16 3.3-10.44 4.36-11.16 1.04-.72 5.47-5.76 5.47-5.76l-1.35-1.56z" fill="#8ac1ff"/><use xlink:href="#h" transform="matrix(1,0,0,1,1670,989.1375531119011) translate(9.001627604166664 22.517903645833336)"/><use xlink:href="#i" transform="matrix(1,0,0,1,1670,989.1375531119011) translate(98.54036458333334 22.517903645833336)"/><path d="M1603.22 1070.12h13.56c12.9 0 23.28 1.98 23.28 4.5v81c0 2.52-10.38 4.5-23.28 4.5h-13.56c-12.84 0-23.22-1.98-23.22-4.5v-81c0-2.52 10.38-4.5 23.22-4.5z" fill="#6db1ff"/><path d="M1584.2 1077.32h51.66v73.53h-51.66v-73.53zM1601.36 1073.18h16.74c.42 0 .78.27.78.54s-.36.54-.78.54h-16.74c-.42 0-.78-.27-.78-.54s.36-.54.78-.54zM1603.52 1155.8c0 .63-.48 1.08-1.14 1.08-.6 0-1.14-.45-1.14-1.08 0-.54.54-1.08 1.14-1.08.66 0 1.14.54 1.14 1.08zM1611.8 1155.8c0 .63-.48 1.08-1.14 1.08-.6 0-1.08-.45-1.08-1.08 0-.54.48-1.08 1.08-1.08.66 0 1.14.54 1.14 1.08zM1619.66 1155.8c0 .63-.54 1.08-1.14 1.08-.66 0-1.14-.45-1.14-1.08 0-.54.48-1.08 1.14-1.08.6 0 1.14.54 1.14 1.08z" fill="#fff"/><path d="M1585.64 1078.58h48.72v70.92h-48.72v-70.92z" fill="gray"/><use xlink:href="#j" transform="matrix(1,0,0,1,1550,1160.12) translate(31.083821614583332 20.514973958333332)"/><use xlink:href="#k" transform="matrix(1,0,0,1,1550,1160.12) translate(28.964680989583332 45.520833333333336)"/><path d="M1835.15 1070.12h118.05c9.15 0 9.15 0 9.15 10.08v65.76c0 10.08 0 10.08-9.15 10.08h-118.05c-9.15 0-9.15 0-9.15-10.08v-65.76c0-10.08 0-10.08 9.15-10.08z" fill="#6db1ff"/><path d="M1835.15 1078.52h118.8v66.6h-118.8v-66.6z" fill="#fff"/><path d="M1836.65 1081.04h115.8v61.56h-115.8v-61.56z" fill="gray"/><path d="M1820 1175.84h149.85v14.28H1820v-14.28z" fill="#6db1ff"/><path d="M1860.95 1159.16h103.65l5.25 16.92H1866.2l-5.25-16.92z" fill="#6db1ff"/><path d="M1927.55 1159.16h-102.3l-5.25 16.8h102.3l5.25-16.8z" fill="#6db1ff"/><path d="M1868.9 1162.4h89.7l3.6 11.28h-89.7l-3.6-11.28z" fill="#fff"/><path d="M1905.8 1162.4h-75.3l-3 11.28h75.3l3-11.28z" fill="#fff"/><use xlink:href="#l" transform="matrix(1,0,0,1,1790,1190.12) translate(34.80094401041666 22.517903645833336)"/><use xlink:href="#m" transform="matrix(1,0,0,1,1790,1190.12) translate(108.16357421875 22.517903645833336)"/><path d="M1451.43 484c-14.18 0-25.68-10.75-25.68-24 0-10.6 6.95-19.55 17.74-22.82-.63-31.18 42.16-37.18 59.28-25.18 8.56-18 51.35-12 51.35 6 25.68-6 51.35 18 34.23 48 17.12 24 0 54-34.23 42-8.56 15.6-42.8 15.6-51.35 0-17.12 12-51.35 6-51.35-24z" stroke="#000" stroke-width="2" fill="#6db1ff"/><use xlink:href="#n" transform="matrix(1,0,0,1,1430.7507444155794,405) translate(41.254069010416664 61.270833333333336)"/><path d="M1453.65 824.56h149.85v46.56h-149.85z" fill="#6db1ff"/><path d="M1460.85 876.4h135.45v3.6h-135.45z" fill="#578ecc"/><path d="M1460.7 842.32h13.95v5.88h-13.95zm3.45 3.96h6.6v7.2h-6.6zm18-3.96h13.95v5.88h-13.95zm3.45 3.96h6.6v7.2h-6.6zm19.2-3.96h13.95v5.88h-13.95zm3.45 3.96h6.6v7.2h-6.6zm18.6-3.96h13.95v5.88h-13.95zm3.45 3.96h6.6v7.2h-6.6z" fill="#fff"/><path d="M1588.5 794.08c5.7 1.08 5.7 1.08 4.65 6.6l-5.4 27.48H1581c-2.85 0-2.85 0-4.5-2.04l5.25-27.6c1.2-5.52 1.2-5.52 6.75-4.44z" fill="#6db1ff"/><path d="M1594.5 763.6c3.45.72 3.45.72 2.85 4.08l-5.7 28.68c-.6 3.36-.6 3.36-4.05 2.76-3.6-.72-3.6-.72-2.85-4.08l5.55-28.68c.6-3.36.6-3.36 4.2-2.76z" fill="#6db1ff"/><path d="M1558.2 828.16h40.2v37.92h-40.2z" fill="#fff"/><path d="M1559.55 829.48h37.35v35.16h-37.35z" fill="#8ac1ff"/><path d="M1577.55 831.16l-4.5 4.68h2.4l.15 6.48h4.65l-.45-6.48h2.4l-4.65-4.68zM1578.3 861.88l4.5-4.44-2.25-.12-.15-6.48-4.65-.12.45 6.48h-2.55l4.65 4.68zM1579.95 846.88l4.5 4.68.15-2.28h6.45l.3-4.56-6.6.24v-1.68l.15-.72-4.95 4.32zM1576.05 846.88l-4.5-4.56-.15 2.28-6.45-.12-.3 4.56 6.6-.24v1.8l-.15.72 4.95-4.44z" fill="#fff"/><path d="M1468.35 791.68c5.55-1.08 5.55-1.08 6.6 4.44l5.4 27.48c1.2 5.64 1.2 5.64-4.5 6.72s-5.7 1.08-6.75-4.56l-5.4-27.48c-1.05-5.52-1.05-5.52 4.65-6.6z" fill="#6db1ff"/><path d="M1462.35 761.2c3.45-.72 3.45-.72 4.2 2.76l5.55 28.68c.6 3.36.6 3.36-2.85 4.08-3.45.6-3.45.6-4.05-2.76l-5.7-28.68c-.6-3.48-.6-3.48 2.85-4.08z" fill="#6db1ff"/><use xlink:href="#o" transform="matrix(1,0,0,1,1423.6505473420193,880.1199999999999) translate(67.32470703125 22.517903645833336)"/><path d="M1725.84 930.1h-3.86v-1.94h3.86zm-11.58 0h-7.7v-1.94h7.7zm-15.43 0h-7.7v-1.94h7.7zm-15.43 0h-7.72v-1.94h7.72zm-15.43 0h-7.72v-1.94h7.72zm-15.43 0h-7.72v-1.94h7.72zm-15.44 0h-7.7v-1.94h7.7zm-15.43 0h-7.72v-1.94h7.72zm-15.43 0h-7.72v-1.94h7.72zm-15.43 0h-7.7v-1.94h7.7zm-15.43 0h-7.7v-1.94h7.7zm-15.43 0h-7.72v-1.94h7.72zm-22.7-2.48l1.7.4 1.75.14h3.8v1.95h-3.9l-1.98-.14-1.98-.48-.94-.4.75-1.8zm-7.6-10.52l.12 1.76.4 1.68.34.8-1.8.75-.4-.95-.47-1.98-.15-2v-4.55h1.95zm0-32.48h-1.96V881h1.95z" stroke="#000" stroke-width=".05"/><path d="M1726.64 930.1h-.83v-1.94h1.24z"/><path stroke="#000" stroke-width=".05"/><path d="M1529.63 881.03h-1.95V880h1.95z"/><path stroke="#000" stroke-width=".05"/><path d="M1529.13 689.13h-.95v-2.1h.95z" stroke="#333" stroke-width=".05" fill="#333"/><path d="M1529.13 687.03h-.95v-.5h.95z" fill="#333"/><path stroke="#333" stroke-width=".05" fill="#333"/><path fill="#333"/><path stroke="#333" stroke-width=".05" fill="#333"/><path d="M1328.65 906.64h125v37.7h-125z" fill="#6db1ff"/><path d="M1334.65 948.67h112.88v2.92h-112.88z" fill="#578ecc"/><path d="M1415.78 909.56h33.5v30.74h-33.5z" stroke="#fff" stroke-width="2.25" fill="#8ac1ff"/><path d="M1417.28 914.96l3.12-3.06v1.8h4.38l16.75 20.16h2.75v-1.93l3.12 3.06-3.12 3v-1.7h-4.25l-16.75-20.17h-2.75v1.85zm15 12.33l-7.5 8.86h-4.38v1.8l-3.12-3.02 3.12-3.06v1.8h2.88l7.25-8.55zm15.25-12.2l-3.13 3v-1.74h-2.87l-7.25 8.55-1.75-2.15 7.62-8.82h4.25v-1.9zM1337.65 913.3h11.5v4.86h-11.5zm3.25 4.86h5v3.6h-5zm-3.25 11.92h11.5v4.86h-11.5zm3.25 4.86h5v3.6h-5zm15.5-21.64h11.5v4.86h-11.5zm3.25 4.86h5v3.6h-5zm-3.25 11.92h11.5v4.86h-11.5zm3.25 4.86h5v3.6h-5zm15.5-21.64h11.5v4.86h-11.5zm3.25 4.86h5v3.6h-5zm-3.25 11.92h11.5v4.86h-11.5zm3.25 4.86h5v3.6h-5zm15.5-21.64h11.5v4.86h-11.5zm3.25 4.86h5v3.6h-5zm-3.25 11.92h11.5v4.86h-11.5zm3.25 4.86h5v3.6h-5z" fill="#fff"/><use xlink:href="#p" transform="matrix(1,0,0,1,1298.6505473420193,951.6375531119011) translate(59.61800130208333 22.517903645833336)"/><path d="M1400 1040.12h70v120h-70z" fill="#6db1ff"/><path d="M1425.55 1123.52h37.87v2.16h-37.87zm-.28 6h38.57v3.48h-38.57zm.14 7.56H1464v3.48h-38.57zM1448.93 1098.5v-.06a4.7 4.7 0 0 1 4.7-4.7 4.7 4.7 0 0 1 4.68 4.7 4.7 4.7 0 0 1-4.68 4.7 4.7 4.7 0 0 1-4.7-4.7v-.05" fill="#fff"/><path d="M1450.6 1098.47v-.03a2.87 2.87 0 0 1 2.88-2.87 2.87 2.87 0 0 1 2.87 2.87 2.87 2.87 0 0 1-2.87 2.87 2.87 2.87 0 0 1-2.87-2.86v-.03" fill="#8ac1ff"/><g><use xlink:href="#q" transform="matrix(1,0,0,1,1370,1160.12) translate(10.6044921875 21.5478515625)"/><use xlink:href="#r" transform="matrix(1,0,0,1,1370,1160.12) translate(103.5400390625 21.5478515625)"/></g><path d="M1474.8 1101.1h-3.8v-1.95h3.8zm15.22 0h-7.6v-1.95h7.6zm15.22 0h-7.6v-1.95h7.6zm16.36-1.03l-.94.4-1.98.47-2 .15h-3.83v-1.95h3.76l1.78-.14 1.68-.4.8-.33zm8.03-11.9l-.16 1.98-.48 1.98-.4.94-1.8-.74.33-.8.4-1.7.15-1.75v-3.9h1.95zm0-11.9h-1.95v-7.9h1.95zm0-15.8h-1.95v-7.9h1.95zm0-15.8h-1.95v-7.9h1.95zm0-15.8h-1.95v-7.9h1.95zm0-15.8h-1.95v-7.9h1.95zm0-15.8h-1.95v-7.9h1.95zm0-15.8h-1.95v-7.9h1.95zm0-15.8h-1.95v-7.9h1.95zm0-15.8h-1.95v-7.9h1.95zm0-15.82h-1.95v-7.9h1.95zm0-15.8h-1.95v-7.9h1.95z" stroke="#333" stroke-width=".05" fill="#333"/><path d="M1471.03 1101.1H1470v-1.95h1.03z" fill="#333"/><path stroke="#333" stroke-width=".05" fill="#333"/><path d="M1529.1 884.62h-.9l.45-1.38z" fill="#333"/><path d="M1530.12 884.62h-2.94l1.47-4.54z" stroke="#333" stroke-width=".05" fill="#333"/><defs><path d="M458 0L52-1490h194c108 439 233 855 324 1313 92-459 221-873 331-1313h216c110 438 234 854 330 1307 92-455 216-869 323-1307h196L1558 0h-221l-256-944c-26-95-50-200-73-331-22 122-44 223-73 331L680 0H458" id="s"/><path d="M158 0v-1118h180V0H158zm91-1301c-68 0-125-53-125-119s57-119 125-119c69 0 126 53 126 119s-57 119-126 119" id="t"/><path d="M158 0v-1118h174v172h12c41-113 157-188 290-188 26 0 70 2 91 3v181c-11-2-60-10-108-10-161 0-279 109-279 260V0H158" id="u"/><path d="M628 24c-324 0-524-230-524-574 0-343 198-582 503-582 237 0 487 146 487 559v75H286c9 234 145 362 343 362 132 0 231-58 273-172l174 48C1024-91 857 24 628 24zM287-650h624c-17-190-120-322-304-322-192 0-309 151-320 322" id="v"/><path d="M577 24c-279 0-473-224-473-580 0-354 195-576 474-576 218 0 287 134 324 193h14v-551h180V0H922v-173h-20C865-111 790 24 577 24zm27-161c203 0 314-172 314-421 0-247-108-413-314-413-212 0-317 181-317 413 0 235 108 421 317 421" id="w"/><g id="a"><use transform="matrix(0.0087890625,0,0,0.0087890625,0,0)" xlink:href="#s"/><use transform="matrix(0.0087890625,0,0,0.0087890625,17.736328125,0)" xlink:href="#t"/><use transform="matrix(0.0087890625,0,0,0.0087890625,22.095703125,0)" xlink:href="#u"/><use transform="matrix(0.0087890625,0,0,0.0087890625,28.5732421875,0)" xlink:href="#v"/><use transform="matrix(0.0087890625,0,0,0.0087890625,39.0673828125,0)" xlink:href="#w"/></g><path d="M180 0v-1490h190v1322h690V0H180" id="x"/><path d="M338-670V0H158v-1118h173l1 207c72-158 192-221 342-221 226 0 378 139 378 422V0H872v-695c0-172-96-275-252-275-161 0-282 109-282 300" id="y"/><path d="M158 0v-1490h180v865h22l478-493h223L593-638 1096 0H865L456-523 338-412V0H158" id="z"/><g id="b"><use transform="matrix(0.0087890625,0,0,0.0087890625,0,0)" xlink:href="#x"/><use transform="matrix(0.0087890625,0,0,0.0087890625,10.177734375,0)" xlink:href="#t"/><use transform="matrix(0.0087890625,0,0,0.0087890625,14.537109375,0)" xlink:href="#y"/><use transform="matrix(0.0087890625,0,0,0.0087890625,25.171875,0)" xlink:href="#z"/></g><path fill="#333" d="M783 20c-382 0-661-292-661-764 0-473 279-766 661-766 302 0 548 182 601 489h-190c-42-204-217-313-411-313-268 0-476 208-476 590 0 381 209 588 476 588 195 0 369-110 411-313h190c-52 303-296 489-601 489" id="A"/><path fill="#333" d="M613 24c-304 0-509-231-509-576 0-350 205-580 509-580 305 0 511 230 511 580 0 345-206 576-511 576zm0-161c226 0 329-195 329-415 0-222-103-419-329-419-223 0-326 196-326 419 0 220 103 415 326 415" id="B"/><path fill="#333" d="M65 0l393-574-370-544h210c88 136 192 297 267 435 67-142 176-302 264-435h206L661-564 1053 0H844c-94-144-206-310-287-458C484-308 366-142 273 0H65" id="C"/><g id="c"><use transform="matrix(0.010091145833333334,0,0,0.010091145833333334,0,0)" xlink:href="#A"/><use transform="matrix(0.010091145833333334,0,0,0.010091145833333334,15.096354166666668,0)" xlink:href="#B"/><use transform="matrix(0.010091145833333334,0,0,0.010091145833333334,27.024088541666668,0)" xlink:href="#C"/></g><path fill="#333" d="M180 0v-1490h510c348 0 508 194 508 460 0 198-88 351-276 417L1256 0h-220L726-579c-117 2-238 0-356 1V0H180zm190-747h312c235 0 327-108 327-283 0-177-92-293-329-293H370v576" id="D"/><path fill="#333" d="M537 14c-226 0-379-139-379-422v-710h180v695c0 172 97 275 253 275 160 0 281-109 281-300v-670h181V0H879v-209C806-46 684 14 537 14" id="E"/><path fill="#333" d="M598-1118v154H368v674c0 100 37 144 132 144 23 0 62-6 92-12L629-6c-37 13-88 20-134 20-193 0-307-107-307-290v-688H20v-154h168v-266h180v266h230" id="F"/><path fill="#333" d="M628 24c-324 0-524-230-524-574 0-343 198-582 503-582 237 0 487 146 487 559v75H286c9 234 145 362 343 362 132 0 231-58 273-172l174 48C1024-91 857 24 628 24zM287-650h624c-17-190-120-322-304-322-192 0-309 151-320 322" id="G"/><path fill="#333" d="M158 0v-1118h174v172h12c41-113 157-188 290-188 26 0 70 2 91 3v181c-11-2-60-10-108-10-161 0-279 109-279 260V0H158" id="H"/><g id="d"><use transform="matrix(0.010091145833333334,0,0,0.010091145833333334,0,0)" xlink:href="#D"/><use transform="matrix(0.010091145833333334,0,0,0.010091145833333334,12.997395833333334,0)" xlink:href="#B"/><use transform="matrix(0.010091145833333334,0,0,0.010091145833333334,25.389322916666668,0)" xlink:href="#E"/><use transform="matrix(0.010091145833333334,0,0,0.010091145833333334,37.609700520833336,0)" xlink:href="#F"/><use transform="matrix(0.010091145833333334,0,0,0.010091145833333334,44.1689453125,0)" xlink:href="#G"/><use transform="matrix(0.010091145833333334,0,0,0.010091145833333334,56.2177734375,0)" xlink:href="#H"/></g><path fill="#333" d="M218-607c0-325 108-727 258-974h175c-155 315-250 682-250 974 0 265 78 531 250 886H476C306-10 218-315 218-607" id="I"/><path fill="#333" d="M180 0v-1490h528c311 0 458 177 458 395 0 191-114 278-244 313v14c139 9 302 137 302 371 0 225-148 397-499 397H180zm190-168h350c232 0 321-102 321-231 0-149-120-277-311-277H370v508zm0-668h328c160 0 286-101 286-255 0-129-87-231-280-231H370v486" id="J"/><path fill="#333" d="M158 0v-1118h180V0H158zm91-1301c-68 0-125-53-125-119s57-119 125-119c69 0 126 53 126 119s-57 119-126 119" id="K"/><path fill="#333" d="M611 442c-248 0-391-105-460-228l146-94c47 65 117 165 314 165 178 0 307-82 307-266v-224h-17C863-141 792-18 576-18c-268 0-472-195-472-546 0-346 197-568 476-568 216 0 288 133 326 193h17v-179h175V29c0 289-215 413-487 413zm-5-620c203 0 314-146 314-390 0-237-108-403-314-403-213 0-319 180-319 403 0 230 109 390 319 390" id="L"/><g id="e"><use transform="matrix(0.010091145833333334,0,0,0.010091145833333334,0,0)" xlink:href="#I"/><use transform="matrix(0.010091145833333334,0,0,0.010091145833333334,7.5380859375,0)" xlink:href="#J"/><use transform="matrix(0.010091145833333334,0,0,0.010091145833333334,21.060221354166668,0)" xlink:href="#H"/><use transform="matrix(0.010091145833333334,0,0,0.010091145833333334,29.163411458333336,0)" xlink:href="#K"/><use transform="matrix(0.010091145833333334,0,0,0.010091145833333334,34.16861979166667,0)" xlink:href="#L"/><use transform="matrix(0.010091145833333334,0,0,0.010091145833333334,46.84309895833334,0)" xlink:href="#G"/></g><path fill="#333" d="M180 0v-1490h270l367 940c28 72 75 218 110 339 35-117 81-264 110-339l362-940h271V0h-187c2-448-5-837 7-1287-157 497-311 829-483 1287H842C666-458 514-784 354-1284c12 438 5 843 7 1284H180" id="M"/><path fill="#333" d="M577 24c-279 0-473-224-473-580 0-354 195-576 474-576 218 0 287 134 324 193h14v-551h180V0H922v-173h-20C865-111 790 24 577 24zm27-161c203 0 314-172 314-421 0-247-108-413-314-413-212 0-317 181-317 413 0 235 108 421 317 421" id="N"/><path fill="#333" d="M96 279C273-86 346-350 346-607c0-292-95-659-250-974h175c150 246 258 650 258 974 0 297-91 602-258 886H96" id="O"/><g id="f"><use transform="matrix(0.010091145833333334,0,0,0.010091145833333334,0,0)" xlink:href="#M"/><use transform="matrix(0.010091145833333334,0,0,0.010091145833333334,18.668619791666668,0)" xlink:href="#B"/><use transform="matrix(0.010091145833333334,0,0,0.010091145833333334,31.060546875000004,0)" xlink:href="#N"/><use transform="matrix(0.010091145833333334,0,0,0.010091145833333334,43.71484375,0)" xlink:href="#G"/><use transform="matrix(0.010091145833333334,0,0,0.010091145833333334,55.531575520833336,0)" xlink:href="#O"/></g><path fill="#333" d="M180 0v-1490h510c348 0 508 209 508 474 0 266-160 477-507 477H370V0H180zm190-706h312c236 0 327-133 327-310 0-176-91-307-329-307H370v617" id="P"/><g id="g"><use transform="matrix(0.010091145833333334,0,0,0.010091145833333334,0,0)" xlink:href="#P"/><use transform="matrix(0.010091145833333334,0,0,0.010091145833333334,13.19921875,0)" xlink:href="#A"/></g><path fill="#333" d="M458 0L52-1490h194c108 439 233 855 324 1313 92-459 221-873 331-1313h216c110 438 234 854 330 1307 92-455 216-869 323-1307h196L1558 0h-221l-256-944c-26-95-50-200-73-331-22 122-44 223-73 331L680 0H458" id="Q"/><path fill="#333" d="M338-1490V0H158v-1490h180" id="R"/><path fill="#333" d="M538 24C308 24 148-78 108-271l171-41c32 123 123 178 257 178 156 0 256-77 256-169 0-77-54-128-164-154l-186-44c-203-48-300-148-300-305 0-192 176-326 414-326 230 0 351 112 402 269l-163 42c-31-80-94-158-238-158-133 0-233 69-233 162 0 83 57 129 188 160l169 40c203 48 298 149 298 302 0 196-179 339-441 339" id="S"/><g id="h"><use transform="matrix(0.010091145833333334,0,0,0.010091145833333334,0,0)" xlink:href="#Q"/><use transform="matrix(0.010091145833333334,0,0,0.010091145833333334,20.363932291666668,0)" xlink:href="#K"/><use transform="matrix(0.010091145833333334,0,0,0.010091145833333334,25.369140625,0)" xlink:href="#H"/><use transform="matrix(0.010091145833333334,0,0,0.010091145833333334,32.80631510416667,0)" xlink:href="#G"/><use transform="matrix(0.010091145833333334,0,0,0.010091145833333334,44.85514322916667,0)" xlink:href="#R"/><use transform="matrix(0.010091145833333334,0,0,0.010091145833333334,49.8603515625,0)" xlink:href="#G"/><use transform="matrix(0.010091145833333334,0,0,0.010091145833333334,61.9091796875,0)" xlink:href="#S"/><use transform="matrix(0.010091145833333334,0,0,0.010091145833333334,72.81770833333334,0)" xlink:href="#S"/></g><path fill="#333" d="M52 0l541-1490h220L1361 0h-200l-149-416H398L254 0H52zm404-582h497c-103-290-145-390-251-756-108 377-145 460-246 756" id="T"/><g id="i"><use transform="matrix(0.010091145833333334,0,0,0.010091145833333334,0,0)" xlink:href="#T"/><use transform="matrix(0.010091145833333334,0,0,0.010091145833333334,14.2587890625,0)" xlink:href="#P"/></g><path fill="#333" d="M657 26c-323 0-524-166-541-416h195c15 169 171 246 346 246 202 0 356-106 356-265 5-203-294-238-475-293-239-73-380-191-380-389 0-252 224-419 512-419 294 0 499 171 508 396H992c-17-145-151-228-328-228-193 0-321 102-321 242 0 156 175 211 284 241l149 41c160 44 422 134 422 412 0 244-197 432-541 432" id="U"/><path fill="#333" d="M158 0v-1118h175l1 205c55-151 181-225 313-225 147 0 245 90 285 228 53-141 190-228 352-228 194 0 352 125 352 384V0h-181v-749c0-161-105-225-225-225-151 0-243 103-243 244V0H807v-767c0-124-93-207-219-207-131 0-250 92-250 270V0H158" id="V"/><path fill="#333" d="M471 26C259 26 90-98 90-318c0-256 228-303 435-329 202-27 287-16 287-108 0-139-79-219-234-219-161 0-248 86-283 164l-173-57c86-203 278-265 451-265 150 0 419 46 419 395V0H815v-152h-12C765-73 660 26 471 26zm31-159c199 0 310-134 310-271v-155c-30 35-226 55-295 64-131 17-246 59-246 186 0 116 97 176 231 176" id="W"/><g id="j"><use transform="matrix(0.010091145833333334,0,0,0.010091145833333334,0,0)" xlink:href="#U"/><use transform="matrix(0.010091145833333334,0,0,0.010091145833333334,13.259765625,0)" xlink:href="#V"/><use transform="matrix(0.010091145833333334,0,0,0.010091145833333334,31.363281250000004,0)" xlink:href="#W"/><use transform="matrix(0.010091145833333334,0,0,0.010091145833333334,42.968098958333336,0)" xlink:href="#H"/><use transform="matrix(0.010091145833333334,0,0,0.010091145833333334,51.0712890625,0)" xlink:href="#F"/></g><path fill="#333" d="M338-670V0H158v-1490h180v566c73-149 190-208 336-208 226 0 379 139 379 422V0H872v-695c0-172-96-275-252-275-161 0-282 109-282 300" id="X"/><path fill="#333" d="M338-670V0H158v-1118h173l1 207c72-158 192-221 342-221 226 0 378 139 378 422V0H872v-695c0-172-96-275-252-275-161 0-282 109-282 300" id="Y"/><g id="k"><use transform="matrix(0.010091145833333334,0,0,0.010091145833333334,0,0)" xlink:href="#P"/><use transform="matrix(0.010091145833333334,0,0,0.010091145833333334,13.19921875,0)" xlink:href="#X"/><use transform="matrix(0.010091145833333334,0,0,0.010091145833333334,25.419596354166668,0)" xlink:href="#B"/><use transform="matrix(0.010091145833333334,0,0,0.010091145833333334,37.8115234375,0)" xlink:href="#Y"/><use transform="matrix(0.010091145833333334,0,0,0.010091145833333334,50.021809895833336,0)" xlink:href="#G"/></g><path fill="#333" d="M180 0v-1490h190v1322h690V0H180" id="Z"/><path fill="#333" d="M158 418v-1536h174v179h20c37-59 106-193 324-193 279 0 474 222 474 576 0 356-194 580-473 580-213 0-288-135-325-197h-14v591H158zm492-555c209 0 317-186 317-421 0-232-105-413-317-413-206 0-314 166-314 413 0 249 111 421 314 421" id="aa"/><g id="l"><use transform="matrix(0.010091145833333334,0,0,0.010091145833333334,0,0)" xlink:href="#Z"/><use transform="matrix(0.010091145833333334,0,0,0.010091145833333334,11.685546875,0)" xlink:href="#W"/><use transform="matrix(0.010091145833333334,0,0,0.010091145833333334,23.290364583333336,0)" xlink:href="#aa"/><use transform="matrix(0.010091145833333334,0,0,0.010091145833333334,35.944661458333336,0)" xlink:href="#F"/><use transform="matrix(0.010091145833333334,0,0,0.010091145833333334,42.503906250000014,0)" xlink:href="#B"/><use transform="matrix(0.010091145833333334,0,0,0.010091145833333334,54.89583333333334,0)" xlink:href="#aa"/></g><path fill="#333" d="M645 0H180v-1490h484c435 0 692 280 692 742 0 466-257 748-711 748zM370-168h263c363 0 539-218 539-580 0-358-176-574-521-574H370v1154" id="ab"/><path fill="#333" d="M481 0L54-1118h197c107 314 236 620 325 951 87-331 217-637 324-951h197L670 0H481" id="ac"/><path fill="#333" d="M613 24c-304 0-509-231-509-576 0-350 205-580 509-580 216 0 392 114 453 309l-173 49c-33-115-133-197-280-197-223 0-326 196-326 419 0 220 103 415 326 415 150 0 252-85 285-206l172 49C1010-95 832 24 613 24" id="ad"/><g id="m"><use transform="matrix(0.010091145833333334,0,0,0.010091145833333334,0,0)" xlink:href="#ab"/><use transform="matrix(0.010091145833333334,0,0,0.010091145833333334,14.914713541666668,0)" xlink:href="#G"/><use transform="matrix(0.010091145833333334,0,0,0.010091145833333334,26.559895833333336,0)" xlink:href="#ac"/><use transform="matrix(0.010091145833333334,0,0,0.010091145833333334,38.1748046875,0)" xlink:href="#K"/><use transform="matrix(0.010091145833333334,0,0,0.010091145833333334,43.180013020833336,0)" xlink:href="#ad"/><use transform="matrix(0.010091145833333334,0,0,0.010091145833333334,54.986653645833336,0)" xlink:href="#G"/></g><path fill="#333" d="M370-1490V0H180v-1490h190" id="ae"/><g id="n"><use transform="matrix(0.010091145833333334,0,0,0.010091145833333334,0,0)" xlink:href="#ae"/><use transform="matrix(0.010091145833333334,0,0,0.010091145833333334,5.550130208333334,0)" xlink:href="#Y"/><use transform="matrix(0.010091145833333334,0,0,0.010091145833333334,17.760416666666668,0)" xlink:href="#F"/><use transform="matrix(0.010091145833333334,0,0,0.010091145833333334,24.319661458333336,0)" xlink:href="#G"/><use transform="matrix(0.010091145833333334,0,0,0.010091145833333334,36.368489583333336,0)" xlink:href="#H"/><use transform="matrix(0.010091145833333334,0,0,0.010091145833333334,44.4716796875,0)" xlink:href="#Y"/><use transform="matrix(0.010091145833333334,0,0,0.010091145833333334,56.681966145833336,0)" xlink:href="#G"/><use transform="matrix(0.010091145833333334,0,0,0.010091145833333334,68.73079427083334,0)" xlink:href="#F"/></g><path fill="#333" d="M98-1322v-168h1126v168H757V0H567v-1322H98" id="af"/><path fill="#333" d="M798-719v166H144v-166h654" id="ag"/><path fill="#333" d="M158 0v-1490h180v865h22l478-493h223L593-638 1096 0H865L456-523 338-412V0H158" id="ah"/><g id="o"><use transform="matrix(0.010091145833333334,0,0,0.010091145833333334,0,0)" xlink:href="#af"/><use transform="matrix(0.010091145833333334,0,0,0.010091145833333334,13.340494791666668,0)" xlink:href="#P"/><use transform="matrix(0.010091145833333334,0,0,0.010091145833333334,25.601236979166668,0)" xlink:href="#ag"/><use transform="matrix(0.010091145833333334,0,0,0.010091145833333334,35.10709635416667,0)" xlink:href="#Z"/><use transform="matrix(0.010091145833333334,0,0,0.010091145833333334,46.79264322916667,0)" xlink:href="#K"/><use transform="matrix(0.010091145833333334,0,0,0.010091145833333334,51.7978515625,0)" xlink:href="#Y"/><use transform="matrix(0.010091145833333334,0,0,0.010091145833333334,64.00813802083334,0)" xlink:href="#ah"/></g><path fill="#333" d="M409 0L70-1118h191c89 329 165 560 243 925 75-353 154-601 240-925h192c85 325 161 564 235 922 77-354 157-598 244-922h191L1267 0h-179c-86-307-176-590-250-913C763-588 675-308 588 0H409" id="ai"/><g id="p"><use transform="matrix(0.010091145833333334,0,0,0.010091145833333334,0,0)" xlink:href="#U"/><use transform="matrix(0.010091145833333334,0,0,0.010091145833333334,13.259765625,0)" xlink:href="#ai"/><use transform="matrix(0.010091145833333334,0,0,0.010091145833333334,30.172526041666668,0)" xlink:href="#K"/><use transform="matrix(0.010091145833333334,0,0,0.010091145833333334,35.177734375,0)" xlink:href="#F"/><use transform="matrix(0.010091145833333334,0,0,0.010091145833333334,41.73697916666667,0)" xlink:href="#ad"/><use transform="matrix(0.010091145833333334,0,0,0.010091145833333334,53.54361979166667,0)" xlink:href="#X"/></g><path fill="#333" d="M677 24c-213 0-288-135-325-197h-20V0H158v-1490h180v551h14c37-59 106-193 324-193 279 0 474 222 474 576 0 356-194 580-473 580zm-27-161c209 0 317-186 317-421 0-232-105-413-317-413-206 0-314 166-314 413 0 249 111 421 314 421" id="aj"/><path fill="#333" d="M140 405l46-156c120 36 205 19 263-150l32-93L54-1118h197c107 313 237 620 324 950 87-331 219-637 326-950h196L606 167c-68 178-176 259-334 259-64 0-113-12-132-21" id="ak"/><g id="q"><use transform="matrix(0.0087890625,0,0,0.0087890625,0,0)" xlink:href="#D"/><use transform="matrix(0.0087890625,0,0,0.0087890625,11.49609375,0)" xlink:href="#W"/><use transform="matrix(0.0087890625,0,0,0.0087890625,21.603515625,0)" xlink:href="#S"/><use transform="matrix(0.0087890625,0,0,0.0087890625,31.1044921875,0)" xlink:href="#aa"/><use transform="matrix(0.0087890625,0,0,0.0087890625,42.1259765625,0)" xlink:href="#aj"/><use transform="matrix(0.0087890625,0,0,0.0087890625,53.1474609375,0)" xlink:href="#G"/><use transform="matrix(0.0087890625,0,0,0.0087890625,63.6416015625,0)" xlink:href="#H"/><use transform="matrix(0.0087890625,0,0,0.0087890625,70.69921875,0)" xlink:href="#H"/><use transform="matrix(0.0087890625,0,0,0.0087890625,77.7568359375,0)" xlink:href="#ak"/></g><g id="r"><use transform="matrix(0.0087890625,0,0,0.0087890625,0,0)" xlink:href="#P"/><use transform="matrix(0.0087890625,0,0,0.0087890625,11.49609375,0)" xlink:href="#K"/></g></defs></g></svg>